<svg width="120" height="30" viewBox="0 0 120 30" fill="none" xmlns="http://www.w3.org/2000/svg">
<path d="M18.6926 21.171C18.6926 21.8759 18.9189 23.0186 19.7351 23.3784C19.9392 23.4712 19.9243 23.6344 19.7388 23.6344H13.6398C13.4023 23.6344 13.3578 23.4415 13.6398 23.3784C13.9217 23.3191 14.9568 22.7292 14.9568 21.0041V12.2933H5.25542V21.171C5.25542 21.8759 5.48172 23.0186 6.2979 23.3784C6.50565 23.4712 6.4871 23.6344 6.29419 23.6344H0.195126C-0.0423073 23.6344 -0.086826 23.4415 0.195126 23.3784C0.477077 23.3191 1.51214 22.7292 1.51214 21.0041V3.02966C1.51214 2.23203 0.911134 1.28601 0.269323 1.11536C-0.0237578 1.03745 0.0875389 0.859375 0.254484 0.859375H6.29048C6.53162 0.859375 6.47226 1.03374 6.27564 1.11536C6.07901 1.20069 5.25171 1.70894 5.25171 3.02966V10.6906H14.9531V3.02966C14.9531 2.23574 14.3558 1.28972 13.7103 1.11536C13.4172 1.03745 13.5285 0.859375 13.6954 0.859375H19.7314C19.9726 0.859375 19.9132 1.03374 19.7166 1.11536C19.5199 1.20069 18.6926 1.70894 18.6926 3.02966V21.171Z" fill="white"/>
<path fill-rule="evenodd" clip-rule="evenodd" d="M33.9996 13.2764C33.9996 13.4322 33.9106 13.5212 33.7325 13.5212V13.5175H24.4949C24.4578 14.0072 24.4393 14.5415 24.4393 15.1239C24.4393 19.2753 26.6058 21.2638 29.1731 21.2638C30.8462 21.2638 32.1632 20.3511 33.2354 18.1623C33.3838 17.8655 33.458 17.7171 33.6843 17.8284C33.8954 17.9375 33.8463 18.1032 33.7457 18.4426C33.7402 18.4612 33.7346 18.4803 33.7288 18.4999C33.6175 18.8783 32.0779 23.8792 27.2773 23.8792C24.5765 23.8792 21.3378 21.7832 21.3378 15.7991C21.3378 13.5249 22.499 7.04747 28.2827 7.04747C30.8091 7.04747 33.9996 8.56482 33.9996 13.2764ZM30.9167 12.2934C30.9167 12.2934 30.7386 8.07526 27.9043 8.07526C26.795 8.07526 25.1924 8.77272 24.6433 12.2934H30.9167Z" fill="white"/>
<path fill-rule="evenodd" clip-rule="evenodd" d="M81.0225 13.2764C81.0225 13.4322 80.9335 13.5212 80.7554 13.5212V13.5175H71.5215C71.4844 14.0072 71.4658 14.5414 71.4658 15.1239C71.4658 19.2752 73.6324 21.2637 76.1997 21.2637C77.8728 21.2637 79.1898 20.3511 80.262 18.1623C80.4067 17.8655 80.4846 17.7171 80.7072 17.8284C80.9182 17.9374 80.8691 18.1032 80.7686 18.4426C80.7631 18.4612 80.7575 18.4803 80.7517 18.4999C80.6404 18.8783 79.1008 23.8792 74.3002 23.8792C71.5994 23.8792 68.3606 21.7831 68.3606 15.7991C68.3606 13.5249 69.5219 7.04745 75.3056 7.04745C77.8283 7.04745 81.0225 8.56479 81.0225 13.2764ZM77.9396 12.2933C77.9396 12.2933 77.7652 8.07517 74.9271 8.07517C73.8179 8.07517 72.2152 8.77263 71.6624 12.2933H77.9396Z" fill="white"/>
<path d="M35.2276 23.6344C35.0087 23.6344 34.9345 23.4601 35.2091 23.3785C35.4836 23.2968 36.5595 22.8999 36.5595 21.3677V11.2842C36.5595 10.5088 36.0289 9.65928 35.2758 9.65928C35.0866 9.65928 34.9345 9.37733 35.3129 9.24377C35.6914 9.11021 37.7874 8.37566 39.5051 7.18478C39.6498 7.08832 39.8427 6.97702 39.8427 7.35543V8.92472C39.8427 9.18812 39.8242 9.56653 40.2026 9.15102C40.581 8.73551 42.128 7.03638 44.7732 7.03638C47.4183 7.03638 49.251 8.83197 49.251 11.1173V21.6348C49.251 22.8999 49.7704 23.2338 50.2119 23.3525C50.5124 23.4341 50.3714 23.6344 50.134 23.6344H44.9512C44.7323 23.6344 44.7323 23.4601 44.9512 23.3785C45.1701 23.2968 45.9418 22.8813 45.9418 21.2564V11.9446C45.9418 10.8279 45.4706 8.92472 43.1853 8.92472C40.9 8.92472 39.8056 10.6424 39.8056 13.4916V21.8574C39.8056 22.4807 40.1061 23.1596 40.7294 23.3488C40.8926 23.397 40.9186 23.6307 40.6626 23.6307L35.2276 23.6344ZM51.9666 23.6344C51.7478 23.6344 51.6736 23.4601 51.9481 23.3785C52.2226 23.2968 53.2985 22.8999 53.2985 21.3677V11.2842C53.2985 10.5088 52.768 9.65928 52.0149 9.65928C51.8257 9.65928 51.6736 9.37733 52.052 9.24377C52.4304 9.11021 54.5265 8.37566 56.2441 7.18478C56.3888 7.08832 56.5855 6.97702 56.5855 7.35543V8.92472C56.5855 9.18812 56.5669 9.56653 56.9453 9.15102C57.3237 8.73551 58.8745 7.03638 61.5159 7.03638C64.1573 7.03638 65.9937 8.83197 65.9937 11.1173V21.6348C65.9937 22.8999 66.5131 23.2338 66.9583 23.3525C67.2588 23.4341 67.1178 23.6344 66.8804 23.6344H61.6977C61.4788 23.6344 61.4788 23.4601 61.6977 23.3785C61.9166 23.2968 62.6919 22.8813 62.6919 21.2564V11.9446C62.6919 10.8279 62.2208 8.92472 59.9318 8.92472C57.6465 8.92472 56.5521 10.6424 56.5521 13.4916V21.8574C56.5521 22.4807 56.8563 23.1596 57.4795 23.3488C57.6428 23.397 57.6687 23.6307 57.4128 23.6307L51.9666 23.6344ZM83.2002 23.6344L82.9294 18.8561C82.9294 18.8561 82.9294 18.6187 83.1297 18.6187C83.3301 18.6187 83.3672 18.678 83.4673 18.8969C83.5675 19.1158 84.7027 22.885 87.4555 22.885C89.3549 22.885 90.3269 21.5012 90.3269 20.4105C90.3269 19.3198 89.6109 18.2032 86.4909 16.415C83.3709 14.6268 82.7921 13.6697 82.7921 11.7628C82.7921 9.8559 84.2427 7.27011 87.7411 7.27011C89.3512 7.27011 90.0672 7.74497 90.4456 7.84514C90.824 7.94531 91.4176 8.10483 91.7367 7.44818C91.8331 7.24785 91.8776 7.14768 91.9964 7.14768C92.1151 7.14768 92.193 7.16623 92.193 7.42592C92.193 7.68561 92.3933 11.2619 92.3933 11.2619C92.3933 11.2619 92.4156 11.6181 92.1373 11.6181C91.8591 11.6181 91.8776 11.3992 91.6996 11.0616C91.2432 10.1861 90.0709 8.26065 87.7448 8.26065C87.1475 8.26065 85.5597 8.42017 85.5597 10.3456C85.5597 12.271 87.4666 12.8312 88.7205 13.6474C89.9745 14.4636 93.3319 15.955 93.3319 19.1937C93.3319 22.4324 90.4716 23.9646 88.0231 23.9646C87.0696 23.9646 86.0754 23.7865 85.2703 23.3747C84.8845 23.1781 84.2278 22.9704 83.6788 23.6307C83.497 23.857 83.2002 24.0462 83.2002 23.6344ZM95.1052 23.6344L94.8344 18.8561C94.8344 18.8561 94.8344 18.6187 95.0348 18.6187C95.2351 18.6187 95.2722 18.678 95.3724 18.8969C95.4725 19.1158 96.6078 22.885 99.3605 22.885C101.26 22.885 102.232 21.5012 102.232 20.4105C102.232 19.3198 101.516 18.2032 98.3959 16.415C95.2759 14.6268 94.6972 13.6697 94.6972 11.7628C94.6972 9.8559 96.1477 7.27011 99.6461 7.27011C101.256 7.27011 101.972 7.74497 102.351 7.84514C102.729 7.94531 103.323 8.10483 103.642 7.44818C103.738 7.24785 103.783 7.14768 103.901 7.14768C104.02 7.14768 104.098 7.16623 104.098 7.42592C104.098 7.68561 104.298 11.2619 104.298 11.2619C104.298 11.2619 104.321 11.6181 104.042 11.6181C103.764 11.6181 103.783 11.3992 103.605 11.0616C103.148 10.1861 101.976 8.26065 99.6499 8.26065C99.0526 8.26065 97.4647 8.42017 97.4647 10.3456C97.4647 12.271 99.3716 12.8312 100.626 13.6474C101.88 14.4636 105.237 15.955 105.237 19.1937C105.237 22.4324 102.377 23.9646 99.9281 23.9646C98.9747 23.9646 97.9804 23.7865 97.1754 23.3747C96.7895 23.1781 96.1329 22.9704 95.5838 23.6307C95.402 23.857 95.1052 24.0462 95.1052 23.6344Z" fill="white"/>
<path d="M119.872 7.37761H116.074C115.884 7.37761 115.907 7.58907 116.029 7.63359C116.364 7.82618 116.62 8.13132 116.751 8.49475C116.882 8.85818 116.88 9.25632 116.745 9.61838C116.582 10.1563 114.883 14.9421 113.388 19.1268C112.724 17.2459 110.19 10.045 109.911 9.1769C109.596 8.17523 110.242 7.77456 110.594 7.62988C110.946 7.4889 110.776 7.3739 110.583 7.3739H104.814C104.617 7.3739 104.584 7.59649 104.74 7.62988C105.437 7.79682 105.927 8.26056 106.157 8.90979C106.365 9.48483 110.768 21.1784 111.737 23.7494L111.128 25.4411C110.639 26.7952 110.004 27.1884 109.24 27.1884C108.476 27.1884 108.324 26.4687 107.251 26.4687C106.402 26.4687 105.797 26.9473 105.797 27.6484C105.797 28.3496 106.443 29.1324 107.949 29.1324C110.394 29.1324 111.607 27.1439 112.197 25.4856C112.787 23.8273 117.546 10.7425 117.94 9.7371C118.537 8.21604 119.576 7.69666 119.824 7.62988C120.073 7.57423 120.028 7.37761 119.872 7.37761Z" fill="white"/>
</svg>
