<svg width="72" height="72" viewBox="0 0 72 72" fill="none" xmlns="http://www.w3.org/2000/svg">
<path d="M36 0C16.1494 0 0 16.1497 0 36.0005C0 55.8514 16.1494 72.0009 36 72.0009C55.8506 72.0009 72 55.8514 72 36.0005C72.0001 16.1497 55.8506 0 36 0ZM36 67.3381C18.7204 67.3381 4.66277 53.2801 4.66277 36.0005C4.66277 18.7207 18.7205 4.66277 36 4.66277C53.2792 4.66277 67.3372 18.7208 67.3372 36.0005C67.3372 53.28 53.2793 67.3381 36 67.3381ZM48.2306 25.4999H48.5147V24.1237H49.0267V23.8807H47.7197V24.1237H48.2306L48.2306 25.4999ZM49.48 24.2488H49.4852L49.9343 25.4999H50.1657L50.6147 24.2488H50.621V25.4999H50.8878V23.8808H50.4957L50.0616 25.1472H50.0541L49.6096 23.8808H49.2111V25.4999H49.4801L49.48 24.2488ZM41.304 23.8794H23.5938L20.9067 28.1977H38.5965L41.304 23.8794ZM44.9233 23.9206L34.0966 41.1602H22.0873L24.858 36.8382H32.0558L34.8053 32.5182H18.1653L15.4163 36.8382H19.3584L13.889 45.4673H36.7143L45.145 32.1716L48.219 36.8381H45.4472L42.8222 41.1602H51.0302L53.8803 45.4673H59.1161L44.9233 23.9206Z" fill="white"/>
</svg>
