<svg width="60" height="60" viewBox="0 0 60 60" fill="none" xmlns="http://www.w3.org/2000/svg">
<path d="M40.4322 22.0184C40.6708 21.8886 40.7334 21.8603 40.7326 22.1268C40.7284 23.5336 40.1161 25.7101 36.6217 25.7006C34.8972 25.6956 33.9008 24.9897 33.9031 24.1502C33.9074 22.816 35.6435 22.6953 36.9052 22.6075C36.9738 22.6028 37.041 22.5981 37.1065 22.5933C38.3091 22.5059 39.9252 22.2944 40.4322 22.0184Z" fill="white"/>
<path fill-rule="evenodd" clip-rule="evenodd" d="M7.10749 18.2289L5.51358 18.2286L5.50404 18.227L0 51.4815L51.4819 60L57.1405 25.7984C55.9005 26.859 54.0058 27.3862 51.546 27.3862C47.1907 27.3862 44.3782 25.359 44.3782 21.7516C44.3782 18.2328 46.8567 16.0295 51.6437 16.0295C54.9953 16.0295 57.2115 17.1985 58.2316 19.2063L60.0004 8.51814L8.51814 0L5.83504 16.2185V16.2529H7.12505L7.12581 15.9494C7.12581 13.6389 7.68893 11.3204 13.0204 11.3204C17.8441 11.3204 18.8234 13.2151 19.1078 14.9854H16.0223C15.7352 14.1451 15.1709 13.1808 13.0383 13.1808C11.1852 13.1808 10.2117 14.0699 10.2117 15.9578L10.2109 16.2422H19.1024V17.8025C19.3819 17.3272 20.2611 15.9952 23.9208 15.9952C28.5193 15.9952 29.8891 18.1728 29.8837 20.1466C29.8776 22.3701 29.8837 27.1132 29.8837 27.1132H26.7963V21.4992C26.7963 19.6056 25.7625 18.2331 22.9618 18.2331C20.2168 18.2331 19.0826 19.5262 19.0826 21.4328V27.1174H16.0013V18.2343H10.1934V27.1151H7.10749V18.2289ZM37.1928 15.9291C32.7161 15.9291 31.0569 17.6009 31.0569 19.643L34.1646 19.6426C34.3719 18.645 34.9873 17.6524 37.5284 17.6597C39.661 17.6658 40.7422 18.3266 40.7391 19.4609C40.7363 20.5231 39.7993 20.6048 36.9644 20.852C36.7109 20.8741 36.4423 20.8975 36.1578 20.9231C31.5055 21.3415 30.5744 21.7019 30.5683 23.9024C30.561 26.5798 33.1685 27.1765 35.9364 27.1842C39.0219 27.1929 39.9977 26.3561 40.7204 25.5864V27.1166H43.8135V20.2637C43.8135 16.2246 40.3008 15.9291 37.1928 15.9291Z" fill="white"/>
<path d="M58.1301 19.8152L57.5479 23.355L57.504 23.6116H55.1576C54.4314 24.6779 53.0868 25.4006 51.5517 25.3964C49.2477 25.3903 47.4526 23.762 47.4587 21.7596C47.4637 19.7576 49.3348 18.0121 51.638 18.0186C53.0777 18.0228 54.2784 18.8092 55.0366 19.8152H58.1301Z" fill="white"/>
</svg>
