<svg width="76" height="30" viewBox="0 0 76 30" fill="none" xmlns="http://www.w3.org/2000/svg">
<path fill-rule="evenodd" clip-rule="evenodd" d="M3.09257 0.711993L1.65396 0.637665L1.06098 0.519067L0.942378 0.296494C0.942378 0.088948 1.09062 0 1.38752 0H16.2638C23.2347 0 28.1288 2.12095 30.9768 6.37746C32.6083 8.83958 33.4239 11.7615 33.4239 15.1431C33.4239 16.9083 33.1571 18.6137 32.6079 20.2599C31.9853 21.9954 31.1251 23.5233 30.0126 24.888C28.7962 26.3262 27.3133 27.4391 25.6074 28.2547C23.783 29.0852 21.7364 29.5154 19.4375 29.5154H0.467581C0.156059 29.5154 0.0078125 29.4114 0.0078125 29.2339C0.0078125 29.041 0.230386 28.9374 0.645478 28.9374L4.27936 28.7152C4.8431 28.6405 5.24357 28.4772 5.4365 28.2551L5.80732 27.7356C5.94094 27.3802 6.01527 26.8465 6.02989 26.1195V2.59574C6.02989 1.67621 5.51082 1.11246 4.50234 0.889889L3.09257 0.711993ZM11.102 1.11246L10.998 1.70586V27.8245C10.998 28.121 11.0573 28.3282 11.1759 28.4029L11.7693 28.4918H13.727L18.2653 28.3286C19.4814 28.1954 20.5195 28.0024 21.3355 27.7352C22.1468 27.4392 22.9072 27.0191 23.5896 26.4899C24.183 26.0005 24.7911 25.3031 25.4588 24.4132C26.5708 22.96 27.3718 21.1059 27.8612 18.8367C28.1577 17.3542 28.3063 15.9152 28.3063 14.5359C28.3063 13.3199 28.1284 12.0145 27.7576 10.6055C27.2385 8.57355 26.4522 6.79377 25.3398 5.28084C23.1892 2.34433 19.6593 0.890701 14.7797 0.890701H11.7689C11.4281 0.860239 11.2055 0.934566 11.102 1.11246ZM36.3454 29.2928C36.3157 29.1145 36.464 29.0406 36.7905 29.0406L37.8287 29.0105C38.3924 28.9366 38.7336 28.7441 38.8668 28.4472L39.0597 27.3794V18.762C39.0597 18.4358 38.9407 18.1836 38.7186 18.0354L37.9473 17.9606L36.9091 18.2429L36.3454 18.2129C36.2711 18.035 36.4936 17.8717 37.0127 17.7234C38.2438 17.3973 39.327 16.9818 40.2461 16.4627C40.8094 16.1366 41.2099 15.9583 41.3878 15.8844L41.833 15.8401C41.9812 15.8693 42.0559 16.1662 42.0559 16.6999V27.5565C42.0559 28.0751 42.1741 28.4464 42.3971 28.6685C42.6635 28.9358 43.287 29.069 44.2508 29.069C44.592 29.069 44.7695 29.1437 44.7999 29.3062C44.7999 29.4402 44.6959 29.4845 44.5176 29.4845H36.6122C36.4343 29.4857 36.3454 29.411 36.3454 29.2928ZM71.3479 18.6137C70.6213 19.3704 70.1319 20.2599 69.8646 21.3277V27.6316C69.8646 28.195 70.0576 28.5954 70.458 28.8476L71.3633 29.0101L72.3121 29.1141C72.5351 29.1441 72.6241 29.1888 72.6241 29.307L72.5798 29.411L72.3276 29.4857H64.3925C64.1553 29.4857 64.0221 29.411 64.0221 29.2928L64.2442 29.1145L65.5793 29.0105C66.0979 28.9216 66.4249 28.7441 66.6028 28.4768L66.8258 27.8095V18.9106L66.6767 18.2579L66.4253 18.1097C66.3506 18.0358 66.2324 17.9915 66.0541 17.9614C65.8319 17.9472 65.5647 17.9915 65.2832 18.1097L64.5273 18.3176L64.0964 18.2137C64.0225 18.1097 64.0521 18.0358 64.1557 17.9915L64.7934 17.7242C66.2466 17.2941 67.4184 16.8494 68.2347 16.39L69.2428 15.8409L69.688 15.8701L69.8658 16.2414V19.504C70.9787 17.6946 71.8682 16.5825 72.4766 16.2113C72.847 15.9891 73.2032 15.8108 73.4705 15.7369L73.9892 15.6927C74.3153 15.6626 74.6865 15.7666 75.1012 16.0338C75.6654 16.36 75.9618 16.8494 75.9911 17.472C76.0211 17.9915 75.8721 18.3924 75.5459 18.7031C75.2495 18.9553 74.9526 19.03 74.6861 18.9553C74.4339 18.911 74.241 18.8071 74.1077 18.6588L73.6922 18.1402C73.3661 17.6649 73.0546 17.5167 72.6842 17.6507C72.2524 17.7681 71.8081 18.0951 71.3479 18.6137ZM40.3501 6.42214C39.801 6.42214 39.3562 6.61507 38.9858 6.98589C38.5853 7.35671 38.3924 7.8311 38.4217 8.38022C38.3924 8.89929 38.5849 9.34443 38.9858 9.71525C39.3562 10.0861 39.8014 10.2786 40.3501 10.2786C40.8687 10.2786 41.3289 10.0857 41.6993 9.71525C42.0697 9.34443 42.2777 8.89969 42.2777 8.38022C42.2777 7.8311 42.0697 7.35671 41.6993 6.98589C41.3289 6.61507 40.8687 6.42214 40.3501 6.42214ZM48.2108 18.2575C48.7445 17.5459 49.4126 16.9525 50.2132 16.4782C50.9256 16.0627 51.6372 15.7958 52.3788 15.6618L55.1228 15.4993C56.1158 15.5436 57.0362 15.7365 57.8668 16.1069C59.8691 16.9968 61.1294 18.6288 61.6038 21.0015C62.0932 23.4043 61.6786 25.4367 60.3728 27.0829C59.2607 28.4768 57.792 29.3667 55.9384 29.7522C53.9957 30.1823 52.1863 30.0486 50.5543 29.3817C48.433 28.5211 47.1435 26.8156 46.7275 24.3239C46.3567 21.9661 46.8461 19.9634 48.2108 18.2575ZM56.9018 17.5906C55.9972 16.5825 54.8551 16.1374 53.4754 16.2556C52.1412 16.3896 51.1177 17.1304 50.45 18.5394C49.8424 19.8151 49.6194 21.3732 49.8424 23.2118C50.0048 25.0363 50.584 26.4895 51.5178 27.602C52.5116 28.7737 53.6391 29.2631 54.8994 29.041C56.2194 28.7888 57.184 28.0764 57.8217 26.8904C58.4443 25.6743 58.6665 24.1021 58.5183 22.0998C58.3408 20.0974 57.8221 18.6137 56.9018 17.5906ZM36.2414 18.2433V18.3916L35.9149 18.1836V18.2575L35.9445 18.3916H35.8998V18.1093H35.9149L36.2113 18.3323V18.1093H36.2706L36.2414 18.2433Z" fill="white"/>
<path fill-rule="evenodd" clip-rule="evenodd" d="M36.7901 18.1388H36.6122V18.2428H36.7604V18.257H36.6122V18.361H36.7901V18.3915H36.5679V18.1088H36.7901V18.1388ZM37.6211 18.1088L37.4729 18.391H37.4282L37.3096 18.1681L37.1759 18.391H37.1609C37.0866 18.257 37.0277 18.1681 37.0127 18.1088H37.087L37.1759 18.3317L37.3096 18.1088H37.3538L37.4578 18.3317L37.5764 18.1088H37.6211ZM38.0212 18.257L38.0508 18.3915H37.9769V18.2875L37.8286 18.1088H37.9026L38.0212 18.257L38.1398 18.1088H38.1995L38.0212 18.257ZM38.4367 18.1685C38.4659 18.1392 38.5406 18.1092 38.6146 18.1092C38.6893 18.1092 38.7336 18.1392 38.7929 18.1685C38.8071 18.1835 38.8371 18.2127 38.8371 18.2574L38.7929 18.3614C38.7336 18.3915 38.6889 18.3915 38.6146 18.3915C38.5406 18.3915 38.4663 18.3915 38.4367 18.3614L38.3619 18.2574C38.3623 18.2127 38.3924 18.1835 38.4367 18.1685ZM38.7336 18.1685L38.6146 18.1392L38.4964 18.1685C38.4663 18.1835 38.4371 18.2127 38.4371 18.2574C38.4371 18.2875 38.4663 18.3167 38.4964 18.3322L38.6146 18.3915C38.6588 18.3915 38.7185 18.3614 38.7336 18.3322C38.7628 18.3171 38.7929 18.2879 38.7929 18.2574C38.7929 18.2127 38.7628 18.1835 38.7336 18.1685ZM39.1783 18.1388L39.1633 18.2428H39.2075C39.2815 18.2428 39.3265 18.2127 39.3265 18.1835C39.3265 18.1685 39.3115 18.1392 39.2368 18.1392L39.1783 18.1388ZM39.2522 18.1088C39.327 18.1088 39.3854 18.1388 39.3854 18.1835L39.3265 18.2428L39.2518 18.257L39.4301 18.391H39.3554L39.1775 18.257H39.1633L39.1783 18.391H39.1036V18.1088H39.2522ZM39.9939 18.1088L39.8013 18.2428L39.9939 18.3915H39.9203L39.7567 18.257V18.2428L39.7266 18.257L39.7567 18.3915H39.6823V18.1088H39.7567L39.7266 18.2428H39.7567L39.9496 18.1088H39.9939Z" fill="white"/>
</svg>
