<svg width="120" height="30" viewBox="0 0 120 30" fill="none" xmlns="http://www.w3.org/2000/svg">
<path d="M23.5878 1.59153H22.6916V28.4414H23.5878V1.59153Z" fill="white"/>
<path d="M27.2084 1.59153H26.3122V28.4414H27.2084V1.59153Z" fill="white"/>
<path d="M25.3801 1.59153H24.4839V28.4414H25.3801V1.59153Z" fill="white"/>
<path d="M40.5437 27.5093H28.4989V28.4055H40.5437V27.5093Z" fill="white"/>
<path d="M40.5437 23.8886H28.4989V24.7848H40.5437V23.8886Z" fill="white"/>
<path d="M40.5437 25.681H28.4989V26.5772H40.5437V25.681Z" fill="white"/>
<path d="M39.8267 15.8947H28.4989V16.7909H39.8267V15.8947Z" fill="white"/>
<path d="M39.8267 12.274H28.4989V13.1702H39.8267V12.274Z" fill="white"/>
<path d="M39.8267 14.1023H28.4989V14.9985H39.8267V14.1023Z" fill="white"/>
<path d="M40.5437 5.21219H28.4989V6.10838H40.5437V5.21219Z" fill="white"/>
<path d="M40.5437 1.59153H28.4989V2.48772H40.5437V1.59153Z" fill="white"/>
<path d="M40.5437 3.38391H28.4989V4.2801H40.5437V3.38391Z" fill="white"/>
<path d="M0.896191 1.59153H0V28.4414H0.896191V1.59153Z" fill="white"/>
<path d="M4.5168 1.59153H3.62061V28.4414H4.5168V1.59153Z" fill="white"/>
<path d="M2.72442 1.59153H1.82823V28.4414H2.72442V1.59153Z" fill="white"/>
<path d="M15.8805 0.659445L5.16206 11.3779L5.80732 12.0231L16.5258 1.3047L15.8805 0.659445ZM17.171 1.94996L6.45258 12.6684L7.09784 13.3137L17.8163 2.59522L17.171 1.94996ZM18.4257 3.2584L7.74309 13.9589L19.6087 25.8424L20.2539 25.1972L8.99776 13.9589L19.071 3.88573L18.4257 3.2584ZM7.74309 15.2494L7.09784 15.8947L18.3181 27.115L18.9634 26.4697L7.74309 15.2494ZM6.45258 16.5399L5.80732 17.1852L17.0276 28.4055L17.6729 27.7603L6.45258 16.5399Z" fill="white"/>
<path d="M49.4626 4.59917L48.6919 5.05802L60.6255 25.2761L61.3963 24.8208L49.4626 4.59917Z" fill="white"/>
<path d="M44.236 1.59153H43.3398V28.4414H44.236V1.59153Z" fill="white"/>
<path d="M47.8566 1.59153H46.9604V28.4414H47.8566V1.59153Z" fill="white"/>
<path d="M46.0284 1.59153H45.1322V28.4414H46.0284V1.59153Z" fill="white"/>
<path d="M63.1635 1.59153H62.2673V28.4414H63.1635V1.59153Z" fill="white"/>
<path d="M66.82 1.59153H65.9238V28.4414H66.82V1.59153Z" fill="white"/>
<path d="M64.9918 1.59153H64.0956V28.4414H64.9918V1.59153Z" fill="white"/>
<path d="M90.7304 27.5093H69.3652V28.4055H90.7304V27.5093Z" fill="white"/>
<path d="M90.7304 23.8886H69.3652V24.7848H90.7304V23.8886Z" fill="white"/>
<path d="M90.7304 25.681H69.3652V26.5772H90.7304V25.681Z" fill="white"/>
<path d="M84.2778 6.96868L71.4085 19.838L72.0538 20.4832L84.9231 7.61393L84.2778 6.96868ZM85.5683 8.25919L72.699 21.1285L73.3443 21.7379L86.2136 8.90445L85.5683 8.27711V8.25919ZM86.8589 9.51386L73.9895 22.3832L74.6348 23.0284L87.5041 10.1591L86.8589 9.51386Z" fill="white"/>
<path d="M90.7304 5.21219H69.3652V6.10838H90.7304V5.21219Z" fill="white"/>
<path d="M90.7304 1.59153H69.3652V2.48772H90.7304V1.59153Z" fill="white"/>
<path d="M90.7304 3.38391H69.3652V4.2801H90.7304V3.38391Z" fill="white"/>
<path fill-rule="evenodd" clip-rule="evenodd" d="M102.542 0.671319C105.376 0.107669 108.313 0.396954 110.982 1.50259C113.652 2.60823 115.933 4.48056 117.538 6.88282C119.143 9.28508 120 12.1094 120 14.9985C120 18.8728 118.461 22.5884 115.721 25.3279C112.982 28.0674 109.266 29.6065 105.392 29.6065C102.503 29.6065 99.6786 28.7497 97.2764 27.1446C94.8741 25.5394 93.0018 23.258 91.8961 20.5888C90.7905 17.9195 90.5012 14.9823 91.0649 12.1487C91.6285 9.31503 93.0198 6.71214 95.0627 4.66919C97.1057 2.62624 99.7086 1.23497 102.542 0.671319ZM110.777 1.99938C108.206 0.934436 105.376 0.655799 102.647 1.1987C99.9178 1.7416 97.4107 3.08166 95.443 5.04941C93.4752 7.01717 92.1351 9.52424 91.5922 12.2536C91.0493 14.9829 91.328 17.812 92.3929 20.383C93.4579 22.954 95.2613 25.1514 97.5751 26.6975C99.8889 28.2435 102.609 29.0687 105.392 29.0687C109.124 29.0687 112.703 27.5864 115.341 24.9477C117.98 22.309 119.462 18.7302 119.462 14.9985C119.462 12.2157 118.637 9.49539 117.091 7.18156C115.545 4.86773 113.348 3.06432 110.777 1.99938ZM105.392 1.82454C102.787 1.82454 100.239 2.59718 98.073 4.04476C95.9065 5.49234 94.218 7.54984 93.2209 9.95707C92.2238 12.3643 91.9629 15.0132 92.4712 17.5687C92.9795 20.1242 94.2342 22.4716 96.0767 24.314C97.9191 26.1564 100.266 27.4111 102.822 27.9194C105.377 28.4277 108.026 28.1669 110.434 27.1697C112.841 26.1726 114.898 24.4841 116.346 22.3176C117.793 20.1512 118.566 17.6041 118.566 14.9985C118.566 11.5046 117.178 8.15372 114.708 5.68312C112.237 3.21251 108.886 1.82454 105.392 1.82454ZM97.7743 3.59767C100.029 2.091 102.68 1.28682 105.392 1.28682C109.029 1.28682 112.516 2.73145 115.088 5.30289C117.659 7.87434 119.104 11.362 119.104 14.9985C119.104 17.7105 118.3 20.3615 116.793 22.6164C115.286 24.8713 113.145 26.6287 110.639 27.6665C108.134 28.7043 105.377 28.9759 102.717 28.4468C100.057 27.9177 97.6141 26.6118 95.6964 24.6942C93.7788 22.7766 92.4729 20.3334 91.9438 17.6736C91.4148 15.0138 91.6863 12.2568 92.7241 9.7513C93.7619 7.24581 95.5194 5.10433 97.7743 3.59767Z" fill="white"/>
<path fill-rule="evenodd" clip-rule="evenodd" d="M102.906 2.49958C105.378 2.00785 107.94 2.26022 110.269 3.22478C112.598 4.18933 114.588 5.82274 115.988 7.91845C117.389 10.0142 118.136 12.4781 118.136 14.9985V14.9989C118.132 18.3775 116.788 21.6166 114.399 24.0056C112.01 26.3946 108.771 27.7385 105.392 27.7424H105.392C102.872 27.7424 100.408 26.995 98.312 25.5947C96.2163 24.1944 94.5829 22.204 93.6183 19.8754C92.6538 17.5468 92.4014 14.9844 92.8931 12.5123C93.3848 10.0403 94.5986 7.76955 96.3808 5.98729C98.1631 4.20504 100.434 2.9913 102.906 2.49958ZM110.063 3.72156C107.833 2.79771 105.379 2.55598 103.011 3.02696C100.643 3.49794 98.4681 4.66046 96.761 6.36751C95.054 8.07457 93.8915 10.2495 93.4205 12.6173C92.9495 14.985 93.1912 17.4393 94.1151 19.6696C95.0389 21.9 96.6034 23.8063 98.6107 25.1476C100.618 26.4887 102.978 27.2046 105.392 27.2047C108.628 27.201 111.731 25.9137 114.019 23.6254C116.307 21.337 117.594 18.2344 117.598 14.9982C117.598 12.5842 116.882 10.2244 115.541 8.21719C114.2 6.2099 112.294 4.64541 110.063 3.72156ZM109.704 4.57942C108.337 4.01406 106.872 3.72354 105.392 3.72446H105.392C103.162 3.72446 100.983 4.38568 99.1285 5.62449C97.2745 6.8633 95.8295 8.62407 94.9762 10.6841C94.1229 12.7442 93.8996 15.0111 94.3346 17.198C94.7696 19.385 95.8434 21.3938 97.4201 22.9705C98.9968 24.5472 101.006 25.621 103.193 26.056C105.38 26.491 107.646 26.2678 109.706 25.4144C111.767 24.5611 113.527 23.1161 114.766 21.2621C116.005 19.4081 116.666 17.2283 116.666 14.9985H117.204C117.204 17.3347 116.511 19.6184 115.213 21.5608C113.915 23.5033 112.071 25.0172 109.912 25.9112C107.754 26.8052 105.379 27.0391 103.088 26.5834C100.796 26.1276 98.6918 25.0027 97.0399 23.3507C95.388 21.6988 94.263 19.5942 93.8072 17.3029C93.3515 15.0117 93.5854 12.6367 94.4794 10.4784C95.3734 8.32004 96.8874 6.47529 98.8298 5.17739C100.772 3.87953 103.056 3.18678 105.392 3.18675M105.392 3.18675C106.942 3.18581 108.477 3.49019 109.91 4.08251C111.342 4.67486 112.644 5.54358 113.741 6.63906C114.838 7.73454 115.708 9.03533 116.303 10.4672C116.897 11.899 117.203 13.4338 117.204 14.984L116.666 14.9844C116.665 13.5048 116.373 12.0399 115.806 10.6732C115.239 9.30663 114.408 8.06509 113.361 7.01951C112.314 5.97393 111.072 5.14479 109.704 4.57942" fill="white"/>
<path fill-rule="evenodd" clip-rule="evenodd" d="M103.27 4.32784C105.38 3.90804 107.568 4.1235 109.556 4.94696C111.544 5.77042 113.243 7.16491 114.438 8.95408C115.634 10.7432 116.272 12.8467 116.272 14.9985C116.272 17.884 115.126 20.6513 113.085 22.6917C111.045 24.732 108.278 25.8783 105.392 25.8783C103.24 25.8783 101.137 25.2402 99.3476 24.0447C97.5584 22.8493 96.164 21.1501 95.3405 19.1621C94.517 17.174 94.3016 14.9865 94.7214 12.876C95.1412 10.7655 96.1774 8.82696 97.6989 7.30539C99.2205 5.78383 101.159 4.74764 103.27 4.32784ZM109.35 5.44374C107.46 4.66098 105.381 4.45617 103.374 4.85522C101.368 5.25427 99.5255 6.23925 98.0792 7.68562C96.6328 9.13198 95.6478 10.9748 95.2488 12.9809C94.8497 14.9871 95.0545 17.0665 95.8373 18.9563C96.62 20.846 97.9456 22.4612 99.6464 23.5976C101.347 24.734 103.347 25.3406 105.392 25.3406C108.135 25.3406 110.766 24.251 112.705 22.3115C114.645 20.372 115.734 17.7414 115.734 14.9985C115.734 12.9531 115.128 10.9536 113.991 9.25281C112.855 7.55207 111.24 6.22651 109.35 5.44374ZM105.392 5.58854C103.531 5.58854 101.712 6.14043 100.164 7.17441C98.6167 8.2084 97.4106 9.67804 96.6984 11.3975C95.9862 13.1169 95.7998 15.009 96.1629 16.8343C96.526 18.6597 97.4222 20.3364 98.7382 21.6524C100.054 22.9684 101.731 23.8647 103.556 24.2277C105.382 24.5908 107.274 24.4045 108.993 23.6923C110.713 22.98 112.182 21.7739 113.216 20.2265C114.25 18.679 114.802 16.8597 114.802 14.9985C114.802 12.5029 113.811 10.1094 112.046 8.34467C110.281 6.57995 107.888 5.58854 105.392 5.58854ZM99.8654 6.72732C101.501 5.63425 103.425 5.05083 105.392 5.05083C108.03 5.05083 110.561 6.09889 112.426 7.96445C114.292 9.83 115.34 12.3602 115.34 14.9985C115.34 16.966 114.756 18.8893 113.663 20.5252C112.57 22.1611 111.017 23.4361 109.199 24.189C107.381 24.942 105.381 25.139 103.451 24.7551C101.522 24.3713 99.7492 23.4239 98.358 22.0326C96.9668 20.6414 96.0193 18.8689 95.6355 16.9393C95.2517 15.0096 95.4487 13.0094 96.2016 11.1917C96.9545 9.37401 98.2295 7.82039 99.8654 6.72732Z" fill="white"/>
<path d="M99.298 13.6005L99.5131 13.6722C100.087 13.8156 100.66 13.708 100.839 13.0628C100.983 12.4892 100.768 12.0949 99.8357 11.844L99.4055 11.7364L98.581 14.8193L98.9754 14.9269L99.298 13.6005ZM99.6565 12.1666L99.764 12.2024C100.158 12.31 100.589 12.4892 100.445 12.9552C100.302 13.4213 99.8715 13.4213 99.4772 13.3137L99.3697 13.2779L99.6565 12.1666ZM103.062 15.1778L103.205 16.0381L103.636 16.1457L103.026 12.5251L100.696 15.357L101.126 15.4646L101.7 14.7835L103.062 15.1778ZM103.026 14.7835L101.915 14.4967L102.811 13.3854L103.026 14.7835ZM105.966 15.357C106.184 15.3935 106.408 15.3425 106.589 15.2151C106.77 15.0876 106.894 14.8939 106.934 14.6759C106.969 14.5258 106.968 14.3693 106.931 14.2196C106.893 14.0698 106.821 13.9313 106.718 13.8156C106.494 13.6253 106.221 13.5012 105.93 13.4571L105.464 13.3496L104.675 16.4325L105.069 16.54L105.428 15.2495L105.571 15.2853L106.145 16.8268L106.611 16.9343L105.966 15.357ZM105.786 13.8156L105.894 13.8514C106.288 13.959 106.718 14.1382 106.575 14.6401C106.432 15.1419 106.001 15.1061 105.607 14.9985L105.5 14.9627L105.786 13.8156ZM109.013 14.3174L108.618 14.2099L107.794 17.2928L108.188 17.4003L109.013 14.3174ZM112.06 15.5363C112.024 15.3691 111.941 15.2158 111.82 15.095C111.699 14.9741 111.546 14.8908 111.379 14.8552C110.913 14.7476 110.375 14.9269 110.267 15.3929C110.16 15.8589 110.411 16.1098 110.733 16.3608L110.913 16.5041C111.164 16.6834 111.379 16.8985 111.271 17.2211C111.238 17.3778 111.143 17.5148 111.009 17.6022C110.874 17.6895 110.711 17.7201 110.554 17.6871C110.404 17.6544 110.273 17.5638 110.189 17.435C110.105 17.3062 110.075 17.1494 110.106 16.9988C110.11 16.9769 110.116 16.9553 110.124 16.9343L109.73 16.8985C109.691 17.1395 109.743 17.3864 109.875 17.5915C110.008 17.7966 110.211 17.9456 110.447 18.0098C110.703 18.0825 110.978 18.052 111.213 17.9247C111.447 17.7974 111.622 17.5835 111.701 17.3286C111.845 16.8268 111.594 16.4683 111.199 16.1815L110.984 16.0381C110.881 15.9838 110.796 15.9007 110.738 15.799C110.681 15.6972 110.654 15.5811 110.662 15.4646C110.707 15.3423 110.799 15.2429 110.917 15.1879C111.035 15.1328 111.17 15.1266 111.293 15.1706C111.395 15.2002 111.488 15.2552 111.563 15.3304C111.638 15.4056 111.693 15.4986 111.723 15.6008L112.06 15.5363Z" fill="white"/>
<path d="M99.4055 11.7364L98.581 14.8193L98.9754 14.9269L99.298 13.6005L99.5131 13.6722C99.6512 13.7084 99.7933 13.7276 99.9361 13.7295C100.142 13.745 100.346 13.6862 100.512 13.5638C100.677 13.4415 100.794 13.2637 100.839 13.0628C100.983 12.4892 100.768 12.0949 99.8357 11.844L99.4055 11.7364ZM99.8608 13.371C99.7309 13.3694 99.6019 13.3501 99.4772 13.3137L99.3697 13.2779L99.6565 12.1666L99.764 12.2024C100.158 12.31 100.589 12.4892 100.445 12.9552C100.413 13.0828 100.337 13.1947 100.23 13.2709C100.123 13.3472 99.9917 13.3827 99.8608 13.371ZM103.026 12.5251L100.696 15.357L101.126 15.4646L101.7 14.7835L103.062 15.1778L103.205 16.0381L103.636 16.1457L103.026 12.5251ZM103.026 14.7835L101.915 14.4967L102.811 13.3854L103.026 14.7835ZM105.464 13.3496L104.675 16.4325L105.069 16.54L105.428 15.2495L105.571 15.2853L106.145 16.8268L106.611 16.9343L105.966 15.357C106.012 15.3606 106.059 15.3606 106.105 15.357C106.303 15.3568 106.493 15.2875 106.645 15.1611C106.796 15.0346 106.898 14.8592 106.934 14.6651C106.969 14.515 106.968 14.3585 106.931 14.2088C106.893 14.0591 106.821 13.9205 106.718 13.8048C106.494 13.6145 106.221 13.4904 105.93 13.4463L105.464 13.3388L105.464 13.3496ZM106.019 15.0666C105.88 15.0627 105.741 15.0398 105.607 14.9985L105.5 14.9627L105.786 13.8156L105.894 13.8514C106.288 13.959 106.718 14.1382 106.575 14.6401C106.551 14.7669 106.481 14.8804 106.378 14.959C106.276 15.0377 106.148 15.076 106.019 15.0666ZM108.618 14.2099L107.794 17.2928L108.188 17.4003L109.013 14.3174L108.618 14.2099ZM111.128 14.8265C110.943 14.8092 110.758 14.8562 110.604 14.9593C110.45 15.0625 110.336 15.2156 110.282 15.3929C110.174 15.8589 110.425 16.1098 110.748 16.3607L110.927 16.5041C111.178 16.6834 111.393 16.8985 111.285 17.2211C111.255 17.3564 111.18 17.4774 111.072 17.564C110.963 17.6507 110.829 17.6979 110.69 17.6979C110.65 17.7013 110.609 17.7013 110.568 17.6979C110.418 17.6652 110.287 17.5746 110.203 17.4457C110.119 17.3169 110.09 17.1602 110.12 17.0096C110.125 16.9876 110.131 16.9661 110.138 16.9451L109.744 16.9092C109.705 17.1503 109.757 17.3971 109.89 17.6022C110.022 17.8074 110.225 17.9563 110.461 18.0205C110.551 18.0456 110.644 18.0588 110.737 18.0599C110.955 18.0595 111.167 17.9899 111.343 17.861C111.519 17.7322 111.65 17.5508 111.716 17.343C111.859 16.8411 111.608 16.4826 111.214 16.1958L110.999 16.0525C110.895 15.9981 110.81 15.9151 110.753 15.8133C110.695 15.7115 110.669 15.5954 110.676 15.4789C110.71 15.3838 110.773 15.3017 110.856 15.2439C110.939 15.1861 111.037 15.1555 111.138 15.1563C111.196 15.1574 111.253 15.167 111.307 15.1849C111.409 15.2146 111.502 15.2695 111.577 15.3448C111.653 15.42 111.707 15.513 111.737 15.6151L112.06 15.5434C112.024 15.3763 111.941 15.223 111.82 15.1021C111.699 14.9813 111.546 14.898 111.379 14.8623C111.292 14.842 111.203 14.8323 111.113 14.8336L111.128 14.8265Z" fill="white"/>
</svg>
