<svg width="98" height="30" viewBox="0 0 98 30" fill="none" xmlns="http://www.w3.org/2000/svg">
<path d="M9.5967 4.05187H11.44V7.5739H4.88393V4.05187H6.71885V1.98829H0.890625V4.05187H2.74506V14.4255H0.890625V16.4794H6.71885V14.4255H4.88254V9.61238H11.4386V14.4255H9.5967V16.4794H15.4389V14.4255H13.5789V4.05187H15.4403V1.98829H9.5981M79.9007 14.4255H74.1561V9.59147H79.0975V7.54601H74.1547V4.05187H79.9439V6.03458H81.9796V1.98829H70.0722V4.05187H72.0144V14.4255H70.0722V16.4794H82.0075V11.6509H79.9021M30.1014 11.6509H27.996V14.4255H22.2515V9.59147H27.1943V7.54601H22.2515V4.05187H28.042V6.03458H30.0777V1.98829H18.1703V4.05187H20.1126V14.4255H18.1689V16.4794H30.1014M74.7096 1.27301H78.8856L77.8176 0H73.537M93.6207 8.19298C92.1636 7.77747 91.1346 7.87228 89.6525 7.3773C88.3139 6.92833 88.049 6.10569 88.049 5.56051C88.049 5.01255 88.6402 3.59175 90.7428 3.59175C92.8482 3.59175 94.2258 4.98327 94.3039 6.20887L94.3123 6.20329V6.20887H96.334V1.98411H94.3778V2.90435L94.4391 3.19158C94.4252 3.14975 94.3694 3.03402 94.1631 2.82906C94.1603 2.82488 94.1603 2.82209 94.1603 2.8179C93.5398 2.26018 92.3574 1.65226 90.5797 1.65226C88.4255 1.65226 85.8878 2.98801 85.8878 5.57027C85.8878 8.08701 87.706 8.96542 89.2481 9.37256C90.793 9.78249 91.5808 9.78249 92.8692 10.1311C94.1547 10.4796 94.9885 11.2549 94.9885 12.4038C94.9885 13.4914 94.3192 14.9177 91.5975 14.9177C88.8717 14.9177 87.7953 13.4481 87.4801 11.3455L87.4578 11.3553H85.5337V16.4835H87.5443V15.5243L87.5387 15.5173L87.4662 15.2635C87.4662 15.2635 87.5387 15.435 87.7674 15.594L87.7869 15.6219C88.8047 16.4027 90.1405 16.9214 91.8527 16.9214C93.7629 16.9214 97.1065 15.9412 97.1065 12.4693C97.1009 9.98466 95.7819 8.81344 93.6207 8.19158V8.19298ZM61.4456 14.4255V16.4794H67.3574V14.4255H65.4193V4.05187H67.3574V1.98829H62.073L58.5733 10.4573L58.5008 10.8728L58.4311 10.4504L54.9313 1.9869H49.6525V4.05048H51.5864V14.4242H49.6497V16.478H55.5574V14.4255H53.7099V4.88567L53.7239 4.25544L53.8954 4.75739L57.9249 14.3991H59.071L63.1145 4.7546L63.2624 4.24707L63.2847 4.81874V14.4255" fill="white"/>
<path d="M45.3692 11.4654C45.3692 10.6149 44.8017 9.61099 44.0222 9.13971C43.8317 9.02409 43.6169 8.9544 43.3948 8.93614C43.5844 8.9473 43.841 8.93335 44.0822 8.83296C44.0902 8.82978 44.0987 8.82789 44.1073 8.82738C44.8965 8.47602 45.853 7.45399 45.853 5.73201C45.853 4.45901 45.305 3.4314 44.375 2.75516C43.505 2.12493 42.4732 1.98271 41.4428 1.98271H33.3279V4.04629H35.1544V14.4409H33.3279V16.4961H39.0906V14.4395H37.2877V9.86057H41.2713C42.6447 9.8773 43.1759 10.7808 43.2038 11.5574L43.3042 16.4933H47.2863V14.4409H45.4249L45.3692 11.4654ZM41.7021 7.8681H37.2891V4.04768H41.4651C41.8973 4.04768 42.4355 4.03374 42.8552 4.24707C43.3683 4.50781 43.8494 5.06972 43.8494 5.98717C43.8494 7.04685 42.8789 7.8681 41.7021 7.8681ZM32.607 21.5993H29.856V29.8912H31.083V26.3023H32.4439C34.4238 26.3023 35.3231 25.2844 35.3231 23.9822C35.3231 22.6687 34.4726 21.5993 32.607 21.5993ZM32.5568 25.2342H31.0858V22.6687H32.6084C33.7239 22.6687 34.0585 23.324 34.0585 23.9292C34.0585 24.7588 33.4715 25.2342 32.5568 25.2342ZM40.0931 21.5505L36.4232 29.8885H37.7478L38.7518 27.4442H42.3839L43.4227 29.8885H44.7752L40.9548 21.5505H40.0903H40.0931ZM39.2286 26.3748L40.5058 23.0982L41.882 26.3748H39.2286ZM57.3435 21.5993H58.5705V29.8912H57.3435V21.5993ZM63.6723 23.5443C63.6723 22.9587 64.269 22.5586 65.1001 22.5586C65.7135 22.5586 66.4567 22.7538 67.2222 23.423V22.0706C66.6172 21.6944 65.9198 21.4932 65.2074 21.4891C63.551 21.4891 62.4648 22.3494 62.4648 23.7005C62.4648 25.9732 66.3731 26.1684 66.3731 27.8834C66.3731 28.3436 65.9101 28.9264 64.9021 28.9264C64.0125 28.9264 63.1815 28.4997 62.5178 27.7273V29.2331C63.2735 29.756 64.0655 30 65.0471 30C66.5041 30 67.5763 29.0491 67.5763 27.751C67.5819 25.1115 63.6723 25.138 63.6723 23.5443ZM53.0058 28.2487C52.3407 27.217 51.8569 26.4501 51.0677 25.9509C51.9977 25.5996 52.5206 24.8801 52.5206 23.9222C52.5206 22.4888 51.4219 21.6007 49.6622 21.6007H47.4648V29.8926H48.7155V26.2911H49.2398C49.8784 26.2911 50.4012 26.4863 51.5501 28.1874L52.6475 29.8912H54.1157L53.4701 28.9264C53.3086 28.7052 53.1537 28.4792 53.0058 28.2487ZM49.52 25.2231H48.7183V22.6199H49.5214C50.7345 22.6199 51.2197 23.094 51.2336 23.872C51.2434 24.5692 50.8627 25.2217 49.5214 25.2217L49.52 25.2231Z" fill="white"/>
</svg>
