<svg width="120" height="22" viewBox="0 0 120 22" fill="none" xmlns="http://www.w3.org/2000/svg">
<path fill-rule="evenodd" clip-rule="evenodd" d="M15.958 17.8273V20.379H0V2.83015H2.87289V17.8273H15.958ZM13.7241 9.21179L16.9149 3.14872H13.8834L11.4896 9.21179H13.7241ZM39.814 5.71076C38.7792 4.08259 37.268 2.7139 35.4882 1.78132C33.7085 0.848093 31.6603 0.350974 29.6127 0.350974C27.5651 0.350974 25.5163 0.848093 23.7372 1.78132C21.9574 2.7139 20.4455 4.08259 19.4108 5.71076C18.3761 7.33828 17.8173 9.22592 17.8173 11.1136C17.8173 13.0006 18.3761 14.8882 19.4108 16.5157C20.4455 18.1439 21.9568 19.5126 23.7372 20.4452C25.5169 21.3784 27.5651 21.8755 29.6127 21.8755C31.6603 21.8755 33.7085 21.379 35.4882 20.4452C37.268 19.5126 38.7792 18.1439 39.814 16.5157C40.8493 14.8882 41.4074 12.9999 41.4074 11.1136C41.4074 9.22656 40.8493 7.33892 39.814 5.71076ZM37.3309 15.411C36.5589 16.6879 35.4291 17.765 34.0958 18.5004C32.7624 19.2351 31.2261 19.6269 29.6891 19.6269C28.1522 19.6269 26.6159 19.2351 25.2825 18.5004C23.9498 17.765 22.82 16.6885 22.0474 15.411C21.2747 14.1335 20.8598 12.6563 20.8598 11.1791C20.8598 9.70121 21.2747 8.22397 22.0474 6.94713C22.82 5.67029 23.9491 4.5932 25.2825 3.85843C26.6159 3.12303 28.1528 2.73124 29.6891 2.73124C31.2255 2.73124 32.7624 3.12303 34.0958 3.85843C35.4291 4.5932 36.5583 5.66965 37.3309 6.94713C38.1038 8.22379 38.5145 9.68673 38.5191 11.1791C38.5143 12.6714 38.1035 14.1343 37.3309 15.411ZM61.44 10.3981C60.9204 11.5413 59.9377 12.2022 59.1689 12.6017C58.4001 13.0019 57.8458 13.1406 57.2877 13.1207L62.8729 20.3797H59.6814L54.2799 13.3602H47.2342V20.3797H44.3619V2.83015H55.8509C57.0121 2.83015 58.1901 3.0588 59.2293 3.64327C60.2685 4.22774 61.1676 5.11601 61.5903 6.37294C62.0122 7.62923 61.9583 9.25482 61.44 10.3981ZM58.2267 10.278C58.8317 9.76672 59.1901 8.92598 59.1586 8.09231C59.1278 7.25799 58.7071 6.43203 58.1066 5.92784C57.5054 5.4243 56.7372 5.38255 56.0108 5.38255H47.2342V10.8072H56.0108C56.7867 10.8072 57.6217 10.7899 58.2267 10.278ZM78.0325 10.3287V12.7212H68.2982V17.8273H81.3832V20.379H65.4253V2.83015H81.3832V5.38255H68.2982V10.3287H78.0325ZM78.1918 0.117188H73.8828L72.1281 2.35102L78.1918 0.117188ZM87.0096 15.912L84.734 20.379H81.8624L90.7977 2.82951H93.6706L102.607 20.379H99.7343L97.46 15.912H87.0096ZM92.2338 5.65038L88.1458 13.6788H96.3219L92.2338 5.65038ZM120 17.8273V20.379H104.043V2.83015H106.915V17.8273H120Z" fill="white"/>
</svg>
