<svg width="110" height="30" viewBox="0 0 110 30" fill="none" xmlns="http://www.w3.org/2000/svg">
<path fill-rule="evenodd" clip-rule="evenodd" d="M8.36365 30C12.6463 30 17.3472 27.1509 20.7545 24.7422C20.5764 25.3385 20.4064 25.9502 20.4064 26.5847C20.4064 28.5591 22.0561 29.907 23.9689 29.907C26.8963 29.907 29.5446 27.8316 31.4808 25.8104C31.1783 26.4769 30.8918 27.1663 30.8918 27.9086C30.8918 29.1018 31.9064 29.6433 32.998 29.6433C37.0638 29.6433 41.4007 25.4315 44.0804 22.5966L40.0996 29.5509H42.8101L48.4018 19.8244C49.0444 18.7002 49.7645 17.6092 50.8875 16.9272C52.0025 16.2539 53.4194 15.6034 54.7519 15.6034C55.2083 15.6034 55.8903 15.9367 55.8903 16.4788C55.8903 16.6414 55.8361 16.804 55.7819 16.9513C55.5884 16.8428 55.4018 16.7732 55.1775 16.7732C54.3952 16.7732 53.6905 17.4084 53.6905 18.2055C53.6905 19.0033 54.3336 19.4604 55.0691 19.4604C56.2778 19.4604 57.346 18.633 58.2521 17.9277C59.2974 17.1088 60.305 16.243 61.2719 15.333L55.8903 24.781C55.824 24.8969 55.7544 25.0152 55.6836 25.1355C55.2243 25.916 54.7124 26.7857 54.7124 27.6856C54.7124 28.9318 55.8897 29.583 56.9967 29.583C58.7401 29.583 60.3584 28.6774 61.7444 27.693C64.2615 25.912 66.4607 23.7196 68.5361 21.4434L66.4139 25.1685C66.3365 25.3035 66.254 25.4399 66.1705 25.578L66.1704 25.5782C65.7699 26.2404 65.3457 26.9418 65.3457 27.717C65.3457 29.1031 66.3985 29.5589 67.6848 29.5589C70.8134 29.5589 73.9747 26.6021 76.2993 24.4278C76.5064 24.2341 76.7068 24.0467 76.9 23.868L76.8805 23.9481C76.7161 24.6256 76.5513 25.3045 76.5513 26.0051C76.5513 28.4612 78.6507 29.7376 80.9202 29.7376C83.2888 29.7376 85.5268 28.662 87.5098 27.4767C89.4386 26.3229 91.2664 24.9911 92.9857 23.5422C94.5184 22.2485 95.8817 20.8082 97.1821 19.2756L91.2276 29.5521H93.8685L97.5394 23.2557C99.0025 20.7386 100.938 18.4464 103.463 16.9439C104.578 16.278 105.918 15.6274 107.25 15.6274C107.831 15.6274 108.187 15.8603 108.426 16.3556C108.288 16.3402 108.14 16.3248 107.993 16.3248C107.258 16.3248 106.405 16.9063 106.405 17.7034C106.405 18.2061 106.909 18.6792 107.405 18.6792C108.349 18.6792 109.132 17.6418 109.132 16.7511C109.132 15.7913 108.396 15.2104 107.459 15.2104C104.602 15.2104 102.146 17.0769 100.133 18.9047L102.006 15.3576H99.4362L98.8238 16.4492C98.4042 17.205 97.8136 17.897 97.2519 18.555C97.1919 18.6253 97.1322 18.6953 97.0731 18.7649C95.4603 20.6544 93.6794 22.3938 91.7524 23.9617C89.4762 25.7888 84.8837 29.0341 81.7395 29.0341C80.4304 29.0341 79.2766 27.964 79.2766 26.6408C79.2766 25.6964 79.6567 24.8291 80.0275 23.9845C81.2282 23.9771 82.382 23.9075 83.5445 23.5896C85.8435 22.9625 88.3224 21.8857 89.9801 20.1121C90.7311 19.3057 91.506 18.2061 91.506 17.0449C91.506 15.5042 89.9561 14.7989 88.6014 14.7989C84.3964 14.7989 80.261 19.4992 77.7285 22.4506L73.1434 26.4381C72.037 27.3991 70.3713 28.6614 68.8688 28.6614C68.3655 28.6614 67.9866 28.2117 67.9866 27.7244C67.9866 27.2673 68.1339 26.8188 68.3587 26.424L74.6693 15.357H72.122L70.9528 17.2698C70.5271 17.9671 70.1009 18.6638 69.621 19.3304C68.7222 20.5766 67.6608 21.7076 66.5698 22.7918C65.0599 24.295 63.4804 25.7894 61.7524 27.0357C60.8154 27.7176 59.7707 28.4612 58.57 28.4612C58.0359 28.4612 57.2683 28.1735 57.2683 27.5384C57.2683 27.0437 57.5246 26.5478 57.7643 26.1221L64.1457 15.0625H67.9491L68.1573 14.5666H64.3324L67.6232 8.82831H65.0445L63.1385 12.0809C61.737 14.4588 59.616 16.5028 57.2683 17.9511C57.2593 17.9566 57.2503 17.9622 57.2411 17.9678C57.2333 17.9726 57.2255 17.9774 57.2176 17.9823C57.1968 17.9952 57.1758 18.0082 57.1544 18.0215C56.7965 18.2437 56.371 18.508 55.9519 18.508C55.8281 18.508 55.7283 18.4618 55.6273 18.3922C56.146 17.9505 56.5334 17.3388 56.5334 16.626C56.5334 15.6194 55.6273 15.2011 54.7291 15.2011C53.1028 15.2011 51.5461 15.8825 50.1754 16.7036L50.9263 15.3558H48.1696L46.5359 18.3607C44.7784 21.606 42.1528 24.1847 39.2643 26.4307C39.2395 26.4502 39.2145 26.4698 39.1891 26.4897C38.075 27.3644 36.4426 28.646 34.9662 28.646C34.3853 28.646 33.7502 28.2745 33.7502 27.632C33.7502 27.0739 34.0213 26.517 34.2923 26.0439L40.3793 15.357H37.7698L36.3837 17.7731C36.3215 15.6588 35.3149 14.6134 33.1311 14.6134C28.9877 14.6134 25.1307 17.8661 22.7535 20.9869C21.9871 21.9867 21.4216 23.0623 20.9103 24.2087C17.7273 26.3383 13.2044 29.3427 9.28584 29.3427C5.66914 29.3427 3.72556 26.9808 3.72556 23.4424C3.72556 20.4756 4.70135 17.4866 5.979 14.8457C8.65072 9.30081 13.0806 4.39106 18.6409 1.66513C20.1742 0.913573 21.9243 0.386865 23.6436 0.386865C25.9519 0.386865 29.3591 1.65712 29.3591 4.38305C29.3591 4.94117 29.2347 5.46726 29.0801 5.99397L29.467 6.24961C30.3423 3.86435 31.2793 2.32305 33.4089 0.882769L33.0214 0.479886C32.1159 1.14643 31.1167 1.82776 29.9394 1.82776C29.6062 1.82776 29.2421 1.79696 28.9403 1.62632L27.3608 0.766342C26.2685 0.162634 24.9521 0 23.7206 0C22.7577 0.00373532 21.7986 0.120556 20.8629 0.348058C17.4242 1.18401 14.1488 2.90335 11.4228 5.14939C7.89916 8.06074 4.90218 11.7317 2.85758 15.8209C1.80417 17.9277 0.867188 20.2507 0.867188 22.644C0.867188 27.0498 3.99538 30 8.36365 30ZM33.3621 15.0151C34.7488 15.0151 35.8558 15.9133 35.8558 17.3227C35.8558 19.2663 34.3071 21.574 33.168 23.0999C31.3717 25.5085 28.0415 29.0328 24.8738 29.0328C23.5112 29.0328 22.7676 27.8704 22.7676 26.6155C22.7676 25.4925 23.1779 24.5099 23.6658 23.5027C24.9669 20.8464 27.0034 18.3915 29.3967 16.6414C30.582 15.766 31.8522 15.0151 33.3621 15.0151ZM80.3763 23.5195C80.3027 23.5161 80.2289 23.5128 80.1544 23.5101C80.2177 23.4045 80.2842 23.2932 80.3536 23.1769C81.9238 20.5463 85.0313 15.3403 88.1456 15.3397C88.8423 15.3397 89.6715 15.665 89.6715 16.4628C89.6715 17.9887 88.2084 19.809 87.1772 20.8002C85.5435 22.3717 83.1656 23.5342 80.8666 23.5342C80.701 23.5342 80.5392 23.5268 80.3763 23.5195Z" fill="white"/>
<path d="M74.694 11.4988C74.694 12.0723 75.1203 12.3588 75.6544 12.3588C76.6375 12.3588 77.2499 11.4372 77.2493 10.5156C77.2493 10.0043 76.9856 9.50102 76.4287 9.50102C75.5459 9.50102 74.694 10.6548 74.694 11.4988Z" fill="white"/>
</svg>
