<svg width="91" height="46" viewBox="0 0 91 46" fill="none" xmlns="http://www.w3.org/2000/svg">
<path fill-rule="evenodd" clip-rule="evenodd" d="M14.7327 45.882H36.0376V24.6884H14.7327V45.882ZM12.1256 27.7326L17.4521 15.6704L5.3265 10.2589L0 22.3216L12.1256 27.7326ZM26.8583 11.4987L21.7586 4.96076L15.1857 10.1461L20.2854 16.6846L26.8583 11.4987ZM17.1124 5.86216L17.7923 0.789105L12.6926 0L12.0127 5.07305L17.1124 5.86216ZM47.8236 34.6099H46.2371L43.8573 26.944L43.7439 27.0568V34.6099H41.9306V24.5761H45.1036L47.0298 31.7909L49.0694 24.5761H52.13V34.6099H50.3167V26.944L47.8236 34.6099ZM59.4961 33.0312C58.5889 34.2705 57.6828 34.6094 56.3226 34.6094C55.303 34.6094 52.9228 33.9326 53.0356 30.7757C53.0356 28.8601 54.0562 27.1691 56.3226 27.1691C57.456 27.1691 58.4755 27.6198 59.1564 28.7473C59.4961 29.198 59.6095 29.6487 59.6095 29.9866C59.6095 30.4373 59.7229 30.6624 59.7229 31.2269L54.5098 31.1141C54.5098 31.6776 54.8495 33.143 56.3231 33.2558C57.1169 33.2558 57.9096 32.9179 58.3627 32.2406L59.4961 33.0312ZM58.0225 29.9871C57.9091 29.1985 57.3431 28.4089 56.3226 28.4089C55.6432 28.4089 54.6227 28.9734 54.6227 29.9871H58.0225ZM64.4819 30.325C65.3891 30.6629 66.1818 31.2274 66.1818 32.3539C66.0684 34.4956 63.6892 34.6094 63.1227 34.6094C61.5362 34.6094 60.176 33.9326 59.8358 33.3691L60.9692 32.4667C61.5357 33.0312 62.4418 33.3691 63.1222 33.3691C63.4619 33.3691 64.5958 33.2563 64.5958 32.3539C64.4814 31.5653 63.9154 31.5653 63.349 31.4525C62.4418 31.2269 60.1755 31.4525 60.1755 29.3108C60.1755 27.9577 61.762 27.1691 63.0093 27.1691C64.1422 27.1691 65.0489 27.1691 66.0684 28.1833L65.0489 29.0857C64.5958 28.5212 63.5753 28.2961 63.0093 28.2961C62.4418 28.2961 61.6491 28.7478 61.7625 29.3113C61.7625 30.2122 63.2361 29.9871 64.4819 30.325ZM41.9306 45.882V35.962H48.39V37.6531H43.7439V40.0199H47.8236V41.7114H43.7439V45.882H41.9306ZM49.9765 38.6678V39.6814C50.4296 38.8929 50.8827 38.5544 51.9032 38.5544V40.0193L51.3368 40.1321C50.7693 40.3578 50.543 40.6967 50.3162 40.9218C50.0894 41.3725 50.0894 41.7104 50.0894 42.1611V45.8815H48.5029V40.3572C48.5029 40.1316 48.3895 39.2302 48.3895 38.6672H49.9765V38.6678ZM55.6432 41.373C55.9829 41.373 56.2097 41.1474 56.2097 41.1474C56.7762 40.4716 55.9829 40.0199 55.9829 40.0199C55.5298 39.682 54.9623 39.682 54.9623 39.682C54.7356 39.682 53.6031 39.7948 53.6031 40.8095H52.1295C52.2429 39.9071 52.4692 39.3436 53.0356 39.0057C53.8294 38.555 54.1691 38.555 55.0763 38.555C57.1158 38.555 57.7957 38.8929 57.7957 40.8095V44.9806C57.7957 45.3185 57.9091 45.7692 57.9091 45.9948L56.3226 45.882C56.3226 45.6564 56.3226 45.6564 56.2092 45.3185C55.4164 46.1081 54.7356 45.9943 54.1696 45.9943C53.2635 45.9943 51.9032 45.3185 51.9032 43.7398C51.9032 42.8384 52.4697 42.0488 53.3769 41.7109C53.8299 41.5981 54.8495 41.373 55.5298 41.373H55.6432ZM53.2635 43.6275C53.2635 44.3043 53.9428 44.755 54.5093 44.755C56.0958 44.6422 56.3226 43.7398 56.3226 42.5005C55.5298 42.501 53.2635 42.3882 53.2635 43.6275ZM60.4022 39.1185V39.2313C60.8553 38.7806 61.0826 38.5555 62.3289 38.5555C63.5758 38.5555 64.4819 39.119 64.8226 40.3583C64.936 40.6972 64.936 41.1479 64.936 41.3735V45.8825H63.3495V41.8242C63.3495 41.0356 63.4629 39.7953 61.9893 39.7953C60.9697 39.7953 60.4028 40.5849 60.4028 41.8242V45.8825H58.8163V38.6683H60.4028L60.4022 39.1185ZM67.542 41.5986L70.2615 38.6678H72.1882L69.3553 41.8237L72.6423 45.882H70.6022L67.542 41.9365V45.882H65.9555V35.962H67.542V41.5986ZM75.9282 37.2024C74.4556 37.0896 74.569 37.3152 74.6824 38.6683H76.155V40.0204H74.6824V45.8825H73.0959V40.0204H72.3021V38.6683H73.0959C73.2093 37.9915 72.8691 36.0748 74.4561 35.962C74.9092 35.962 75.589 35.8492 75.9287 35.962L75.9282 37.2024ZM81.0279 45.319C80.3485 45.8825 80.0073 45.9948 78.8749 45.9948C78.1945 45.9948 77.0616 45.6569 76.7219 44.5299C76.6085 44.192 76.6085 43.7403 76.4952 43.4024V38.6683H78.0806V43.0645C78.0806 43.7403 78.5347 44.6427 79.5542 44.6427C80.348 44.6427 81.0279 44.4171 81.0279 43.0645V38.6683H82.6144V44.5304C82.6144 44.9811 82.6144 45.5446 82.7278 45.8825H81.1413L81.0279 45.319ZM87.827 38.7806V36.7517H89.4135V38.6683H91V40.0204H89.4135V43.4024C89.4135 44.3048 89.4135 44.7555 90.3206 44.7555H91V45.8825C90.7732 45.9953 89.6398 45.8825 89.4135 45.8825C87.9399 45.8825 87.827 44.8683 87.827 43.628V38.7806ZM79.328 33.0312C78.5352 34.1582 77.6281 34.6094 76.2678 34.6094C75.1349 34.6094 72.7557 33.9326 72.8691 30.7757C72.9825 28.8601 73.8886 27.0563 76.2678 27.0563C77.2884 27.0563 78.4218 27.507 79.1017 28.7473C79.3285 29.198 79.4414 29.6487 79.4414 29.9866C79.5548 30.4373 79.5548 30.6624 79.5548 31.1141H74.4556C74.3422 31.6776 74.6824 33.0307 76.2678 33.143C76.9482 33.2558 77.7415 32.9174 78.1945 32.2406L79.328 33.0312ZM77.8543 29.9871C77.8543 29.1985 77.2879 28.4089 76.2678 28.4089C75.4751 28.4089 74.4556 28.9734 74.4556 29.9871H77.8543ZM70.9424 30.325C71.8485 30.6629 72.5289 31.2274 72.5289 32.3539C72.4155 34.4956 70.1481 34.6094 69.5821 34.6094C67.8822 34.6094 66.6354 33.9326 66.2952 33.3691L67.3158 32.4667C67.8822 33.0312 68.9023 33.3691 69.4687 33.3691C69.9218 33.3691 71.0553 33.2563 70.9424 32.3539C70.9424 31.5653 70.3749 31.5653 69.6955 31.4525C68.7894 31.2269 66.6354 31.4525 66.522 29.3108C66.522 27.9577 68.2219 27.1691 69.3559 27.1691C70.4888 27.1691 71.3954 27.1691 72.416 28.1833L71.3954 29.0857C71.0558 28.5212 69.9218 28.2961 69.4687 28.2961C68.9023 28.2961 68.1085 28.7478 68.1085 29.3113C68.2219 30.2122 69.5821 29.9871 70.9424 30.325ZM85.1075 38.6678V39.6814C85.5606 38.8929 86.0137 38.5544 87.1471 38.5544V40.0193L86.5807 40.1321C85.9003 40.3578 85.6735 40.6967 85.4472 40.9218C85.2204 41.3725 85.2204 41.7104 85.2204 42.1611V45.8815H83.6339V40.3572C83.6339 40.1316 83.5205 39.2302 83.5205 38.6672H85.1075V38.6678Z" fill="white"/>
</svg>
