<svg width="75" height="76" viewBox="0 0 75 76" fill="none" xmlns="http://www.w3.org/2000/svg">
<path d="M67.6234 48.2386C67.424 48.4879 67.2744 48.787 67.2744 48.9033C67.2744 49.2357 67.9558 49.8008 68.3547 49.8008C69.2023 49.8008 69.5846 48.5543 68.9032 48.0724C68.3713 47.6902 68.0057 47.74 67.6234 48.2386Z" fill="white"/>
<path d="M36.9598 49.8342C36.8102 50.0336 36.6938 50.3328 36.6938 50.4824C36.6938 50.7981 37.4417 51.4629 37.7908 51.4629C38.1564 51.4629 38.6882 50.8314 38.6882 50.4159C38.6882 49.5351 37.4417 49.1362 36.9598 49.8342Z" fill="white"/>
<path d="M39.6355 49.7677C39.1535 50.2829 39.3197 51.064 39.9347 51.2967C40.8321 51.6291 41.5468 50.848 41.1479 50.0004C40.8654 49.4353 40.051 49.3024 39.6355 49.7677Z" fill="white"/>
<path d="M66.2107 50.6157C65.7952 51.0644 65.9282 51.8123 66.46 52.1114C66.8589 52.3275 66.942 52.3275 67.3409 52.0782C68.122 51.563 67.7896 50.2999 66.8755 50.2999C66.6595 50.2999 66.3603 50.4495 66.2107 50.6157Z" fill="white"/>
<path d="M69.1031 50.6316C68.6544 51.0803 68.6876 51.3961 69.1862 51.8947C69.502 52.2104 69.7014 52.2769 69.984 52.1938C70.5657 52.0276 70.7651 51.795 70.7651 51.2964C70.7651 50.399 69.7513 49.9835 69.1031 50.6316Z" fill="white"/>
<path d="M43.8072 55.3188L43.7573 60.1882L42.5607 60.2381C41.6466 60.2713 41.3474 60.2381 41.3474 60.0719C41.3308 59.9556 41.3474 58.2937 41.3474 56.3991L41.364 52.9257L39.4694 52.9922C37.6578 53.042 37.5581 53.0586 36.6274 53.6237C36.0955 53.9394 35.3975 54.5377 35.0983 54.9532C34.2175 56.1166 34.0347 56.9974 34.0347 59.806V62.2656H35.0319H36.0291V59.7894C36.0291 57.0638 36.1288 56.6317 36.8933 55.834C37.4251 55.2856 38.8711 54.6707 39.1868 54.8701C39.2866 54.9366 39.353 56.316 39.353 58.626V62.2656L47.6796 62.2324L56.0062 62.1825L56.3386 61.1854C56.5712 60.5206 56.6876 59.7229 56.6876 58.7756C56.7042 57.4959 56.6543 57.2633 56.189 56.3658C55.5574 55.1693 54.8594 54.4713 53.6461 53.8397C52.8484 53.4243 52.5492 53.3744 51.2363 53.3744C49.4746 53.3744 48.7599 53.6735 46.9982 55.1859C46.3999 55.7011 45.868 56.1166 45.8016 56.1166C45.7185 56.1166 45.6686 54.8369 45.6686 53.2913V50.4661H44.7545H43.8404L43.8072 55.3188ZM53.214 55.7842C54.1447 56.4157 54.6932 57.363 54.7763 58.4765C54.8095 59.0083 54.7929 59.6232 54.7431 59.8559L54.6433 60.2713H50.2391H45.8348L45.8514 59.4736V58.6925L47.53 57.2965C49.7405 55.4352 50.1227 55.2524 51.5022 55.3188C52.3332 55.3687 52.7487 55.485 53.214 55.7842Z" fill="white"/>
<path d="M2.47384 53.4076C1.59298 55.1693 0.961426 58.3768 0.961426 61.202V62.2656H7.19389H13.4263V59.8891C13.4263 57.6123 13.443 57.4627 13.8917 56.5985C14.3737 55.6346 15.2047 55.0197 16.1686 54.92L16.6672 54.8701L16.7171 58.5596L16.7503 62.2656H18.512C20.0244 62.2656 20.3568 62.2158 21.0383 61.8668C22.7335 61.0026 22.8997 60.5206 22.8997 56.2827V52.9589H21.9856H21.0715L21.0549 55.8174C21.0549 57.5957 20.9718 58.9086 20.8554 59.2742C20.6228 59.9556 20.0577 60.288 19.2433 60.2381L18.6616 60.1882L18.6118 56.5653L18.5785 52.9589H16.9331C15.454 52.9589 15.2213 53.0088 14.2906 53.4741C12.3959 54.4048 11.5815 55.8839 11.4652 58.5596L11.3821 60.2713H7.17727H2.95581V59.5401C2.95581 58.4598 3.35469 56.532 3.86991 55.2025C4.10259 54.5544 4.35188 53.9228 4.38512 53.7899C4.4516 53.6071 4.23555 53.4243 3.70371 53.1584C3.28821 52.9589 2.90595 52.7927 2.87271 52.7927C2.82285 52.7927 2.65666 53.0753 2.47384 53.4076Z" fill="white"/>
<path d="M26.7717 53.5738L26.3229 54.3383L26.7218 54.6042C28.2675 55.618 28.9156 56.8312 29.0154 58.8753L29.0985 60.2713H26.7384H24.395V61.2685V62.2656L27.5196 62.2324L30.6275 62.1825L30.8602 60.72C31.392 57.5957 30.3948 54.8867 28.1511 53.2581C27.8021 53.0088 27.4365 52.7927 27.37 52.7927C27.2869 52.7927 27.0376 53.1417 26.7717 53.5738Z" fill="white"/>
<path d="M71.6625 53.2578L70.981 53.7065L71.2802 54.4211C71.463 54.82 71.7123 55.5844 71.8453 56.1162C72.1112 57.1466 72.1777 59.706 71.945 60.0716C71.8619 60.2212 71.463 60.271 70.5822 60.2378L69.3523 60.1879L69.3024 56.9804L69.2692 53.7896H68.272H67.2748V57.0303V60.271H66.4438H65.6128V57.0303V53.7896H64.6156H63.6184V57.0303V60.271H62.1226C60.7099 60.271 60.6268 60.2544 60.5437 59.8888C60.4939 59.6894 60.4606 58.0441 60.4939 56.2326L60.5437 52.9586H59.5964H58.6325V57.3128C58.6325 61.4177 58.6158 61.7003 58.2834 62.3983C57.8181 63.3456 56.8375 64.0602 55.7904 64.1931L54.9761 64.3095V65.2734C54.9761 65.8218 55.0426 66.2539 55.109 66.2539C55.7406 66.2539 57.3527 65.8052 57.9178 65.4728C58.8153 64.9576 59.746 63.9272 60.1282 62.9966L60.444 62.2653L66.959 62.2321L73.4906 62.1822L73.7067 61.3513C74.0391 60.0217 74.1388 58.2934 73.9394 56.9306C73.7399 55.4847 72.8258 52.7924 72.5433 52.7924C72.427 52.7924 72.0447 52.9919 71.6625 53.2578Z" fill="white"/>
<path d="M6.37933 63.9435C5.88073 64.3257 5.83087 64.6913 6.21313 65.2231C6.69511 65.9211 7.9416 65.5223 7.9416 64.6581C7.9416 64.2426 7.7754 64.0266 7.32666 63.7773C6.86131 63.5446 6.89455 63.528 6.37933 63.9435Z" fill="white"/>
<path d="M9.02184 64.0092C8.53986 64.4745 8.50662 64.7072 8.87226 65.2223C9.35424 65.9204 10.6007 65.5547 10.6007 64.7072C10.6007 64.2418 10.4511 64.0258 9.98579 63.7765C9.50381 63.5272 9.48719 63.5272 9.02184 64.0092Z" fill="white"/>
<path d="M20.2733 63.8613C19.9741 64.0608 19.9076 64.2602 19.9409 64.7255C19.9741 65.2241 20.0738 65.357 20.4395 65.49C21.1708 65.7393 21.7358 65.3903 21.7358 64.6923C21.7358 63.8447 20.9381 63.3794 20.2733 63.8613Z" fill="white"/>
<path d="M46.0511 68.9788C45.0539 69.2945 44.4057 69.8263 43.8905 70.7072C42.993 72.2361 43.475 74.4963 44.8711 75.3605C46.4167 76.3244 48.3446 76.1748 49.5911 75.0281C50.472 74.2138 50.7046 73.5324 50.6215 72.0699C50.5717 71.0894 50.4886 70.8235 50.0565 70.2917C49.0759 69.0785 47.4305 68.53 46.0511 68.9788ZM48.5773 70.7404C49.7905 71.8871 49.3252 74.0476 47.7463 74.5628C45.4694 75.3106 43.8572 72.2029 45.7021 70.6573C46.1674 70.2584 46.3336 70.2086 47.1978 70.2751C47.9125 70.3249 48.2615 70.4412 48.5773 70.7404Z" fill="white"/>
<path d="M63.9504 68.8963C63.269 69.1123 62.5544 69.5278 62.1721 69.9433C60.9921 71.2063 60.9921 73.5828 62.1721 74.8791C63.0862 75.8763 65.2967 76.2253 66.593 75.5771C67.5902 75.0619 67.6733 74.8625 67.1082 74.3141L66.6263 73.8654L66.1941 74.1978C64.4989 75.5439 62.089 73.7657 62.7704 71.6883C63.0696 70.8075 63.6347 70.3754 64.6319 70.2756C65.2634 70.2092 65.6457 70.2756 66.0446 70.4917C66.5764 70.7742 66.593 70.7742 67.0916 70.392C67.3575 70.1759 67.5902 69.9599 67.5902 69.91C67.6068 69.8602 67.3575 69.6607 67.0417 69.4447C66.0944 68.7965 64.9476 68.5971 63.9504 68.8963Z" fill="white"/>
<path d="M0.961426 72.3879V75.8945H2.50708C4.40174 75.8945 5.5319 75.5788 6.26317 74.8641C7.04431 74.0997 7.32685 73.4515 7.34347 72.4045C7.36009 71.1581 6.81163 70.1776 5.71472 69.4962C4.93358 69.0308 4.784 68.9976 2.92257 68.9311L0.961426 68.8813V72.3879ZM4.76738 70.5432C5.5319 70.9587 5.99725 71.8062 5.88092 72.6206C5.73134 73.8836 4.85048 74.5982 3.38793 74.6315L2.54032 74.6481L2.49046 72.4378L2.4406 70.244H3.32145C3.86991 70.244 4.43498 70.3604 4.76738 70.5432Z" fill="white"/>
<path d="M8.6561 69.1794C8.60624 69.3123 8.58962 70.4757 8.63948 71.7387C8.70596 73.6167 8.78906 74.1485 9.05498 74.5972C10.1685 76.5084 13.3429 76.4585 14.3733 74.5141C14.606 74.082 14.6559 73.5003 14.6559 71.4894L14.6725 68.9966L13.9745 68.9467L13.2598 68.8969V71.0407C13.2598 72.2207 13.1767 73.4173 13.077 73.7164C12.7114 74.7634 11.3818 74.9794 10.584 74.1319C10.2184 73.733 10.1851 73.5668 10.1353 71.3066L10.0688 68.9135H9.42062C8.97188 68.9135 8.72258 68.9966 8.6561 69.1794Z" fill="white"/>
<path d="M16.5338 69.0288C16.4673 69.0787 16.4175 70.6575 16.4175 72.5355V75.9258L18.6279 75.8593C21.0046 75.8094 21.4865 75.6433 21.8688 74.7957C22.2344 74.0312 22.1181 73.4163 21.5032 72.8014L20.9215 72.2197L21.337 71.7876C22.0849 70.9899 21.7857 69.7102 20.7387 69.1618C20.2401 68.9125 16.7665 68.7962 16.5338 69.0288ZM19.9243 70.242C20.2899 70.4415 20.3564 71.2226 20.0406 71.5383C19.9243 71.6547 19.4091 71.7378 18.8772 71.7378H17.9133V70.9068V70.0759H18.7609C19.2262 70.0759 19.7415 70.1589 19.9243 70.242ZM20.2567 73.0673C20.6556 73.2833 20.6722 74.0146 20.2899 74.4301C20.0905 74.6627 19.7747 74.7292 18.9603 74.7292H17.9133V73.8152V72.9011H18.9271C19.4755 72.9011 20.0739 72.9842 20.2567 73.0673Z" fill="white"/>
<path d="M24.7446 70.6097C24.3789 71.5569 23.7474 73.1191 23.3485 74.0997L22.6006 75.8945H23.3817C24.1296 75.8945 24.1462 75.8779 24.4454 75.1467L24.7612 74.3988H26.1572H27.5699L27.8857 75.1467C28.2015 75.8779 28.2181 75.8945 28.966 75.8945C29.3815 75.8945 29.7139 75.8613 29.7139 75.8281C29.7139 75.7117 27.2542 69.6291 27.0713 69.2635C26.9218 68.9976 26.7223 68.9145 26.1406 68.9145H25.4093L24.7446 70.6097ZM26.6891 71.8893C27.2209 73.1856 27.2043 73.2355 26.1406 73.2355C25.642 73.2355 25.2265 73.1856 25.2265 73.1191C25.2265 72.7868 26.124 70.7426 26.2237 70.8589C26.2902 70.9254 26.4896 71.3908 26.6891 71.8893Z" fill="white"/>
<path d="M30.877 72.4045V75.8945H31.6248H32.3727V72.4045V68.9145H31.6248H30.877V72.4045Z" fill="white"/>
<path d="M36.6938 72.4045V75.8945H37.5248H38.3558V74.8309V73.7839L39.4195 73.6842C41.4471 73.5014 42.3446 72.7535 42.3446 71.2744C42.3446 69.4962 41.3973 68.9145 38.522 68.9145H36.6938V72.4045ZM40.5497 70.5266C40.9485 70.8922 40.9319 71.773 40.5164 72.1552C40.3004 72.3547 39.9015 72.4544 39.2367 72.471L38.2727 72.4876L38.2229 71.3575L38.173 70.244H39.2035C39.9347 70.244 40.3336 70.3271 40.5497 70.5266Z" fill="white"/>
<path d="M52.1509 72.4045V75.8945H54.6439H57.1368V75.2298V74.565H55.3918H53.6467V71.7398V68.9145H52.8988H52.1509V72.4045Z" fill="white"/>
<path d="M58.2998 72.4045V75.8945H59.0477H59.7956V72.4045V68.9145H59.0477H58.2998V72.4045Z" fill="white"/>
<path d="M68.7705 72.4045V75.8945H71.4297H74.0889V75.3129V74.7478L72.2274 74.698L70.3494 74.6481V73.8171V72.9862L71.895 72.9363L73.4241 72.8865V72.3214V71.7398H71.8452H70.2663V70.9919V70.244H72.0945H73.9227V69.5793V68.9145H71.3466H68.7705V72.4045Z" fill="white"/>
<path d="M27.1126 0.801119C26.2816 1.24983 25.301 2.2636 24.9187 3.09456C24.5863 3.84242 24.4035 3.94213 24.2539 3.44356C24.0877 2.94498 23.7387 3.0447 22.8911 3.80918C22.11 4.54042 21.3454 5.88657 21.3454 6.55133C21.3454 7.08314 21.0463 7.18286 20.7139 6.76738L20.4147 6.40176L19.7499 7.14962C19.0187 7.98057 18.5201 9.29348 18.5201 10.3903C18.5201 11.1216 18.3705 11.2545 18.0215 10.8391C17.6891 10.4402 17.5561 10.5399 17.0741 11.454C16.6586 12.2517 16.6088 12.501 16.6088 13.9302L16.6254 15.5423L16.2265 15.3595C15.7445 15.1434 15.6116 15.3096 15.3457 16.556C15.1296 17.5864 15.2459 18.4839 15.6947 19.5142L16.0105 20.2289L15.4786 20.179C14.9468 20.1458 14.9468 20.1624 14.8969 20.9767C14.8138 22.1567 15.1296 23.4197 15.7113 24.2008C15.9772 24.5831 16.1933 24.9154 16.1933 24.9653C16.1933 25.0152 15.9938 25.0318 15.7445 25.0152C15.329 24.9653 15.2792 25.0318 15.2293 25.5137C15.1462 26.3945 15.6947 27.6742 16.5755 28.6381C17.0077 29.1035 17.3567 29.5522 17.3567 29.602C17.3567 29.6519 17.1739 29.7018 16.9412 29.7018C16.642 29.7018 16.5257 29.7848 16.5257 30.0341C16.5257 30.998 17.9882 32.9259 19.0353 33.3746C19.6336 33.6072 19.6502 33.8233 19.1018 34.0227L18.6696 34.1889L19.002 34.8038C19.4674 35.7013 20.2818 36.4325 21.4285 36.9477C22.6917 37.5127 22.6584 37.4795 22.1931 37.8285L21.8108 38.1276L22.3426 38.7259C22.9908 39.4738 24.337 40.1552 25.4672 40.2881C26.2982 40.3878 26.3314 40.4045 26.0655 40.687C25.6999 41.0858 25.8494 41.4016 26.6306 41.9168C27.3785 42.4154 28.8743 42.6979 29.9546 42.5483L30.7191 42.4486L30.4365 42.8973C30.2703 43.13 30.1872 43.4125 30.2371 43.4956C30.4365 43.828 32.1816 44.1936 33.2453 44.1271C34.0763 44.0773 34.5915 43.9111 35.7383 43.3294C37.018 42.6647 37.3005 42.5816 38.2811 42.5816C39.2451 42.5982 39.5442 42.6813 40.7575 43.3128C42.4527 44.2269 43.9817 44.4097 45.3612 43.8779C46.1756 43.5621 46.2753 43.3959 46.0426 42.8142C45.9429 42.5816 46.0925 42.5483 47.2392 42.5483C48.6021 42.5483 49.5328 42.2492 50.4303 41.5179L50.8458 41.1856L50.4635 40.7867L50.0812 40.3878L50.9122 40.2881C52.0923 40.1552 53.2723 39.5901 54.0202 38.8256L54.6683 38.1609L54.2695 37.8285C53.9204 37.546 53.9038 37.4629 54.1033 37.3299C54.2196 37.2468 54.4357 37.1804 54.552 37.1804C54.8345 37.1804 55.8982 36.5987 56.3469 36.2331C56.7624 35.8674 57.743 34.5379 57.743 34.3219C57.743 34.2388 57.5436 34.1058 57.2943 34.0061L56.8289 33.8233L57.2444 33.5574C58.5075 32.7098 59.0228 32.1946 59.4383 31.3637C60.0698 30.084 60.0864 29.8015 59.538 29.735C58.9397 29.6685 58.9563 29.5522 59.6543 28.8874C60.4687 28.1229 60.9174 27.1756 61.0171 26.0123L61.1169 25.0484H60.585H60.0532L60.4853 24.4834C61.2997 23.4031 61.7484 21.5418 61.4659 20.4449C61.3828 20.1458 61.2831 20.0959 60.8842 20.179C60.3357 20.2787 60.3025 20.2289 60.6681 19.5475C61.0338 18.8162 61.1335 16.9881 60.8509 16.0741C60.6349 15.3428 60.4687 15.2431 59.887 15.4758C59.6709 15.5755 59.6377 15.4093 59.7042 14.1961C59.7873 12.7004 59.6044 11.8528 59.0394 11.0385C58.7236 10.6064 58.6737 10.5898 58.4244 10.8224C58.2582 10.972 58.092 11.0883 58.0422 11.0883C57.9923 11.0883 57.9092 10.6396 57.8427 10.0746C57.7264 8.86139 57.3109 7.88086 56.5796 7.0499L56.0312 6.41838L55.6655 6.76738C55.2999 7.11638 55.0838 7.06652 55.0838 6.61781C55.0838 6.01952 54.1033 4.30775 53.4218 3.72608C52.6075 3.02808 52.3249 2.9616 52.1754 3.44356C52.0258 3.92551 51.7931 3.84242 51.5272 3.21089C51.1615 2.3467 50.048 1.23322 49.1173 0.784499C48.6519 0.568451 48.2198 0.452117 48.1533 0.501975C48.1035 0.568451 48.0204 1.03379 47.9705 1.53236C47.9373 2.03093 47.8376 2.44641 47.7711 2.44641C47.688 2.44641 47.2392 2.24698 46.7406 1.99769C46.026 1.63207 45.6271 1.54898 44.6632 1.54898C43.9984 1.54898 43.4167 1.59884 43.3502 1.66531C43.2837 1.71517 43.3668 2.13065 43.533 2.56274C43.8322 3.34384 44.9125 4.59028 45.7767 5.12209L46.1756 5.38799L45.5773 5.67052C45.2449 5.83671 44.846 6.10261 44.6964 6.28543C44.4471 6.55133 44.4305 6.63443 44.6299 6.86709C44.9457 7.26595 46.4747 8.09691 46.8736 8.09691C47.073 8.09691 47.4054 8.36281 47.7046 8.74505C47.9705 9.11067 48.5688 9.6591 49.0508 9.95825C49.6159 10.3239 49.9981 10.7227 50.1976 11.1548C50.3638 11.5204 50.8624 12.1686 51.2779 12.6007C51.8596 13.1824 52.0923 13.5812 52.1754 14.0798C52.2418 14.4454 52.541 15.1434 52.8568 15.5921C53.2723 16.207 53.4218 16.6225 53.4218 17.1377C53.4385 17.5033 53.5714 18.2179 53.7376 18.7165C53.9703 19.3979 54.0368 19.9131 53.9703 20.9601C53.9204 21.6913 53.9537 22.4891 54.0534 22.7217C54.1697 23.0209 54.1199 23.3034 53.9038 23.802C53.7376 24.1676 53.5714 24.9321 53.5216 25.4805C53.4717 26.2284 53.3221 26.6937 52.9399 27.2754C52.674 27.7241 52.3748 28.4221 52.2751 28.8376C52.1587 29.4192 51.9094 29.8347 51.2945 30.4662C50.8458 30.9316 50.3804 31.5797 50.2807 31.8789C50.1477 32.2943 49.8984 32.5602 49.3334 32.8428C48.9179 33.0754 48.3195 33.5906 48.0038 33.9895C47.5883 34.5545 47.2226 34.8038 46.6243 35.0199C46.1756 35.1694 45.4775 35.5517 45.0787 35.8841C44.5302 36.3162 44.1479 36.4823 43.4831 36.5654C41.7879 36.7649 40.2921 37.9282 39.4611 39.7065C38.7631 41.2188 37.6163 41.1357 36.7853 39.5236C35.8879 37.7786 34.4752 36.715 32.863 36.5654C32.1151 36.499 31.7827 36.366 31.4005 36.017C30.8853 35.5351 29.6554 34.8537 29.3064 34.8537C29.19 34.8537 28.7081 34.4216 28.2261 33.8731C27.7441 33.3413 27.1126 32.8095 26.83 32.6932C26.4644 32.5436 26.2317 32.2611 25.9658 31.6628C25.783 31.2141 25.3176 30.5826 24.9187 30.2336C24.4035 29.7848 24.1874 29.4358 24.1044 28.9539C23.9548 28.1894 23.4728 27.1923 23.1072 26.8931C22.9243 26.7436 22.8412 26.3945 22.8412 25.7796C22.8412 25.2977 22.6917 24.4834 22.5088 24.0014C22.2097 23.2203 22.1931 22.971 22.3426 22.3062C22.459 21.7744 22.459 21.2426 22.3593 20.6277C22.2097 19.8799 22.2429 19.6306 22.5088 18.999C22.6917 18.6002 22.8911 17.8025 22.941 17.254C23.0241 16.5727 23.1903 16.0575 23.4562 15.7085C23.6722 15.4093 23.9714 14.7446 24.121 14.246C24.3038 13.5978 24.6029 13.0826 25.168 12.501C25.6001 12.0356 26.0489 11.3875 26.1652 11.0717C26.3148 10.6396 26.5807 10.3737 27.1126 10.0912C27.528 9.87515 28.1596 9.34334 28.5086 8.92786C28.974 8.37943 29.3396 8.11353 29.8715 7.98057C30.2703 7.86424 30.9185 7.49862 31.334 7.133L32.0653 6.46824L31.201 5.93642C30.7191 5.63728 30.3202 5.33814 30.3202 5.28828C30.3368 5.23842 30.6526 4.98913 31.0515 4.73985C31.8492 4.22466 32.5639 3.29399 32.8963 2.33008L33.1123 1.69855L32.5971 1.54898C31.8326 1.34955 30.6027 1.54898 29.5391 2.03093C29.0405 2.2636 28.5917 2.44641 28.5585 2.44641C28.5252 2.44641 28.492 2.16389 28.492 1.81488C28.492 0.40226 28.2261 0.202831 27.1126 0.801119ZM27.661 2.16389C27.661 3.19427 26.8134 4.82294 25.9658 5.45447C25.6001 5.72038 25.2345 5.88657 25.1514 5.83671C24.8522 5.6539 25.0018 4.32437 25.4339 3.4768C25.8661 2.6126 27.0128 1.44926 27.4449 1.44926C27.5945 1.44926 27.661 1.68193 27.661 2.16389ZM49.5494 1.88136C50.5632 2.64584 51.5272 4.85618 51.1948 5.68714C51.1117 5.9198 51.0452 5.9198 50.6131 5.70376C49.5494 5.13871 48.6187 3.54327 48.6021 2.23036C48.6021 1.31631 48.7517 1.26645 49.5494 1.88136ZM31.9323 2.37993C32.0487 2.71232 31.0016 3.92551 30.2205 4.37423C29.805 4.62351 29.1568 4.8728 28.7745 4.9559C27.4948 5.18856 27.3286 4.80632 28.2759 3.75932C28.974 2.99484 29.8715 2.47965 30.8686 2.28022C31.6664 2.13065 31.8492 2.14727 31.9323 2.37993ZM46.2587 2.56274C47.339 2.99484 48.6021 4.22466 48.6021 4.83956C48.6021 4.90604 48.17 4.9559 47.6381 4.90604C46.9235 4.85618 46.4914 4.70661 45.9429 4.34099C45.1451 3.80918 44.0648 2.51289 44.2144 2.2636C44.3308 2.08079 45.4942 2.24698 46.2587 2.56274ZM23.8717 4.78971C24.0877 5.80347 23.6722 7.38229 22.9077 8.37943C22.1266 9.40982 21.7277 8.89463 21.8939 7.11638C21.977 6.05276 22.326 5.25504 22.9742 4.55704C23.506 3.99199 23.7055 4.04185 23.8717 4.78971ZM53.4052 4.72323C54.0368 5.48771 54.419 6.58457 54.419 7.61495C54.419 8.97772 54.1199 9.26025 53.4551 8.54562C52.8235 7.88086 52.3748 6.60119 52.3582 5.52095C52.3582 3.94213 52.6075 3.75932 53.4052 4.72323ZM29.4726 5.93642C29.7717 6.01952 30.2205 6.21895 30.4365 6.3519C30.8354 6.61781 30.8354 6.63443 30.5363 6.86709C29.5391 7.64819 27.2788 7.76453 26.1818 7.08314C25.7165 6.80062 25.6666 6.71752 25.8661 6.48485C26.3979 5.83671 28.1762 5.55418 29.4726 5.93642ZM49.7655 6.13585C50.181 6.3519 50.5134 6.58457 50.4967 6.68428C50.4967 6.76738 50.2308 7.00005 49.915 7.18286C49.0841 7.66481 47.2891 7.64819 46.2421 7.133C45.7933 6.91695 45.4443 6.68428 45.4443 6.60119C45.4443 6.53471 45.7933 6.31866 46.2421 6.13585C47.3223 5.6539 48.8015 5.6539 49.7655 6.13585ZM20.6308 8.21324C21.0297 9.17715 20.9632 10.756 20.4978 11.7033C20.2818 12.1354 19.9992 12.5176 19.8829 12.5508C19.5505 12.6505 19.1849 11.5204 19.1849 10.3903C19.1849 9.3101 19.7998 7.59833 20.1821 7.59833C20.2818 7.59833 20.4812 7.88086 20.6308 8.21324ZM56.5464 8.41267C57.0948 9.37658 57.2112 10.8557 56.8455 11.8362C56.6793 12.2517 56.4965 12.5841 56.4134 12.5841C56.1475 12.5841 55.7819 12.0855 55.5658 11.4706C55.1503 10.2408 55.4329 7.46538 55.9647 7.64819C56.081 7.68143 56.3469 8.01381 56.5464 8.41267ZM27.2289 8.27972L27.8604 8.46253L27.4782 8.87801C26.8466 9.55939 25.5503 10.0912 24.5032 10.0912C22.7415 10.0912 22.4091 9.75882 23.4229 9.01096C24.47 8.19662 25.9325 7.9141 27.2289 8.27972ZM52.2418 8.6952C52.7072 8.94448 53.1892 9.26025 53.2889 9.3932C53.8706 10.0912 51.4607 10.3571 50.1311 9.75882C49.2669 9.35996 48.4359 8.79491 48.4359 8.59548C48.4359 8.32958 49.4829 8.11353 50.4635 8.16338C51.0951 8.21324 51.6934 8.37943 52.2418 8.6952ZM25.3342 11.0883C25.3342 11.1881 25.0018 11.5869 24.6196 11.9858C23.6058 12.9995 21.8108 13.6477 20.9466 13.3153C20.5643 13.1657 20.6142 12.9995 21.2125 12.3182C21.9604 11.454 23.1903 10.9222 24.3869 10.9222C24.9187 10.9222 25.3342 10.9886 25.3342 11.0883ZM53.721 11.3543C54.5188 11.7531 55.5824 12.7336 55.5824 13.0826C55.5824 13.3319 54.8179 13.4649 54.1365 13.3319C53.2058 13.1657 52.0424 12.5176 51.4607 11.8362C51.1615 11.5038 50.9289 11.1714 50.9289 11.0883C50.9289 10.9886 51.361 10.9222 51.8928 10.9222C52.5909 10.9222 53.0894 11.0385 53.721 11.3543ZM18.171 12.1852C18.5865 12.717 19.0187 14.0798 19.0187 14.8609C19.0187 15.5589 18.5367 16.7721 18.2874 16.689C17.6392 16.4729 16.8913 14.2626 17.1074 13.199C17.257 12.4511 17.5395 11.7531 17.6891 11.7531C17.7722 11.7531 17.9882 11.9525 18.171 12.1852ZM58.923 12.4511C59.2056 13.5314 59.0228 15.0936 58.5075 15.991C58.2582 16.4065 57.9923 16.7388 57.8926 16.7388C57.6101 16.7388 57.2444 15.6254 57.2444 14.7778C57.2444 13.5147 57.9757 11.7697 58.5242 11.7531C58.6405 11.7531 58.8067 12.0689 58.923 12.4511ZM23.3398 14.0798C23.3398 14.4786 22.6584 15.5589 22.0767 16.0741C21.2125 16.8219 20.2984 17.1709 19.3843 17.0878C19.0851 17.0712 19.5671 15.9577 20.1488 15.3595C20.9798 14.4786 23.3398 13.548 23.3398 14.0798ZM54.1365 14.1463C55.1337 14.5119 56.0644 15.2431 56.5298 16.0242C57.0782 16.9549 56.9785 17.2374 56.1309 17.0878C55.2833 16.9217 54.8013 16.6557 54.0368 15.9245C53.023 14.9772 52.5909 13.897 53.2224 13.9136C53.372 13.9302 53.7875 14.0299 54.1365 14.1463ZM16.8581 16.8552C17.6725 17.7692 18.0215 18.6667 18.0215 19.8466C18.0215 20.4117 17.955 20.9102 17.8719 20.9767C17.7722 21.0266 17.4398 20.8438 17.124 20.5612C16.4093 19.9297 15.8609 18.5337 15.8609 17.3371C15.8609 16.0242 16.0603 15.9411 16.8581 16.8552ZM60.3357 16.8219C60.5518 18.0185 59.8039 20.0959 58.9064 20.7274L58.4244 21.0764L58.225 20.7108C57.7929 19.8799 58.3912 17.8856 59.3884 16.7721C60.0199 16.0907 60.2028 16.1073 60.3357 16.8219ZM22.1764 17.4535C22.1764 18.5337 20.9466 20.3286 19.833 20.8936C18.8691 21.3922 18.6364 21.3423 18.7694 20.6776C19.0519 19.4145 20.1821 18.0019 21.3454 17.5033C22.0767 17.1876 22.1764 17.1876 22.1764 17.4535ZM55.3664 17.7692C56.4467 18.4174 57.4106 19.8466 57.4106 20.8105C57.4106 21.2592 57.3109 21.3091 56.6793 21.0598C55.5824 20.6443 54.0866 18.6667 54.0866 17.603C54.0866 17.2707 54.1531 17.2374 54.4689 17.3205C54.6683 17.387 55.0672 17.5864 55.3664 17.7692ZM21.6778 21.4587C21.6778 22.3561 21.4285 23.104 20.797 24.018C20.315 24.7493 19.4009 25.4306 19.1516 25.2811C18.9356 25.1481 19.002 24.1676 19.3012 23.2868C19.5671 22.4891 21.0961 20.7274 21.495 20.7274C21.5947 20.7274 21.6778 21.0432 21.6778 21.4587ZM55.5492 21.3423C56.5464 22.0902 57.5103 24.3005 57.1779 25.1315C57.0948 25.3642 57.0284 25.3642 56.5962 25.1481C55.6655 24.6495 54.6517 23.0707 54.5852 21.9739C54.5021 20.5945 54.5188 20.5779 55.5492 21.3423ZM16.5423 21.6082C17.4564 22.2896 18.1877 23.6524 18.1877 24.6495C18.1877 25.4639 18.1877 25.4805 17.5395 25.1315C16.4592 24.5831 15.3623 22.7217 15.3623 21.4421C15.3623 20.9102 15.7113 20.9601 16.5423 21.6082ZM60.8011 21.2094C60.9839 21.4919 60.5518 23.0209 60.0698 23.7853C59.5878 24.5332 58.3413 25.5304 58.1253 25.3143C57.9591 25.1481 58.0588 23.9183 58.2915 23.3366C58.5906 22.6386 59.3385 21.7578 59.9867 21.3756C60.5518 21.0266 60.6681 20.9933 60.8011 21.2094ZM22.0933 25.7963C22.0933 27.0095 21.6778 28.1562 20.9964 28.8043C20.4978 29.2697 20.4812 29.2697 20.2485 28.9705C19.7001 28.206 20.1821 26.0455 21.1959 24.8324C21.6778 24.2341 21.7443 24.2174 21.9105 24.5C22.0102 24.6662 22.0933 25.2478 22.0933 25.7963ZM55.25 25.0816C56.1641 26.3281 56.5131 28.5052 55.9148 29.1035C55.6157 29.386 54.6517 28.2227 54.3526 27.1923C54.07 26.245 54.0368 25.7132 54.1864 24.8988C54.3359 24.2008 54.6185 24.2507 55.25 25.0816ZM17.3068 26.3115C18.2209 26.8433 19.1018 27.9069 19.3178 28.7212C19.5339 29.5854 19.3012 29.7018 18.304 29.2198C17.1074 28.6381 15.8609 27.0427 15.8609 26.0788C15.8609 25.7464 15.9274 25.7132 16.2431 25.7963C16.4426 25.8627 16.9246 26.0954 17.3068 26.3115ZM60.4022 26.0123C60.4022 26.5774 59.538 28.0398 58.8566 28.6215C58.1751 29.2032 57.0117 29.6851 56.7957 29.4857C56.563 29.253 57.1447 27.9734 57.7929 27.2587C58.1751 26.8266 58.8732 26.3115 59.3219 26.112C60.3191 25.6301 60.4022 25.6301 60.4022 26.0123ZM23.3565 29.1533C23.6058 30.2169 23.3731 31.6794 22.8745 32.3442C22.4756 32.876 22.3094 32.8428 21.977 32.178C21.4618 31.131 21.6612 29.2697 22.4257 28.0897C22.7083 27.6742 22.7415 27.6742 22.941 27.9567C23.0573 28.1229 23.2567 28.6547 23.3565 29.1533ZM54.3359 29.2697C54.6683 30.3831 54.6517 31.2972 54.2362 32.1946L53.9038 32.9425L53.5049 32.4771C52.7072 31.5631 52.5244 29.6519 53.1061 28.3722L53.4385 27.6244L53.7709 28.0398C53.9371 28.2725 54.203 28.8209 54.3359 29.2697ZM19.617 30.9482C20.448 31.4301 21.5116 32.6267 21.5116 33.0588C21.5116 33.4909 20.6308 33.4577 19.6004 32.9591C18.5034 32.4605 16.991 30.7986 17.3234 30.4496C17.5395 30.2336 18.9023 30.5327 19.617 30.9482ZM58.9064 30.5992C58.9064 31.0313 57.8261 32.2611 57.045 32.743C56.6129 33.009 55.9148 33.2749 55.4993 33.3081C54.8179 33.3912 54.7514 33.3746 54.7514 33.0422C54.7514 32.6101 55.9481 31.2806 56.6461 30.9149C57.7264 30.3499 58.9064 30.2003 58.9064 30.5992ZM25.4838 32.5104C25.8494 33.7734 25.6168 35.8508 25.1015 35.8508C24.8522 35.8508 24.2539 34.9035 24.0046 34.1224C23.772 33.3912 23.8717 31.7791 24.1708 31.1809L24.3869 30.7986L24.8356 31.3304C25.0849 31.6296 25.3675 32.1614 25.4838 32.5104ZM52.2252 31.7127C52.6075 32.9923 52.1587 35.0032 51.3444 35.6846C51.0951 35.8841 51.0286 35.8841 50.8291 35.6182C50.4801 35.1362 50.3804 33.9562 50.5965 33.0422C50.8125 32.1448 51.577 30.8319 51.843 30.9149C51.9261 30.9482 52.1089 31.2972 52.2252 31.7127ZM27.7275 34.405C28.359 35.2193 28.6748 36.1333 28.7081 37.1305C28.7413 38.4434 28.4588 38.593 27.661 37.7122C27.312 37.3299 26.9131 36.6485 26.7635 36.2331C26.4976 35.4686 26.3979 33.8399 26.5973 33.6405C26.7635 33.4743 27.2788 33.8233 27.7275 34.405ZM49.7489 34.7041C49.7655 35.6514 49.3167 36.8978 48.6686 37.6457C47.9373 38.4933 47.6547 38.5265 47.5052 37.762C47.2891 36.6153 48.0869 34.621 49.0508 33.8565C49.4829 33.5241 49.5162 33.5241 49.6159 33.8067C49.6824 33.9729 49.7489 34.3717 49.7489 34.7041ZM22.5088 34.8703C23.3232 35.2359 24.337 36.1167 24.337 36.4657C24.337 36.848 22.2928 36.7483 21.4618 36.3328C20.664 35.9339 19.6835 35.0531 19.6835 34.7373C19.6835 34.3717 21.628 34.4714 22.5088 34.8703ZM56.5796 34.6709C56.5796 35.0199 55.6822 35.8508 54.8844 36.2497C54.2362 36.5821 53.7709 36.6818 52.9897 36.6818C52.408 36.6818 51.9094 36.6153 51.843 36.5322C51.71 36.2829 52.7737 35.3024 53.6047 34.8869C54.3692 34.5213 56.5796 34.3551 56.5796 34.6709ZM30.9517 36.6319C31.7994 37.4795 32.298 38.5099 32.3146 39.3741C32.3146 40.0721 32.1982 40.1219 31.4836 39.7563C30.4033 39.1913 29.2898 37.0308 29.4726 35.8176C29.5224 35.5517 30.287 35.9672 30.9517 36.6319ZM46.7739 36.3162C46.7739 37.2634 45.893 38.9254 45.062 39.5236C44.1812 40.1718 43.8488 40.1053 43.8986 39.291C43.9651 38.1443 44.8792 36.7815 46.1091 35.9672C46.6908 35.5683 46.7739 35.6015 46.7739 36.3162ZM33.8935 37.5626C35.007 38.1276 36.3034 39.6732 36.3034 40.4543C36.3034 41.601 33.6774 40.0056 32.9628 38.4268C32.514 37.4463 32.5473 37.1471 33.1123 37.2801C33.3616 37.3465 33.7107 37.4629 33.8935 37.5626ZM43.6161 37.3798C43.5995 37.8285 42.9181 39.1082 42.4029 39.64C41.7713 40.3214 40.7907 40.8366 40.209 40.8366C39.8268 40.8366 39.7935 40.7867 39.8933 40.4543C40.2589 39.2245 41.2395 38.0944 42.3696 37.5792C43.317 37.1305 43.6161 37.0806 43.6161 37.3798ZM27.0959 38.4268C27.4948 38.6595 27.8272 38.9254 27.8272 39.0251C27.8272 39.1082 27.5447 39.3076 27.2123 39.4572C26.4145 39.7729 24.9021 39.64 23.9049 39.158C22.5255 38.5099 22.5421 38.0778 23.9382 37.8617C25.0517 37.7122 26.2151 37.9116 27.0959 38.4268ZM53.1393 38.0944C53.5714 38.2772 53.4883 38.46 52.7072 38.9087C51.4275 39.6732 49.4497 39.8726 48.6021 39.3408C48.0204 38.9752 49.3001 38.0778 50.7128 37.8617C51.4773 37.762 52.4911 37.8451 53.1393 38.0944ZM31.3839 40.554C31.816 40.8532 31.8326 40.8698 31.5667 41.1689C31.1512 41.6343 30.2205 41.9002 29.0737 41.8836C28.0765 41.8669 26.6638 41.4348 26.6638 41.1357C26.6638 41.0526 27.0627 40.8033 27.5447 40.5707C28.2759 40.2216 28.6083 40.1718 29.6554 40.205C30.5363 40.2383 31.0515 40.3546 31.3839 40.554ZM48.6021 40.5374C49.4497 40.9861 49.5827 41.2354 49.1173 41.5013C48.037 42.0664 45.8099 41.9999 44.9623 41.3684C44.4139 40.9695 44.4305 40.8033 45.1119 40.4709C45.9761 40.0388 47.6714 40.0721 48.6021 40.5374ZM35.705 41.601C36.4031 41.8669 35.4557 42.8475 34.1095 43.2463C32.7966 43.6286 31.1512 43.5455 31.1512 43.0801C31.1512 42.7976 32.1816 42.0331 32.9461 41.7506C33.5777 41.5179 35.2397 41.4182 35.705 41.601ZM43.533 41.9002C44.4139 42.3157 45.2449 43.0801 45.0454 43.2796C44.9789 43.3627 44.3141 43.4125 43.5662 43.4125C42.0871 43.4125 41.2561 43.0968 40.4916 42.2824C40.1093 41.8836 40.1093 41.8503 40.4085 41.6841C40.9735 41.3684 42.6355 41.4681 43.533 41.9002Z" fill="white"/>
<path d="M41.4885 3.79302C38.9456 4.42455 35.7214 6.10308 33.378 7.99766C28.741 11.737 25.6165 17.5536 25.2176 23.1377C25.1012 24.8494 25.0846 24.7996 26.6801 27.3257L27.6441 28.8546L26.6137 28.9045L25.5832 28.9544L26.0818 29.2867C26.5472 29.6025 26.8796 29.6191 37.7989 29.669C49.3164 29.7188 50.1973 29.669 50.3967 29.0707C50.43 28.9377 50.2139 28.8713 49.599 28.8713H48.7347L49.0838 28.3228C49.2832 28.0403 49.8981 26.9933 50.4632 25.9962C51.3773 24.3841 51.5103 24.2179 51.9424 24.2179C52.4077 24.2179 52.4244 24.1847 52.4244 23.47V22.7222H49.5491H46.6905L46.0423 22.1904C45.0617 21.3927 43.4995 19.3319 42.8014 17.9193C41.3721 15.0774 40.7572 11.8533 41.1062 9.09452C41.3056 7.5157 41.9372 5.30536 42.4857 4.22512C42.6685 3.8595 42.7848 3.56035 42.7516 3.52712C42.7183 3.5105 42.1533 3.62683 41.4885 3.79302ZM41.4552 4.72369C41.4552 4.80679 41.2724 5.43831 41.0397 6.15294C39.4941 10.9891 40.6409 16.839 43.915 20.8775C44.5964 21.725 44.7792 21.7084 42.1034 21.0104C36.9679 19.6477 31.234 20.2293 26.6801 22.5394C26.3145 22.7388 25.9987 22.8219 25.9987 22.7554C25.9987 22.0076 26.6137 19.3817 27.0956 18.0855C29.3061 12.1524 33.7602 7.58218 39.627 5.23888C41.3056 4.57412 41.4552 4.54088 41.4552 4.72369ZM35.3059 22.556V24.2179H30.3864C27.3782 24.2179 25.5167 24.1514 25.5832 24.0683C25.7494 23.7692 27.4114 22.9216 28.9238 22.3399C30.5193 21.725 32.2146 21.2929 33.9763 21.0769C34.5746 20.9938 35.1064 20.9273 35.1895 20.9107C35.256 20.9107 35.3059 21.6419 35.3059 22.556ZM40.1256 21.2431C42.2696 21.5921 46.275 23.0213 46.275 23.4368C46.275 23.5365 46.1587 23.7526 45.9925 23.9188C45.7432 24.2013 45.3775 24.2179 41.1727 24.2179H36.6355V22.5394V20.8442L37.8487 20.9606C38.4969 21.027 39.5273 21.16 40.1256 21.2431Z" fill="white"/>
<path d="M27.0959 30.8812C27.4615 31.4961 28.0598 31.5293 37.9985 31.5293C47.6713 31.5293 48.6685 31.4794 49.1006 30.9476C49.2835 30.7316 47.9871 30.6983 38.1481 30.6983C30.0542 30.6983 27.0128 30.7482 27.0959 30.8812Z" fill="white"/>
<path d="M29.1404 32.859C29.506 33.1748 29.8218 33.1914 38.1317 33.1914C46.4417 33.1914 46.7574 33.1748 47.1231 32.859C47.522 32.5433 47.4887 32.5433 38.1317 32.5433C28.7747 32.5433 28.7415 32.5433 29.1404 32.859Z" fill="white"/>
<path d="M32.1318 34.704C32.514 35.0197 32.7301 35.0364 38.2313 34.9865C43.4001 34.9366 43.9652 34.9034 44.2311 34.6375C44.497 34.3716 44.2145 34.355 38.1316 34.355L31.7329 34.3716L32.1318 34.704Z" fill="white"/>
<path d="M35.9707 36.5153C36.3197 36.7812 36.6521 36.8477 38.0149 36.8477C39.1617 36.8477 39.7932 36.7646 40.1256 36.5984C40.4082 36.4488 40.6242 36.2992 40.6242 36.266C40.6242 36.2161 39.4775 36.1829 38.098 36.1829H35.5552L35.9707 36.5153Z" fill="white"/>
</svg>
