<svg width="120" height="26" viewBox="0 0 120 26" fill="none" xmlns="http://www.w3.org/2000/svg">
<path fill-rule="evenodd" clip-rule="evenodd" d="M102.09 24.3305L102.433 23.6416V6.63148L101.652 5.79572H105.001L104.949 6.48588L118.358 20.7508V6.53912L117.922 5.79637H120L119.748 6.63212V25.5113L103.809 8.52877L103.77 23.6949L104.06 24.3716L102.09 24.3305ZM97.1915 5.79637H100.157L99.8123 6.42046V23.6808L100.104 24.3171H97.1511L97.4294 23.6808V6.61929L97.1915 5.79637ZM71.0605 5.79637H74.0783L73.8282 6.40635V23.6679H79.0294C80.2608 23.7347 80.8433 22.8726 81.1075 21.9708L87.038 8.05156L86.2965 7.75972L87.9392 5.34674L95.8016 23.8661L96.2916 24.3433L93.0358 24.3568L93.2738 23.6141L90.7056 17.8478H84.0734L81.5982 23.6141L81.7047 24.3042H71.0342L71.5101 23.6141V6.60582L71.0605 5.79637ZM54.7783 24.3831L55.4268 23.5878V6.63212L55.0823 5.74377H61.0134C65.9504 7.0965 67.1158 13.2739 62.0057 15.6343C63.9389 18.9215 66.8516 22.5949 70.4646 24.5691C65.0518 24.716 61.9672 19.5719 59.3323 16.0839H57.5056V23.6942L57.995 24.3831H54.7783ZM44.585 5.74377H53.0042L52.8053 7.17539L51.5212 6.61929H47.3117V14.9711H52.2627L52.8053 14.5728V16.3629L52.3025 15.819H47.3649V23.6801H52.4083L53.5468 23.0836L52.8451 24.3164H44.4003L44.9827 23.6275V6.47305L44.585 5.74377ZM26.0791 5.79637H29.0572L28.6999 6.31398C28.6864 10.1323 28.6864 13.9108 28.6601 17.7413C28.197 23.4287 36.7355 25.9219 39.8328 20.9234V6.36722L39.5416 5.79572H42.6127L42.2683 6.40635C42.215 12.0674 42.2554 17.7413 42.2022 23.4165C42.2817 23.7738 42.4139 24.0919 42.6127 24.3575C41.6862 24.3332 40.7596 24.3157 39.8328 24.3049V22.2767C33.7305 27.5523 26.4364 23.1375 26.4229 17.5438V6.36722L26.0791 5.79637ZM13.7281 14.4804C17.4342 14.3874 21.1409 14.3072 24.7944 14.2283C24.5692 19.9285 19.1551 24.7276 12.4838 24.6615C8.44613 24.3305 4.39564 22.8848 2.05257 19.3461C-1.44247 14.295 0.000702165 8.19652 2.84663 5.0023C7.3474 -0.632478 16.4682 -1.21616 22.028 4.55139C21.9484 5.81048 21.8689 7.06956 21.7765 8.32993C20.8369 4.18002 16.5606 1.46237 12.6685 1.36936C5.52003 1.31677 2.9127 7.65324 2.76646 12.306C2.32966 17.0525 5.6528 23.9065 12.7083 23.9463C17.871 23.92 21.4853 20.0754 22.0677 15.5413L13.7544 15.3418C13.7544 15.0506 13.7416 14.7581 13.7281 14.4804ZM57.5979 15.236L57.571 6.79119H59.7287C64.4809 7.99768 63.8979 14.3079 59.4375 15.236H57.5979ZM84.4698 16.9736H90.4002L87.5415 10.3703L84.4698 16.9736Z" fill="white"/>
</svg>
