<svg width="120" height="66" viewBox="0 0 120 66" fill="none" xmlns="http://www.w3.org/2000/svg">
<path fill-rule="evenodd" clip-rule="evenodd" d="M5.83326 50.7285C4.91214 50.965 2.31155 48.9038 2.31155 48.9038L0 46.9776C0 46.9776 23.8885 37.7299 59.1435 33.1061C94.3986 28.483 120.413 28.4122 119.442 28.483C120.195 28.5107 120.177 29.1435 119.442 29.2537C119.22 29.3063 94.0132 30.7945 69.7386 34.4556C46.2406 37.9992 13.2329 46.6309 5.83326 50.7285ZM31.402 7.29141C31.402 7.29141 35.7054 7.67679 40.5212 5.36451C45.3377 3.05296 59.3362 -3.30436 67.2343 3.63103C71.9501 7.77168 74.9412 15.7676 69.7393 22.3183C69.7393 22.3183 102.297 25.5933 104.608 26.5568L65.5008 26.1714L61.6478 21.5483C61.6478 21.5483 64.9235 21.6768 66.0782 21.8052C67.2343 21.9337 68.5189 22.1906 68.5189 19.3652C68.5189 19.3652 68.3182 16.915 68.5189 16.5391C68.7211 16.1639 69.778 15.6304 69.8035 15.5114C69.8305 15.3924 67.4686 12.4035 67.3234 11.6321C67.2051 11 67.2351 10.1168 67.2351 10.1168C67.2351 10.1168 67.3635 3.30988 61.5843 3.30988C56.5758 3.30988 52.2089 6.64911 49.6404 7.67679C48.5156 8.1264 44.5027 10.6306 39.3658 10.8876C34.2273 11.1445 31.402 7.29141 31.402 7.29141ZM40.6496 26.4276C40.6496 26.4276 41.4204 26.6845 46.3004 25.0145C51.1812 23.3453 54.3919 23.0876 55.1627 23.4737C55.9335 23.8584 59.5289 27.583 59.5289 27.583L43.2181 28.8676L40.6496 26.4276ZM7.07918 62.5162C6.97626 63.6876 6.88722 64.4905 7.866 65.1277L7.86016 65.189H3.9954L4.00051 65.1277C5.01068 64.7372 5.02527 63.2358 5.10556 62.3111L5.90844 53.1393H4.19028C3.35164 53.1393 2.45315 53.3663 1.79625 53.9619H1.73713L2.63416 51.5153H2.69329C2.91882 51.6182 3.17209 51.6182 3.42244 51.6591H11.1914C11.5235 51.6591 11.838 51.6379 12.1023 51.5153H12.1607L11.322 53.9619H11.2636C11.0731 53.2422 10.3009 53.1393 9.65714 53.1393H7.9003L7.07918 62.5162ZM24.0746 58.5886L23.7491 62.3111C23.6688 63.2366 23.4199 64.7372 24.3615 65.1277L24.3556 65.189H20.6471L20.6529 65.1277C21.6631 64.7372 21.6769 63.2358 21.7579 62.3111L22.4382 54.5378C22.5185 53.6123 22.7871 52.1116 21.8251 51.7211L21.8309 51.6598H25.5395L25.5351 51.7211C24.525 52.1116 24.5104 53.613 24.4271 54.5597L24.2045 57.1084H31.2509L31.4742 54.5597C31.5567 53.613 31.8246 52.1116 30.864 51.7211L30.8691 51.6598H34.5974L34.5916 51.7211C33.5624 52.1116 33.5478 53.613 33.4668 54.5378L32.7873 62.3111C32.7063 63.2366 32.4574 64.7372 33.4186 65.1277L33.4135 65.189H29.686L29.6911 65.1277C30.7202 64.7372 30.7151 63.2358 30.7961 62.3111L31.1217 58.5886H24.0746ZM46.8332 60.1097L45.5647 63.0096C45.0538 64.1613 44.8655 64.7577 45.7698 65.1277L45.764 65.189H42.1729L42.178 65.1277C43.3626 64.5307 43.7947 63.3796 44.3268 62.2067L48.3368 53.6334C48.6747 52.8919 49.1214 52.0284 48.2113 51.7204L48.2164 51.6591H51.3009L54.4379 62.2067C54.7846 63.3796 55.035 64.5307 56.0955 65.1277L56.0897 65.189H52.0884L52.0943 65.1277C53.0898 64.6759 52.9541 64.4489 52.5526 63.0096L51.7527 60.1097H46.8332ZM49.9367 53.4072L47.5507 58.5894H51.3965L49.9367 53.4072ZM71.4042 63.7095C72.7245 63.7905 73.9172 63.3176 74.9697 62.4549H75.0281L73.7734 65.189H65.7519L65.7563 65.1277C66.7854 64.7569 66.8015 63.2358 66.8811 62.3111L67.5598 54.5589C67.6423 53.6123 67.892 52.1109 66.93 51.7204L66.9358 51.6591H70.6633L70.6575 51.7204C69.6283 52.1109 69.6313 53.6334 69.551 54.5589L68.7656 63.5241L71.4042 63.7095ZM89.6616 62.5162C89.555 63.7489 89.5003 64.3664 90.4287 65.1277L90.4229 65.189H86.6165L86.6223 65.1277C87.6245 64.6131 87.6048 63.276 87.6887 62.3111L87.9551 59.2674L85.1954 53.778C84.748 52.8729 84.4173 52.1941 83.5261 51.6598H85.3027C85.9282 51.6598 86.5004 51.8036 86.7172 52.2357L89.3704 57.6018L92.1257 53.7787C92.5023 53.2641 93.038 52.2773 91.9928 51.7219L91.9987 51.6605H95.4145L89.9477 59.2689L89.6616 62.5162ZM112.484 54.1071C111.795 53.2831 110.627 52.8116 109.533 52.8116C108.42 52.8116 106.976 53.2634 106.852 54.6815C106.605 57.4996 113.322 57.4588 112.99 61.2622C112.798 63.4621 110.431 65.5189 107.386 65.5189C106.196 65.5189 105.021 65.3335 103.946 64.9014L103.605 62.3315C104.664 63.3811 106.208 64.038 107.731 64.038C108.842 64.038 110.583 63.3395 110.709 61.8994C110.99 58.6916 104.224 59.2682 104.606 54.9085C104.833 52.3182 107.437 51.3306 109.818 51.3306C110.795 51.3306 111.777 51.4744 112.687 51.7824L112.484 54.1071Z" fill="white"/>
</svg>
