<svg width="120" height="14" viewBox="0 0 120 14" fill="none" xmlns="http://www.w3.org/2000/svg">
<path fill-rule="evenodd" clip-rule="evenodd" d="M2.79265 2.97669L2.79948 3.55024C3.85372 2.7104 5.3033 2.61139 6.62179 2.7104C8.05499 2.85925 9.38918 3.73187 9.94976 5.08245C10.526 6.49926 10.4933 8.41041 9.63703 9.67837C8.58279 11.227 6.72148 11.7705 4.97488 11.5731C4.15074 11.4571 3.36074 11.1942 2.73461 10.65L2.70184 10.6992L2.70116 13.9397L0 13.9452V2.97669H2.79265ZM2.70116 6.23501C2.3222 7.02637 2.51953 8.09633 3.14566 8.72314C3.87079 9.49675 4.95781 9.77669 5.97928 9.51382C6.78635 9.24957 7.39609 8.49235 7.54425 7.66821C7.69242 6.71297 7.51148 5.6915 6.75357 5.11522C5.96289 4.45632 4.72702 4.47271 3.8544 4.94998C3.36006 5.19784 2.8821 5.70789 2.70116 6.23501ZM47.8602 2.98352H50.3565L50.364 4.12448C50.8256 3.35018 51.5029 2.83194 52.7797 2.83194C54.0566 2.83194 54.4362 3.2184 54.4362 3.2184L54.4328 5.55767C53.6093 5.12956 52.424 5.01417 51.5172 5.3105C50.5456 5.67307 50.364 6.72731 50.3148 7.64977V11.3676H47.8602V2.98352ZM21.218 2.99718V11.3635H18.3892V10.7954C17.5774 11.4059 16.589 11.7355 15.5733 11.7343C13.0101 11.7343 10.9323 9.98085 10.9323 7.18957C10.9323 4.39828 13.0101 2.64553 15.5733 2.64553C16.6337 2.64553 17.6074 2.99717 18.3892 3.58301V2.99718H21.218ZM16.2609 9.71456C17.6121 9.71456 18.7073 8.57975 18.7073 7.18069C18.7073 5.78163 17.6121 4.6475 16.2609 4.6475C14.9096 4.6475 13.7093 5.36922 13.7093 7.18069C13.7093 8.99284 14.9096 9.71456 16.2609 9.71456ZM64.8626 2.99718V11.3635H62.0337V10.7954C61.222 11.4059 60.2335 11.7355 59.2179 11.7343C56.6546 11.7343 54.5769 9.98085 54.5769 7.18957C54.5769 4.39828 56.6546 2.64553 59.2179 2.64553C60.2782 2.64553 61.2519 2.99717 62.0337 3.58301V2.99718H64.8626ZM59.9054 9.71456C61.2567 9.71456 62.3519 8.57975 62.3519 7.18069C62.3519 5.78163 61.2567 4.6475 59.9054 4.6475C58.5542 4.6475 57.3538 5.36922 57.3538 7.18069C57.3531 8.99284 58.5542 9.71456 59.9054 9.71456ZM87.6565 2.99718V11.3635H84.8276V10.7954C84.0161 11.4059 83.0279 11.7355 82.0124 11.7343C79.4492 11.7343 77.3715 9.98085 77.3715 7.18957C77.3715 4.39828 79.4492 2.64553 82.0124 2.64553C83.0728 2.64553 84.0465 2.99717 84.8276 3.58301V2.99718H87.6565ZM82.6993 9.71456C84.0506 9.71456 85.1451 8.57975 85.1451 7.18069C85.1451 5.78163 84.0499 4.6475 82.6993 4.6475C81.3488 4.6475 80.147 5.36922 80.147 7.18069C80.147 8.99284 81.3488 9.71456 82.6993 9.71456ZM69.2448 0.0625V3.5837C70.0571 2.97402 71.0456 2.64498 72.0613 2.64622C74.6245 2.64622 76.7023 4.39896 76.7023 7.19025C76.7023 9.98153 74.6245 11.735 72.0613 11.735C71.0454 11.736 70.0568 11.4065 69.2448 10.7961V11.3642H66.4173V0.0625H69.2448ZM73.9254 7.18069C73.9254 5.36854 72.725 4.6475 71.3744 4.6475C70.0238 4.6475 68.9273 5.78232 68.9273 7.18069C68.9273 8.57906 70.0232 9.71456 71.3744 9.71456C72.7257 9.71456 73.9254 8.99284 73.9254 7.18069ZM32.0165 8.08062C32.0165 8.6569 31.6519 11.6776 27.1215 11.6776C22.5911 11.6776 21.9131 8.58111 21.9131 7.22234C21.9131 5.86288 22.4675 2.63529 27.2239 2.63529C31.981 2.63529 32.0144 6.25755 32.0144 6.25755H29.4212C29.4212 6.25755 29.0565 4.65433 27.3885 4.65433C25.7211 4.65433 24.8423 5.76115 24.8423 7.22302C24.8423 8.68626 25.844 9.76987 27.3058 9.76987C28.7677 9.76987 29.4539 8.32847 29.4539 8.0813L32.0165 8.08062ZM37.8087 2.77185C39.909 2.77185 43.0109 3.80356 43.0109 7.32408C43.0109 10.846 39.7028 11.8183 37.6844 11.8183C35.5841 11.8183 32.573 10.7831 32.573 7.22166C32.5736 3.65949 35.8524 2.77185 37.8087 2.77185ZM35.1485 7.307C35.1485 8.72996 36.2676 9.88458 37.6475 9.88458C39.0275 9.88458 40.1466 8.72996 40.1466 7.307C40.1466 5.88405 39.0275 4.73012 37.6475 4.73012C36.2676 4.73012 35.1485 5.88405 35.1485 7.307ZM94.7473 2.595C92.5084 2.595 91.6652 3.6752 91.6051 3.75645V2.97669H88.7817V11.3642H91.6051V5.04967L91.6105 6.38727C91.6201 6.06841 91.7601 4.7943 93.4712 4.7943C95.3052 4.7943 95.2997 5.85674 95.2997 5.85674V11.3642H98.1231V5.03875C98.1224 5.03875 98.104 2.595 94.7473 2.595Z" fill="white"/>
<path fill-rule="evenodd" clip-rule="evenodd" d="M91.6119 6.45969L91.6106 6.38799C91.6106 6.43305 91.6119 6.45969 91.6119 6.45969ZM105.405 2.59504C103.165 2.59504 102.322 3.67523 102.262 3.75648V2.97673H99.4382V11.3642H102.262V5.0497L102.268 6.38731C102.277 6.06844 102.417 4.79433 104.128 4.79433C105.962 4.79433 105.956 5.85677 105.956 5.85677V11.3642H108.78V5.03878C108.779 5.03878 108.762 2.59504 105.405 2.59504Z" fill="white"/>
<path fill-rule="evenodd" clip-rule="evenodd" d="M102.268 6.45964V6.38795C102.268 6.41184 102.268 6.43575 102.268 6.45964ZM112.702 7.88328C112.702 8.78867 113.28 9.77805 114.846 9.77805C116.411 9.77805 117.067 8.68967 117.067 8.68967H119.803C119.803 9.48718 118.634 11.6906 114.928 11.6906C110.747 11.6906 109.835 8.86856 109.835 7.24281C109.835 5.61502 110.728 2.55062 114.97 2.55062C119.212 2.55062 120 5.62116 120 7.86553L112.702 7.88328ZM117.15 6.05611C117.15 6.05611 117.192 4.33614 114.928 4.33614C112.663 4.33614 112.702 6.05406 112.702 6.05406L117.15 6.05611Z" fill="white"/>
</svg>
