<svg width="120" height="30" viewBox="0 0 120 30" fill="none" xmlns="http://www.w3.org/2000/svg">
<path fill-rule="evenodd" clip-rule="evenodd" d="M48.3773 23.6341H49.8481C50.7207 23.6341 51.8231 23.7721 51.8231 25.2422C51.8231 26.6205 50.6283 26.8964 49.8481 26.8964H49.3424V29.2854H48.3773V23.6341ZM49.3417 26.2066H49.8474C50.3986 26.2066 50.858 25.932 50.858 25.2422C50.858 24.5075 50.4904 24.3226 49.8474 24.3226H49.3417V26.2066ZM54.2121 23.6341H55.3607L57.2902 29.2854H56.3258L55.8201 27.7691H53.7526L53.2932 29.2854H52.2826L54.2121 23.6341ZM53.9824 27.0344H55.5904L54.8095 24.5537H54.7633L53.9824 27.0344ZM58.6685 23.6341H60.4139C61.4714 23.6341 62.2523 24.0018 62.2523 25.1042C62.2523 26.0238 61.7005 26.2997 61.1037 26.4363C61.8853 26.6205 61.9764 27.1262 62.1144 27.7229L62.482 29.2854H61.4714L61.2417 28.0899C61.012 27.1717 60.9195 26.8496 60.0469 26.8496H59.6336V29.2847H58.6685V23.6341ZM59.633 26.1611H60.0462C60.6443 26.1611 61.241 26.068 61.241 25.1953C61.241 24.6448 60.9651 24.3226 60.4132 24.3226H59.6323L59.633 26.1611ZM64.2729 23.6341H65.238V29.2854H64.2729V23.6341ZM70.4754 24.5537C70.1077 24.4157 69.6027 24.2316 69.0508 24.2316C68.5452 24.2316 68.1782 24.4157 68.1782 24.9214C68.1782 25.932 70.8893 26.0687 70.8893 27.7691C70.8893 28.8266 70.0166 29.3772 68.8211 29.3772C68.0864 29.3772 67.3979 29.1943 67.2131 29.1474V28.183C67.5808 28.3659 68.1326 28.7335 68.8211 28.7335C69.6027 28.7335 69.8318 28.2748 69.8318 27.9071C69.8318 26.6667 67.122 26.6205 67.122 25.0125C67.122 24.0018 67.9947 23.5424 69.0508 23.5424C69.6945 23.5424 70.2463 23.6341 70.4754 23.6804V24.5537ZM0 17.7538V18.0297H5.55884C9.46409 18.0297 11.1639 15.7788 11.1639 13.2967C11.1639 11.0457 9.69382 9.20861 7.62633 8.70296V8.6112C9.00465 7.96759 10.2906 6.58992 10.2906 4.93567C10.2906 2.31699 8.45345 0.708944 5.55884 0.708944H0V0.984212L1.10239 1.21393V17.5241L0 17.7538ZM4.9621 1.3981C7.30485 1.3981 7.94847 3.0517 7.94847 4.93567C7.94847 6.81965 6.79986 8.47324 4.91589 8.47324H3.67553V1.3981H4.9621ZM4.91589 9.16174C7.48836 9.16174 8.49966 11.0919 8.49966 13.2967C8.49966 15.5028 7.76495 17.3399 4.91589 17.3399H3.67553V9.16174H4.91589ZM25.0389 9.34657C25.0389 16.1451 22.9714 18.0753 19.2959 18.0753C15.6203 18.0753 13.5529 16.1451 13.5529 9.34657C13.5529 2.54671 15.6203 0.617188 19.2959 0.617188C22.9714 0.617188 25.0389 2.54671 25.0389 9.34657ZM19.2959 1.12218C17.2746 1.12218 16.3557 4.47623 16.3557 9.34591C16.3557 14.2156 17.2746 17.569 19.2959 17.569C21.3172 17.569 22.2816 14.2156 22.2816 9.34591C22.2822 4.47623 21.3172 1.12218 19.2959 1.12218ZM105.254 9.34657C105.254 16.1451 103.186 18.0753 99.512 18.0753C95.8364 18.0753 93.7683 16.1451 93.7683 9.34657C93.7683 2.54671 95.8364 0.617188 99.512 0.617188C103.186 0.617188 105.254 2.54671 105.254 9.34657ZM99.5113 1.12218C97.49 1.12218 96.5705 4.47623 96.5705 9.34591C96.5705 14.2156 97.49 17.569 99.5113 17.569C101.532 17.569 102.451 14.2156 102.451 9.34591C102.451 4.47623 101.532 1.12218 99.5113 1.12218ZM33.8594 18.1215C39.6479 18.1215 39.005 13.9865 39.005 9.34657V1.21459L40.1074 0.984871V0.709602H35.3757V0.984871L36.4781 1.21459V9.34657C36.4781 13.3898 36.8913 17.6159 33.8594 17.6159C30.7812 17.6159 31.2407 13.3898 31.2407 9.34657V1.21459L32.3431 0.984871V0.709602H27.5652V0.984871L28.6675 1.21459V9.34657C28.6682 13.9865 28.0253 18.1215 33.8594 18.1215ZM45.5745 9.34657C45.5745 14.2163 46.5389 17.5696 48.5608 17.5696C49.8936 17.5696 50.6283 16.8811 51.4554 15.1807L51.8687 15.2269L51.4554 17.4779C50.858 17.7987 49.9392 18.1215 48.5608 18.1215C44.8853 18.1215 42.8185 16.1451 42.8185 9.34657C42.8185 2.54671 44.8853 0.617188 48.5608 0.617188C49.9392 0.617188 50.858 0.892455 51.4554 1.21459L51.8687 3.46559L51.4554 3.51114C50.6283 1.81134 49.8936 1.12218 48.5608 1.12218C46.5396 1.12218 45.5745 4.47623 45.5745 9.34657ZM76.6316 9.76046C75.9418 9.25481 74.7015 9.1624 72.7726 9.1624V17.3406C75.7583 17.3406 76.6316 17.4323 77.4126 15.7325L77.8251 15.7788L77.4126 18.0297H69.0964V17.7538L70.1988 17.4779V1.21459L69.0964 0.984871V0.709602H77.2277L77.6416 2.91506L77.2277 3.00681C76.4461 1.30701 75.7576 1.39876 72.7719 1.39876V8.4739C74.7008 8.4739 75.9412 8.38082 76.631 7.87715H76.7227V9.76112L76.6316 9.76046ZM62.4352 9.34657V17.5241L61.3328 17.7538V18.0297H66.0645V17.7538L64.9627 17.5241V1.21459L66.0645 0.984871V0.708944H61.3328V0.984871L62.4352 1.21459V8.47324H57.1985V1.21459L58.2546 0.984871V0.708944H53.5229V0.984871L54.6253 1.21459V17.5241L53.5229 17.7538V18.0297H58.2546V17.7538L57.1985 17.5241V9.34657H62.4352ZM85.0858 1.3981C87.6114 1.3981 88.117 3.18966 88.117 5.07298C88.117 7.1398 86.9229 8.79406 85.0858 8.79406H83.7992V1.3981H85.0858ZM87.6114 9.07064C89.0828 8.38082 90.5522 6.81965 90.5522 5.07364C90.5522 2.77643 89.1276 0.709602 85.7274 0.709602H80.1692V0.984871L81.2254 1.21459V17.4779L80.1692 17.7538V18.0297H84.9009V17.7538L83.7985 17.4779V9.43767H84.9009C85.7736 11.0002 88.1626 15.2269 89.0821 16.5584C89.4947 17.202 89.8168 17.7987 90.6901 17.8918C91.5628 17.9835 92.1134 18.0297 93.4468 18.0297V17.7076C92.0223 17.7076 88.8517 11.3216 87.6114 9.1624V9.07064ZM110.032 17.3399L111.455 17.6621V18.0297H107.688V17.6621L109.113 17.3399V5.62483C109.113 2.63846 109.204 1.76579 107.505 0.984871V0.709602H110.674L117.658 12.5171V1.3981L116.188 1.07663V0.708944H120V1.07663L118.53 1.3981V18.0746H117.886L110.031 4.84392V17.3399H110.032Z" fill="white"/>
</svg>
