<svg width="120" height="16" viewBox="0 0 120 16" fill="none" xmlns="http://www.w3.org/2000/svg">
<path fill-rule="evenodd" clip-rule="evenodd" d="M118.383 1.37462H120V15.0466L110.114 4.699V14.5381H108.452V0.726562L118.383 11.1209V1.37462ZM71.9173 1.37462V9.73438C71.9173 11.2121 71.5009 12.4131 70.6688 13.338C69.7923 14.3541 68.5914 14.8157 67.0668 14.8157C65.635 14.8157 64.4349 14.3541 63.556 13.338C62.6795 12.4131 62.2623 11.2121 62.2623 9.73438V1.37462H63.9264V9.17991C63.9264 11.9054 64.9426 13.292 67.0668 13.292C69.2371 13.292 70.3 11.9054 70.3 9.17991V1.37462H71.9173ZM76.9979 1.37462H84.896V2.89919H81.7557V14.5389H80.1851V2.89919H76.9979V1.37462ZM74.1344 1.37462H75.797V14.5389H74.1344V1.37462ZM59.5843 1.37462H61.3858L55.6579 15.2774L49.9309 1.37462H51.7323L55.6587 11.1209L59.5843 1.37462ZM105.403 7.97896C105.403 9.45673 104.895 10.7045 103.833 11.7666C102.863 12.7827 101.616 13.2912 100.183 13.2912C98.7512 13.2912 97.5043 12.7827 96.4429 11.7666C95.38 10.7037 94.8724 9.45673 94.8724 7.97896C94.8724 6.50119 95.334 5.25346 96.3501 4.23735C97.3662 3.17602 98.66 2.66756 100.183 2.66756C101.708 2.66756 102.954 3.17602 103.925 4.23735C104.896 5.25346 105.403 6.5004 105.403 7.97896ZM105.034 3.12921C103.649 1.78946 102.032 1.097 100.184 1.097C98.2903 1.097 96.6746 1.78946 95.288 3.12921C93.9491 4.46817 93.2558 6.08556 93.2558 7.97818C93.2558 9.91761 93.9498 11.535 95.288 12.8739C96.6278 14.1677 98.2443 14.815 100.184 14.815C102.079 14.815 103.741 14.1677 105.034 12.8739C106.374 11.535 107.067 9.91761 107.067 7.97818C107.067 6.08556 106.375 4.46817 105.034 3.12921ZM92.8869 1.37462V2.89919H89.7918V14.5389H88.1292V2.89919H84.9888V1.37462H92.8869ZM16.4895 4.23735C17.4596 5.25346 17.9212 6.50119 17.9212 7.97896C17.9212 9.45673 17.4128 10.7045 16.3975 11.7666C15.3813 12.7827 14.1336 13.2912 12.7018 13.2912C11.2701 13.2912 10.0231 12.7827 8.96101 11.7666C7.99091 10.7037 7.43724 9.45673 7.43724 7.97896C7.43724 6.50119 7.9449 5.25346 8.91501 4.23735C9.93112 3.17602 11.1789 2.66756 12.7026 2.66756C14.2264 2.66756 15.5202 3.17602 16.4895 4.23735ZM17.5524 3.12921C16.1666 1.78946 14.55 1.097 12.7026 1.097C10.8084 1.097 9.14663 1.78946 7.85288 3.12921C6.46713 4.46817 5.77465 6.08556 5.77465 7.97818C5.77465 9.91761 6.46792 11.535 7.85288 12.8739C9.14663 14.1677 10.7632 14.815 12.7026 14.815C14.6429 14.815 16.2594 14.1677 17.5524 12.8739C18.9381 11.535 19.5846 9.91761 19.5846 7.97818C19.5846 6.08556 18.9381 4.46817 17.5524 3.12921ZM22.587 9.17911C22.587 11.9046 23.6491 13.2912 25.7741 13.2912C27.8531 13.2912 28.9613 11.9046 28.9613 9.17911V1.37383H30.5779V9.73357C30.5779 11.2113 30.1622 12.4123 29.2841 13.3372C28.4068 14.3533 27.2059 14.815 25.7741 14.815C24.2963 14.815 23.1414 14.3533 22.2641 13.3372C21.34 12.4123 20.9252 11.2113 20.9252 9.73357V1.37383H22.5877L22.587 9.17911ZM1.61658 13.0603H5.63504V14.5381H0V1.37383H1.61658V13.0603ZM41.2007 6.77804C43.4177 7.65455 44.4806 8.9483 44.4806 10.7037C44.4806 11.9046 44.065 12.8739 43.2337 13.66C42.4484 14.4453 41.4783 14.8157 40.3234 14.8157C39.2612 14.8157 38.3371 14.4921 37.5527 13.7528C36.8134 13.0604 36.3517 12.1823 36.2129 11.1209L37.8755 10.7505C37.8755 11.4898 38.1063 12.0902 38.6148 12.5987C39.1232 13.0603 39.6769 13.2912 40.4162 13.2912C41.1095 13.2912 41.6631 13.0135 42.1716 12.5059C42.5872 12.0442 42.818 11.443 42.818 10.7045C42.818 9.68836 42.0788 8.85786 40.555 8.2098L39.6309 7.88776C37.7835 7.00966 36.8134 5.90153 36.8134 4.51498C36.8134 3.49887 37.229 2.62156 37.9683 2.0203C38.7536 1.37462 39.6309 1.097 40.6938 1.097C42.2176 1.097 43.3265 1.78946 44.065 3.12921L42.772 3.86851C42.2636 3.08322 41.5711 2.66756 40.647 2.66756C40.0925 2.66756 39.5381 2.80558 39.1224 3.12921C38.6608 3.49806 38.4292 3.9613 38.4292 4.51418C38.4292 5.29947 39.0296 5.90074 40.3226 6.36239L41.2007 6.77804ZM32.7949 1.37462H34.4583V14.5389H32.7949V1.37462Z" fill="white"/>
</svg>
