<svg width="120" height="16" viewBox="0 0 120 16" fill="none" xmlns="http://www.w3.org/2000/svg">
<path fill-rule="evenodd" clip-rule="evenodd" d="M80.1353 12.1228V14.5833C75.4749 15.5152 70.851 15.5152 66.2636 14.5833V1.3825H69.5457V12.1228H80.1353ZM0 1.3825C5.39495 0.487085 10.9006 0.487085 16.2956 1.3825V3.73196H9.77054V14.5833H6.4891V3.73196H0V1.3825ZM99.8624 12.1228V14.5833C94.9403 15.5152 90.0547 15.5152 85.2441 14.5833V1.3825C90.0547 0.487093 94.8652 0.487093 99.6758 1.3825V3.73196H88.564V6.41689H95.0519V9.06461H88.564V12.1228H99.8624Z" fill="white"/>
<path fill-rule="evenodd" clip-rule="evenodd" d="M54.5926 10.5193C54.5926 11.153 54.3688 11.7117 53.9211 12.1594C53.4368 12.6065 52.8775 12.8309 52.2432 12.8309C51.6088 12.8309 51.0867 12.6065 50.6024 12.1594C50.1547 11.7123 49.9315 11.1537 49.9315 10.5193C49.9315 9.88497 50.1554 9.32566 50.6024 8.87796C51.0501 8.39306 51.6094 8.16921 52.2432 8.16921C52.8769 8.16921 53.4362 8.3937 53.9211 8.87796C54.3688 9.32502 54.5926 9.88497 54.5926 10.5193Z" fill="white"/>
<path fill-rule="evenodd" clip-rule="evenodd" d="M35.3139 6.41683H25.8794V1.08418L22.8591 1.45683V14.732L25.8794 15.1053V9.10111H35.3139V15.1053L38.3343 14.732V1.45683L35.3139 1.04633V6.41683ZM52.2804 3.91855L58.3218 14.9937L61.6038 14.5826L60.0741 11.9361L60.0369 11.8983L53.9211 1.38243H50.9007L43.2943 14.5826L46.2396 14.9565L51.3856 5.52142L51.4228 5.48422L52.2804 3.91855ZM107.731 6.52843V3.7319H119.813V1.38243C117.464 0.950802 115.078 0.751006 112.691 0.785925C110.34 0.785925 108.327 1.00977 106.575 1.49403C105.941 1.68068 105.456 1.97894 105.196 2.42664C104.934 2.87434 104.785 3.58245 104.785 4.51506V5.96913C104.785 7.19934 105.045 8.0197 105.568 8.46804C106.053 8.8779 106.985 9.10047 108.328 9.10047H117.053V12.1221H104.785V14.5826L112.691 15.2163V15.1784C114.667 15.1784 116.531 14.918 118.285 14.4331C118.919 14.2843 119.366 13.9861 119.627 13.5012C119.888 13.0541 120 12.3825 120 11.4506V9.66042C120 8.4302 119.738 7.6092 119.253 7.1615C118.769 6.75164 117.874 6.52779 116.495 6.52779L107.731 6.52843Z" fill="white"/>
</svg>
