<svg width="120" height="20" viewBox="0 0 120 20" fill="none" xmlns="http://www.w3.org/2000/svg">
<path fill-rule="evenodd" clip-rule="evenodd" d="M2.17812 19.3067H0.492296C0.35164 19.3067 0 19.3067 0 19.0957C0 18.9557 0.0703284 18.8847 0.281312 18.8144C1.82716 18.3221 2.17812 17.4795 2.17812 16.286V3.70956C2.17812 2.58499 1.82648 1.74174 0.281312 1.1798C0.0703284 1.1798 0 1.03914 0 0.968814C0 0.688185 0.35164 0.757831 0.492296 0.757831H14.4029C17.5642 0.757831 20.1643 3.28691 20.1643 6.44825C20.1643 9.61028 17.5642 12.1387 14.4029 12.1387H7.37693V16.4246C7.44794 17.5485 7.79889 18.3207 9.27442 18.813C9.4854 18.884 9.55504 18.9543 9.55504 19.0943C9.55504 19.3053 9.20409 19.3053 9.06343 19.3053H2.17812V19.3067ZM105.878 12.4917H109.18L105.878 6.8709L105.526 6.30828L102.576 12.4917H105.878ZM105.878 0.68887H108.127L117.541 17.2706C117.822 17.6905 118.173 18.1131 118.595 18.3228C118.946 18.6041 119.368 18.6751 119.719 18.8151C119.86 18.8861 120 18.9564 120 19.0964C120 19.3073 119.649 19.3073 119.508 19.3073H111.148C111.008 19.3073 110.585 19.3073 110.585 19.0964C110.585 18.9564 110.726 18.8854 110.868 18.8151C111.289 18.6751 111.569 18.4641 111.709 18.0428C111.85 17.5505 111.709 17.2706 111.358 16.6369C110.881 15.623 110.389 14.616 109.883 13.6162H102.014L101.944 13.7562C101.873 14.0375 101.312 15.0208 100.889 16.075C100.328 17.1989 100.117 17.4795 100.257 18.0421C100.328 18.4634 100.678 18.6744 101.1 18.8144C101.241 18.8854 101.312 18.9557 101.312 19.0957C101.312 19.3067 100.96 19.3067 100.82 19.3067H96.955C96.815 19.3067 96.4627 19.3067 96.4627 19.0957C96.4627 18.9557 96.5337 18.8847 96.744 18.8144C97.0963 18.6744 97.5162 18.6034 97.8679 18.3221C98.2891 18.1125 98.6415 17.6898 98.9214 17.2699L99.4137 16.215L104.753 5.04442L103.98 3.70956C103.278 2.58499 102.575 1.8824 101.802 1.46111C101.451 1.25013 101.1 1.25013 100.749 1.10947C100.538 1.03914 100.467 0.968813 100.538 0.828157C100.538 0.687501 100.678 0.757828 100.749 0.6875H105.878V0.68887ZM84.8708 19.2357H85.1521C98.0802 19.2357 97.9402 0.758513 85.1521 0.758513H74.5436C74.3326 0.758513 73.9823 0.688184 73.9823 0.969496C73.9823 1.03982 74.1223 1.18048 74.2622 1.18048C75.8081 1.67209 76.1597 2.51534 76.2294 3.56958V16.4266C76.1597 17.5505 75.8081 18.3228 74.2622 18.8151C74.1223 18.8861 73.9823 18.9564 73.9823 19.0964C73.9823 19.3073 74.3333 19.3073 74.5436 19.3073H81.3585V19.2363L84.8708 19.2357ZM84.8708 2.09338C86.8393 2.09338 88.4555 3.70956 88.4555 5.67601V14.2478C88.4555 16.215 86.8393 17.8311 84.8708 17.8311H81.3579V2.09338H84.8708ZM58.1032 12.4917H61.4052L58.1032 6.8709L57.7522 6.30828L54.8019 12.4917H58.1032ZM58.1032 0.68887H60.422L69.8364 17.2706C70.0473 17.6905 70.399 18.1131 70.8203 18.3228C71.1712 18.6041 71.5939 18.6751 72.0152 18.8151C72.1551 18.8861 72.2951 18.9564 72.2951 19.0964C72.2951 19.3073 71.8738 19.3073 71.7338 19.3073H63.3744C63.233 19.3073 62.8821 19.3073 62.8821 19.0964C62.8821 18.9564 62.9517 18.8854 63.162 18.8151C63.5144 18.6751 63.8646 18.4641 63.9356 18.0428C64.0756 17.5505 63.9356 17.2706 63.6543 16.6369C63.162 15.5834 62.6008 14.5995 62.1098 13.6162H54.2386L54.1689 13.7562C54.0986 14.0375 53.6063 15.0208 53.1147 16.075C52.6231 17.1989 52.3424 17.4795 52.4831 18.0421C52.6238 18.4634 52.9044 18.6744 53.3264 18.8144C53.4663 18.8854 53.607 18.9557 53.607 19.0957C53.607 19.3067 53.256 19.3067 53.0457 19.3067H49.2507C49.1101 19.3067 48.6881 19.3067 48.6881 19.0957C48.6881 18.9557 48.8288 18.8847 48.9694 18.8144C49.3914 18.6744 49.7424 18.6034 50.1643 18.3221C50.5153 18.1125 50.9373 17.6898 51.1476 17.2699L51.6392 16.215L57.0496 5.04442L56.2767 3.70956C55.5741 2.58499 54.8012 1.8824 54.0986 1.46111C53.6766 1.25013 53.396 1.25013 52.974 1.10947C52.8334 1.03914 52.6927 0.968813 52.7637 0.828157C52.8334 0.687501 52.974 0.757828 53.045 0.6875H58.1032V0.68887ZM34.9182 12.984C36.5344 13.5452 38.5015 13.6852 40.0467 13.195L46.1597 18.4641L46.6513 18.8854C46.7224 18.9564 46.7224 19.0254 46.7224 19.0964C46.7224 19.3073 46.3707 19.3073 46.2301 19.3073H39.7667L34.9189 15.3028L30.9839 12.1407V16.4976C31.0549 17.5512 31.4762 18.3234 32.951 18.8157C33.0917 18.8867 33.162 18.9571 33.162 19.097C33.162 19.308 32.8104 19.308 32.6697 19.308H24.1682C23.9579 19.308 23.6063 19.308 23.6063 19.097C23.6063 18.9571 23.747 18.8861 23.8869 18.8157C25.5734 18.2545 25.7844 17.4112 25.8541 16.0764V3.91986C25.7837 2.65532 25.5728 1.74174 23.8869 1.1798C23.7463 1.1798 23.6063 1.03914 23.6063 0.968814C23.6063 0.688185 23.9579 0.757831 24.1682 0.757831H37.8685C38.6167 0.75467 39.3582 0.899695 40.05 1.18454C40.7419 1.46938 41.3705 1.8884 41.8996 2.41743C42.4287 2.94645 42.8478 3.57501 43.1327 4.26683C43.4176 4.95866 43.5627 5.70006 43.5596 6.44825C43.5628 7.19647 43.4178 7.93791 43.1329 8.62977C42.848 9.32164 42.4289 9.95024 41.8998 10.4793C41.3707 11.0083 40.742 11.4273 40.0501 11.7122C39.3582 11.997 38.6168 12.1419 37.8685 12.1387H33.4427C33.6536 12.56 34.1453 12.7013 34.5665 12.9123C34.7072 12.913 34.7775 12.984 34.9182 12.984ZM34.9182 10.8059H35.4801C37.3066 10.8059 38.8524 8.83804 38.8524 6.30828C38.8524 3.84953 37.3066 1.88239 35.4801 1.88239H30.9832V10.8059H34.9182ZM11.3815 1.88308H7.37693V10.8065H12.0145C13.9113 10.8065 15.3868 8.83872 15.3868 6.30896C15.3868 3.85021 13.9113 1.88308 12.0145 1.88308H11.3815Z" fill="white"/>
</svg>
