<svg width="120" height="22" viewBox="0 0 120 22" fill="none" xmlns="http://www.w3.org/2000/svg">
<path fill-rule="evenodd" clip-rule="evenodd" d="M96.8216 16.4606V11.7592H101.177V10.8188H96.8216V6.10079C98.1902 5.93641 99.7251 5.93641 101.341 6.10079L101.441 5.24257H95.2709V16.7091L91.773 12.6015V11.8427C93.3894 11.331 94.2482 10.1275 94.2482 8.24603C94.2482 6.3652 92.2846 5.24321 90.6516 5.24321H86.7256V17.5673H88.6058V6.01797C90.3216 6.01797 92.1037 6.61177 92.1037 8.50916C92.1037 10.3893 91.1626 11.3304 89.7106 11.7592L89.794 12.518L95.2709 18.9346L97.4983 19.364L95.9628 17.5667H101.441L102.463 15.3393C100.584 16.4606 98.6203 16.8072 96.8216 16.4606ZM84.9276 5.24257H83.9865V12.2708C83.9865 14.8283 83.9865 16.89 81.7591 16.89C79.6974 16.89 79.2851 15.6859 79.2851 12.4358V5.24257H77.8165V12.7818C77.8165 16.114 78.3441 18.1599 81.7591 18.1599C85.0098 18.1599 84.9276 14.3167 84.9276 12.6008V5.24257ZM45.4985 17.5667H46.9511V5.24257H45.4985V17.5667ZM73.7255 5.24257L73.1145 6.38177L67.2082 17.5673H69.0075L71.3993 12.6015H74.3187L75.4247 17.5673H77.2227L74.0555 5.24321L73.7255 5.24257ZM72.0925 11.2316L73.1145 8.98765L73.3795 8.41041L74.1371 11.2316H72.0925Z" fill="white"/>
<path fill-rule="evenodd" clip-rule="evenodd" d="M65.5103 20.6012L69.8332 0.672865H68.034L67.0942 5.2424H58.087V14.6631L50.119 5.2424H49.0136V17.5665H50.119V8.16239L58.0864 17.5665H59.3562V6.28284C60.2138 6.01843 60.907 6.01843 61.6658 6.44722V17.5671H63.1006V6.44722C63.7951 5.8859 65.5096 5.85277 66.7801 6.711L63.8435 21.6416L73.1145 21.4435L73.9733 21.4269L74.3193 19.7442L73.1145 19.8596L65.5103 20.6012ZM41.5737 5.2424L40.9627 6.39689L36.5251 14.9097C36.3428 14.233 36.0956 13.6392 35.6675 13.211C33.9517 10.9008 29.8434 7.98081 29.5969 4.99455C29.4146 2.84995 31.0476 1.31573 33.1928 1.15072C34.7264 1.05196 36.8723 2.33897 37.4655 3.54316L38.8347 2.68557C37.7127 0.721922 34.7264 0.210938 33.0106 0.210938C31.5592 0.210938 30.1078 1.13479 29.1005 2.18988C28.3092 2.99904 27.7817 3.88976 27.7154 4.48293V5.42398C24.9763 4.40138 21.8091 5.15957 21.9748 8.92122C22.1564 11.1486 25.9996 12.5178 26.5112 13.8042C27.0228 15.0084 27.3688 16.6248 24.9763 16.7083C22.9968 16.8892 22.2379 15.52 22.2379 15.3391C21.3804 16.4604 17.1084 16.9714 16.6783 16.4604V11.6603H21.0338V10.7199H16.6783V6.10062C18.0475 5.93624 19.583 5.93624 21.2153 6.10062L21.2982 5.16021H15.1281V5.2424H14.6165L10.2611 14.0693L8.71028 5.2424H8.19866L11.6303 0.623803H9.99793L4.27263 9.10344H3.76165L1.61641 0.623803H0.165018L2.04584 10.8186L0 21.1625H1.61641L4.09105 10.9008L7.35764 6.52941L9.32129 17.5665H9.9151L15.1281 7.04039V17.5665H21.2982L21.8098 16.7083C22.5845 17.483 23.6906 17.5665 24.7132 17.5665H25.6543V19.8755C26.5118 20.6337 27.7498 21.2606 29.1012 21.5582C31.4114 22.1029 34.0517 21.7238 35.6681 19.6283C36.0963 19.0179 36.3441 18.3413 36.5257 17.5671H36.8723L39.2641 12.6013H42.1675L43.2723 17.5671H45.071L41.9031 5.24303L41.5737 5.2424ZM31.1298 21.0797C30.2888 21.0465 29.6293 20.9325 29.0999 20.7171C27.6651 20.1558 27.0706 18.9688 26.0811 17.4837C28.9852 17.1371 29.3318 15.3397 28.3914 13.2117C27.616 11.6603 23.2605 9.35065 23.2605 7.81643C23.2605 5.2424 26.6762 5.2424 27.7969 7.46983L27.962 6.87602C28.2264 7.61828 28.622 8.27835 29.0999 8.88872C30.6679 10.9333 33.1087 12.4682 34.2976 14.5796C36.0134 17.7481 34.0339 21.0797 31.1298 21.0797ZM39.9401 11.2315L40.9627 8.98748L41.2271 8.41024L42.0019 11.2315H39.9401ZM111.62 5.2424V14.6631L103.652 5.2424H102.546V17.5665H103.652V8.16239L111.62 17.5665H112.891V6.28284C113.748 6.01843 114.442 6.01843 115.199 6.44722V17.5671H116.668V6.44722C117.427 5.85277 118.368 5.93624 120 6.52941V5.2424H111.62Z" fill="white"/>
</svg>
