<svg width="100" height="46" viewBox="0 0 100 46" fill="none" xmlns="http://www.w3.org/2000/svg">
<path fill-rule="evenodd" clip-rule="evenodd" d="M4.76347 16.8943C0.890897 19.7939 -0.655628 21.9276 0.253055 25.4543C1.16174 28.9792 4.1905 35.0094 8.04088 39.4544C11.8913 43.8993 13.0662 45.422 13.8241 45.4379C14.582 45.4538 14.8956 45.1636 14.982 44.6846C15.0691 44.2077 11.1055 31.5943 11.0292 31.353C10.9058 30.965 15.2978 28.6981 16.1149 27.3524C16.9326 26.0067 19.1311 22.9234 16.5473 19.2938C13.963 15.6658 8.63662 13.9947 4.76347 16.8943ZM12.1479 24.4306C12.0608 25.856 8.26165 27.3376 7.59137 26.5462C4.78737 23.2375 5.80871 22.1615 6.57629 21.1657C7.34557 20.1711 9.19082 20.3179 10.5171 21.1373C11.6028 21.8087 12.2201 23.246 12.1479 24.4306ZM35.1853 22.4295C33.9825 18.6223 32.2135 14.1842 28.0285 12.1068C24.8677 10.5375 21.781 12.513 21.3115 13.2402C20.5992 14.3463 18.9815 22.1228 20.8751 29.415C22.7693 36.7061 26.103 43.8601 26.9537 40.1189C27.8043 36.3784 26.8826 33.8099 26.8262 32.0529C26.771 30.2958 26.5577 28.4557 27.6837 27.8332C28.8109 27.2096 29.6979 26.5843 31.2007 27.5629C32.7039 28.541 33.768 32.3892 34.9418 34.0819C36.1156 35.7758 38.366 40.4376 37.5028 33.6387C36.6402 26.8415 36.292 25.9328 35.1853 22.4295ZM29.8692 22.2542C29.6473 22.8306 24.383 24.9444 24.8473 21.6813C24.9901 20.6821 25.1659 16.9068 27.158 18.36C29.1494 19.8138 30.0507 21.7854 29.8692 22.2542Z" fill="white"/>
<path fill-rule="evenodd" clip-rule="evenodd" d="M44.1982 6.3611C46.1413 5.97931 49.8733 6.56594 49.4807 4.98527C49.2406 4.014 46.5237 -0.485039 39.64 0.775853C32.7557 2.03731 30.7261 4.40376 29.8373 5.19011C28.9486 5.97589 26.1343 9.90309 31.6371 9.28687C35.3435 8.87207 35.5961 6.60406 37.228 10.8692C38.2488 13.5378 39.2519 18.137 39.8374 24.9735C40.3967 31.4964 42.9288 34.8427 43.6372 34.6048C46.1373 33.7644 42.877 19.5874 42.7097 15.2698C42.609 12.6326 42.2568 6.74233 44.1982 6.3611ZM60.1277 13.976C59.0831 17.861 59.1775 20.133 59.0597 21.7848C58.8708 24.4358 57.573 25.357 55.1946 24.1262C52.8162 22.8961 53.5064 19.2329 53.9388 16.8431C54.3724 14.4545 55.6247 11.1742 54.2734 9.62428C54.2734 9.62428 52.4651 8.11986 51.2139 11.8547C49.9644 15.5896 48.91 22.5217 48.3911 25.3883C47.8716 28.2554 47.4352 36.6327 47.4984 37.8305C47.5609 39.0293 47.05 41.3377 48.8839 41.5232C50.7177 41.7076 52.2733 33.2671 52.3644 32.3903C52.4566 31.5124 52.9789 28.4864 53.7823 28.0984C54.5857 27.7103 57.5775 28.1149 57.6799 29.5897C57.7454 30.549 58.0265 33.9937 57.8677 35.744C57.6441 38.2009 56.2609 42.375 58.6711 42.8365C59.7403 43.0407 60.629 41.2717 61.0529 39.138C61.3329 37.7275 61.4865 33.3126 61.7295 30.6845C61.9684 28.1217 62.4475 25.0258 62.9585 22.718C63.4706 20.4096 63.9929 17.3034 64.0874 16.2673C64.1818 15.23 64.3753 12.838 63.7448 12.1899C63.115 11.5424 61.169 10.0954 60.1277 13.976ZM85.7103 12.0385C83.968 11.0564 79.8406 9.32215 78.2423 9.37961C77.3512 9.41205 76.7162 9.99641 76.7845 10.8766C76.8522 11.7557 77.6391 12.5648 80.4232 13.3222C83.2073 14.0795 84.1581 14.5717 84.8005 14.2616C85.4434 13.9521 87.4526 13.0217 85.7103 12.0385ZM75.6015 15.4906C72.3253 15.6835 70.0692 19.4024 69.4638 20.5143C68.9773 21.4064 64.6319 34.8979 64.5272 36.6538C64.4225 38.4086 62.8879 42.3136 69.3756 43.9062C70.4089 44.1605 75.0479 44.2908 75.3233 41.7389C75.5976 39.1887 73.3552 39.0128 70.9648 38.7397C68.5733 38.4666 68.4197 35.4191 69.0291 34.4011C71.6886 29.9613 73.7921 31.3593 75.1572 30.8193C76.5216 30.2805 77.193 27.8941 75.527 27.1533C73.861 26.4107 71.9395 26.3544 72.533 23.6716C73.1486 20.883 74.1187 20.6264 74.7378 20.1894C77.1606 18.4784 78.8255 21.6101 79.8599 21.7837C80.8955 21.9578 83.6238 20.9023 82.417 19.0986C80.269 15.8883 78.8778 15.2972 75.6015 15.4906ZM87.3058 40.6441C86.5831 40.6055 85.0673 40.8518 84.8141 41.8066C84.5609 42.7614 85.0673 44.9315 87.2477 44.7893C88.7157 44.6925 89.258 43.7059 89.3479 42.9878C89.4383 42.2715 89.2995 40.7523 87.3058 40.6441ZM98.0302 14.0311C95.5732 12.7987 93.0771 14.2815 92.0222 15.4639C90.9672 16.6462 88.578 27.7115 88.2258 30.0222C87.9078 32.1104 87.65 34.0165 87.7479 35.6034C87.8702 37.5528 88.5103 38.1696 89.8014 37.229C91.0918 36.2902 92.3243 33.5898 93.5522 31.6125C94.858 29.5123 98.8677 22.6656 99.5334 20.7584C100.199 18.8511 100.489 15.2624 98.0302 14.0311Z" fill="white"/>
</svg>
