<svg width="100" height="46" viewBox="0 0 100 46" fill="none" xmlns="http://www.w3.org/2000/svg">
<path fill-rule="evenodd" clip-rule="evenodd" d="M58.0126 8.74688V7.9093L58.05 7.897L58.1991 7.83447L58.3242 7.73398L58.4247 7.58431L58.4872 7.35928L58.4995 6.90923L58.4493 6.60937L58.3499 6.42229L58.2494 6.28438L58.1243 6.23467L58.0126 6.22238V5.39763H58.1494L58.4375 5.40992L58.6871 5.48476L58.8876 5.59754L59.0495 5.72261L59.1372 5.8851L59.2126 6.05989L59.2628 6.27262L59.3002 6.49765L59.3125 6.70985L59.3248 6.93488L59.3125 7.29728L59.2751 7.65968L59.1997 7.88471L59.0747 8.07232L58.9127 8.22198L58.7374 8.33423L58.9752 8.49672L59.1372 8.74688L59.2377 9.03444V11.4969H58.3627V9.34713L58.3253 9.02215L58.2002 8.83454L58.0126 8.74688ZM70.7879 11.5221V5.3971H71.7003V11.5221H70.7879ZM84.8872 11.5221V5.3971H87.2872V6.24697H85.812V7.97183H87.2872V8.78483H85.812V10.6599H87.2872V11.5221H84.8872ZM98.1378 9.44708V9.84743L98.1501 10.1724L98.2366 10.4226L98.3617 10.5851L98.5248 10.685H98.6878L98.8246 10.6102L98.9251 10.4851L98.9876 10.3098L99.0379 10.0848L99.0502 9.82231L98.9999 9.54703L98.862 9.29742L98.6493 9.04727L98.3494 8.73458L97.9747 8.33423L97.7369 8.05949L97.5749 7.79705L97.4499 7.52178L97.3622 7.25933L97.312 6.99689L97.2868 6.74673V6.50888L97.312 6.29668L97.3745 6.08394L97.4499 5.84662L97.638 5.597L97.8876 5.37197L98.1757 5.2346L98.4505 5.19719L98.7375 5.22231L99.0379 5.30997L99.2747 5.43505L99.4628 5.66007L99.613 5.96047L99.6873 6.26033L99.6996 6.47253L99.7119 6.69756L99.7242 7.15991H98.9497V6.72215L98.9246 6.43458L98.8743 6.19726L98.7364 6.03423L98.5622 5.9594L98.3617 6.00911L98.2249 6.15931L98.1495 6.38433L98.1244 6.64678L98.1618 6.90923L98.2612 7.19679L98.474 7.52178L99.1988 8.22145L99.4243 8.48389L99.5997 8.78429L99.7237 9.09644L99.799 9.45884L99.8364 9.82124L99.8242 10.1836L99.7739 10.546L99.6734 10.8833L99.5243 11.1458L99.349 11.3708L99.1245 11.5333L98.8487 11.6086H98.5488L98.2356 11.5461L97.9608 11.4216L97.7241 11.2462L97.5359 11.0084L97.4108 10.7085L97.3232 10.3461L97.2858 9.92119V9.44708H98.1378ZM58.0126 5.39763V6.22238L57.5251 6.22185V7.92213H57.9372L58.0126 7.9093V8.74688L57.8373 8.72229H57.5251V11.5221H56.625V5.3971L58.0126 5.39763ZM15.9749 9.98426V9.25947H16.325L15.9749 6.72161V5.38427H16.5372L17.4251 11.5718H16.6372L16.4127 9.98426H15.9749ZM28.2997 11.4969V5.35915H29.1495V10.6091H30.5243V11.4969H28.2997ZM42.8747 11.4841V5.3971H45.2121V6.2598H43.7748V7.92213H45.2121V8.82224H43.7748V10.5476H45.2121V11.4846L42.8747 11.4841ZM3.49998 8.22198V11.5846H2.72494V11.2473L2.42455 11.4846L2.09956 11.5851L1.73716 11.5595L1.41218 11.397L1.16203 11.1094L0.99954 10.7593L0.962124 10.3718L0.974418 6.6719V6.39663L1.03696 6.13419L1.13691 5.88403L1.28711 5.65901L1.46243 5.47139L1.68746 5.32119L1.91248 5.23354L2.16264 5.19612H2.41279L2.65011 5.27148L2.87514 5.39603L3.07505 5.55852L3.23754 5.77072L3.36261 5.99575L3.45027 6.25819L3.48769 6.53293V7.1829H2.68752V6.47039L2.6624 6.25819L2.55016 6.0957L2.39996 5.98345L2.21234 5.94604L2.03703 5.99575L1.88736 6.13312L1.7997 6.3079L1.78741 6.52064L1.77512 10.2831L1.81253 10.5209L1.9499 10.7085L2.13751 10.8208H2.36254L2.55016 10.7085L2.67523 10.5086L2.71265 10.2836V9.04727H2.27488V8.22198H3.49998ZM15.9749 5.38427V6.72161L15.9626 6.58424L15.6376 9.25947H15.9749V9.98426H15.5249L15.325 11.5466H14.5499L15.45 5.38427H15.9749Z" fill="white"/>
<path fill-rule="evenodd" clip-rule="evenodd" d="M94.0744 18.1597L94.2123 18.0346L94.4742 17.8096L94.6496 17.5723L94.7874 17.3226L94.8751 17.1724V17.0725L94.8377 16.9223L94.6998 16.8721L94.4871 16.9346L94.1872 17.1473L94.0744 17.2724V15.2348L94.3748 15.2097L94.7244 15.2974L95.0365 15.5224L95.4486 15.9596L95.8736 16.6224L96.074 17.0976L96.1114 17.3601L96.0863 17.5851L96.0109 17.785L95.9105 18.0351L95.6737 18.3478L95.4481 18.6226L94.8489 19.1854L94.1733 19.7103L94.0728 19.8103V18.1597H94.0744ZM94.0744 36.7339V35.31L95.4492 35.2849L97.0997 35.147L98.0624 34.9839L98.5499 34.7472L98.7615 34.5467L98.7867 34.3837L98.7364 34.2217L98.6872 33.9213L98.7615 33.7722L99.0619 33.9213L99.3238 34.1843L99.4992 34.5088L99.5366 34.9086L99.3987 35.5714L99.1368 35.9087L98.5242 36.1342L96.9741 36.4838L94.9489 36.7206L94.0744 36.7339ZM94.0744 28.372V26.5344L94.1995 26.6723L94.9002 27.3592L95.5368 27.922L96.0617 28.2844L96.6497 28.4725L97.4744 28.5853L98.2618 28.573L98.9246 28.3849L99.4746 28.1353L99.7744 28.0102L99.8872 27.9348L100 27.8974L99.9877 28.1101L99.9 28.3095L99.7498 28.4346L99.3623 28.7467L98.7744 29.1343L97.8368 29.4977L96.6748 29.5982L95.3626 29.2225L94.1621 28.4597L94.0744 28.372ZM93.262 18.5723L93.3496 18.6472L93.5741 18.5595L93.8745 18.3222L94.0744 18.1597L94.0739 19.8097L93.7991 20.047L93.1738 20.5094L92.7488 20.922L92.5495 21.2844L92.4741 21.6965L92.449 22.284L92.4613 23.0211L92.4987 23.609L92.6227 24.0591L92.8354 24.5968L93.2727 25.3964L93.7975 26.2345L94.0723 26.5344V28.372L92.8226 27.1101L91.6092 25.3227L90.9598 23.7598L90.6594 22.6469L90.598 22.1092L90.0731 22.4721L89.36 22.8094L88.8848 23.0093L88.4973 23.1338L88.1478 23.159L87.8848 22.9714L87.6977 22.8089L87.4721 22.4465L87.3968 22.1338L87.5849 21.9339L88.2354 21.5843L89.297 21.1588L90.2596 20.7088L90.722 20.3838L90.8973 19.659L91.2971 18.3842L91.9978 16.9715L93.0097 15.7966L93.8355 15.2589L94.0723 15.2343V17.2719L93.8729 17.5092L93.6473 17.8588L93.4105 18.2591L93.262 18.5723ZM94.0744 35.31V36.7339L92.8873 36.7591L90.4119 36.6099L90.149 36.5094L90.0747 36.2839L90.0998 35.7087L90.1752 35.4842L90.2992 35.3212L91.2869 35.31H94.0744ZM65.2493 37.8468V35.5094L65.7117 34.9845L66.0751 34.5344L66.8497 33.6723L67.7872 32.785L68.2121 32.4354L68.6371 32.0233L69.1999 31.547L69.5623 31.1221L70.4998 29.6971L71.7869 27.6104L73.0751 25.3857L74.3248 23.0595L75.5996 20.4725L76.6622 18.0597L77.5997 15.6598L78.6372 12.5976L79.4117 9.91005L79.9617 7.19741L80.2375 5.17215L80.3615 3.53494L80.4492 2.34726L80.5369 1.8972L80.7239 1.70959L80.9997 1.60963L81.2996 1.57222H81.5123L81.6251 1.64705L81.6994 1.79725V2.2473L81.7245 2.98439L81.6994 3.95934L81.6 5.19673L81.4498 6.59662L81.2617 7.95909L81.05 9.08423L80.7993 10.2345L80.5625 10.9844L80.1253 12.3592L79.7132 13.7719L79.2882 14.8965L78.9376 15.9965L78.5378 17.0965L78.0503 18.5841L77.6003 19.6841L77.1128 20.859L75.7257 23.5085L75.1137 24.8844L74.7631 25.3847L74.4632 25.9336L74.313 26.1966L74.1879 26.4965L74.2254 26.6215L74.5258 26.4713L75.6504 25.6717L77.3383 24.5711L78.588 23.8843L79.2759 23.5588L79.563 20.6468L79.8628 18.0218L80.2386 15.5593L80.701 13.0343L81.3253 10.2468L82.0506 7.5721L83.087 4.38428L84.0871 1.84695L84.5997 0.784348L84.8504 0.521905L85.1123 0.47166L85.3501 0.421415L85.4752 0.371706L85.612 0.346584L85.8125 0.296875L85.9744 0.383999L86.0119 0.547025L85.9124 0.884302L85.7243 1.34719L85.549 1.83466L85.0487 3.20942L84.6488 4.29715L84.1737 5.39718L83.8492 6.39724L83.5494 7.52186L83.1859 8.8592L82.8235 10.3842L82.5113 11.7717L82.2858 13.0343L82.0864 14.5218L81.9234 15.8971L81.7732 17.3595L81.6241 18.7471L81.4236 20.6473L81.3734 21.7222L81.3611 22.4972L81.4236 22.7848L81.5989 22.7971L81.9736 22.7217H82.5616L83.1859 22.8094L83.8236 22.9719L84.2485 23.1093L84.5355 23.2723L84.9487 23.5342L85.4854 24.0842L85.736 24.4717L86.0733 25.0843L86.4117 25.8337L86.6362 26.6092L86.7612 27.3966L86.7864 28.0342L86.8489 28.9589L86.874 29.5843L86.8489 30.6961L86.7238 31.5331L86.5111 32.6583L86.3871 33.3211L86.2743 33.9828L86.2118 34.5831L86.1113 35.2207L86.0487 35.8199V37.0958L86.061 37.4956L85.9482 37.7324L85.7366 37.8703L85.5361 37.9077L85.3245 37.9831L84.9498 38.0333L84.6114 37.9328L84.4623 37.6822L84.3998 36.9579L84.4249 35.7948L84.612 33.8834L84.9252 31.2205L85.0492 29.3203L84.9124 27.6205L84.5489 26.0074L84.1865 25.1826L83.7113 24.7203L83.2741 24.4824L82.7866 24.383H82.0869L81.6246 24.4573L81.399 24.545L81.2611 24.6203L81.1617 24.8459L81.0992 25.1832L81.0618 25.5953L81.0741 26.4703L81.0863 27.4452L81.1617 28.6083L81.1991 29.5084L81.2985 30.4582L81.3611 31.4947L81.4487 32.3579L81.6743 33.5825L81.9613 34.6077L82.3734 35.9076L82.886 37.1824L83.3361 38.0585L83.5729 38.5459L83.6605 38.9334L83.6857 39.3333L83.6482 39.6577L83.4863 39.8581L83.2233 39.9709L82.8989 40.1078L82.5867 40.2083L82.3611 40.2959L82.1607 40.2708L82.0239 40.1703L81.9234 39.7828L81.7481 39.2199L81.298 38.3198L80.5358 36.6452L79.873 34.5072L79.4229 31.9201L79.2359 29.3449L79.1984 26.9321L79.1861 25.6824L79.0611 25.4317L78.7981 25.5194L78.4117 25.7449L77.473 26.2575L76.2736 27.1074L75.049 27.9321L74.2483 28.6318L73.1606 29.5955L72.2733 30.5956L71.486 31.5695L70.6238 32.8074L70.0236 33.6947L69.3367 34.745L68.6991 36.0947L68.3746 36.7564L68.1116 37.4817L68.2244 37.7939L68.3746 37.8944L68.6365 37.8821L68.8872 37.7067L68.5991 38.3321L68.1367 38.9447L67.8246 39.3568L67.5242 39.407L67.0742 39.2189L66.8871 39.0559L66.6364 38.7688L66.5861 38.5694L66.6236 38.1563L66.7989 37.5694L66.8994 36.8815L66.7112 36.7564L66.1863 37.2316L65.7491 37.5074L65.3867 37.7693L65.2493 37.8468ZM65.2493 29.4095L65.3995 29.4347L66.2996 29.3844L67.1495 29.1963L67.7124 28.8964L68.0748 28.6847L68.6125 28.309L68.9123 28.0219L69.2507 27.7087L69.5377 27.5094L69.6879 27.3714L69.6756 27.1095L69.5003 27.3089L69.2886 27.3212L68.9631 27.5719L68.6386 27.8338L68.1886 28.1096L67.5258 28.309L66.6134 28.472L65.6395 28.4469L65.2509 28.3592V29.4095H65.2493ZM65.2493 19.5345L65.2867 19.4847L65.6866 18.9347L66.1489 18.3099L66.5375 17.7727L66.8122 17.2724L67.1746 16.6721L67.4494 16.1221L67.6498 15.6347L67.7001 15.1221L67.6749 14.7597L67.25 14.3721L66.7748 14.1348H66.0506L65.275 14.4101L65.2499 14.4352V16.5102L65.3503 16.4102L65.6502 16.1601L65.8629 16.0227L66.0131 15.973L66.0506 16.0478L65.9378 16.3231L65.7122 16.7106L65.3878 17.2109L65.2499 17.4108L65.2493 19.5345ZM65.2493 14.4347V16.5097L64.9874 16.747L64.5876 17.1591L64.1867 17.6717L63.7992 18.2591L63.4748 18.8219L63.2128 19.3468L63.0375 19.7472L62.8243 20.3843L62.7991 20.4843L62.7879 20.5848L62.9119 20.5345L63.3871 19.9973L64.1867 18.9844L64.8998 17.9347L65.2493 17.4098V19.5345L64.9874 19.9348L64.6619 20.3351L64.2872 20.8477L63.8751 21.348L63.3876 21.8981L63.0129 22.3476L62.5126 22.9724L62.1882 23.6347L62.038 24.5594L62.1256 25.4093L62.5378 26.3842L62.8248 26.9091L63.4625 27.4719L64.2247 27.9092L64.9254 28.2716L65.2499 28.3592L65.2493 29.4095L64.3626 29.2593L63.3999 28.8344L62.3496 28.0722L61.4874 27.1095L60.8508 26.0218L60.5627 25.4718L60.4008 25.3713L59.9748 25.6845L59.1751 26.3842L58.3878 27.2223L56.7244 28.8846L55.9622 29.672L54.7868 30.7725L54.1 31.3851L53.6627 31.8351L53.1624 32.36L52.8995 32.785L52.6376 33.4595L52.3377 34.3719L52.125 34.9845L51.9748 35.4468L51.8128 35.9471L51.6001 36.51L51.8005 36.635L52.5002 36.6099H53.7761L55.3251 36.6222L56.7624 36.6965L58.0634 36.8093L59.4381 36.9846L60.3131 37.1728L60.838 37.3721L61.0123 37.5223L61 37.7094L60.8508 38.2974L60.4751 38.6347L60.1127 38.6721L59.15 38.5481L57.6876 38.385L55.4501 38.2974H52.9999L51.5247 38.2723L51.1751 38.385L51.0121 38.6469L50.8753 39.0227L50.1376 40.6471L49.8127 41.3227V38.3476L49.888 38.1723H49.8127V36.6105H49.8378L50.2622 36.573L51.0244 34.0726L50.2248 34.9348L49.8121 35.3469V33.9219L49.8747 33.8604L50.6994 33.0597L51.3248 32.2601L51.8999 31.4353L52.2874 30.6223L53.0368 27.8851L53.6248 24.9726L54.0123 22.6977L53.9246 22.3353L53.6499 22.5357L53.3992 22.8735L53.0497 23.4113L52.6873 23.9239L52.374 24.2237L52.087 24.5733L51.6369 24.948L51.3622 25.0982L51.0116 25.1858H50.5743L50.012 25.0105L49.8116 24.8111V19.1218L50.112 18.8219L50.337 18.7717L50.624 18.8219L51.0741 19.0219L51.4247 19.1341L51.5242 19.2838L51.4488 19.6216L51.2745 20.3838L51.0864 21.6586L51.1489 22.6335L51.3996 22.8837L51.7492 22.7084L52.2741 22.1584L53.4484 20.6585L54.5238 19.2458L54.8611 18.7706L54.8985 18.4959L55.0236 18.3831L55.3983 18.358L55.7227 18.4082L55.9985 18.4585L56.1856 18.521L56.3235 18.6461V19.5211L56.1856 20.6457L56.0237 21.7708L55.8232 22.896L55.5987 23.9826L55.3229 25.0832L55.0231 26.1838L54.6858 27.2464L54.3223 28.3079L54.1732 28.7831L54.1107 29.1214L54.1358 29.3331L54.2598 29.471L54.5228 29.3331L54.86 29.0332L55.3475 28.596L57.2477 26.6707L59.2104 24.5952L60.3858 23.283L60.698 21.8826L61.1352 20.3079L61.9599 18.2206L63.0225 16.383L64.1605 15.1456L65.2493 14.4347ZM65.2493 35.5094L65.0874 35.6975L64.8116 36.3721L64.5871 36.9723L64.4369 37.5352L64.6373 37.9473L64.912 37.9975L65.1248 37.9099L65.2488 37.8473L65.2493 35.5094ZM49.8116 19.1218L49.8121 24.8101H49.7998L49.4626 24.1724L49.2878 23.5096L49.3001 22.4352L49.2878 21.8729L48.9874 21.9355L48.5501 22.2605L47.9627 22.973L47.3127 23.7229L46.3629 24.7358L45.9754 25.0228L45.5751 25.2858L45.0876 25.4974L44.5124 25.5851L43.9999 25.4974L43.6375 25.2227L43.3873 24.7604L43.112 24.1227L42.9495 23.5101L42.8373 23.0852L42.5871 23.0975L42.4118 23.3482L41.8244 24.6481L41.5871 25.1356L41.2118 25.6856L40.6121 26.4852L40.0744 26.9727L39.5618 27.4479L38.8744 27.5858L38.0994 27.2977L37.6622 26.761L37.4248 25.8353L37.5494 24.2863L38.0246 22.2861L38.5997 20.7109L39.1748 19.636L39.712 18.7984L39.6997 18.5483L39.1994 18.7236L38.3747 19.0235L37.4371 19.4484L36.7743 19.7734L36.212 20.0855L35.5247 20.4976L34.787 20.96L34.1868 21.3849L33.4866 21.9221L32.9991 22.3096V20.8723L33.5993 20.4725L34.6491 19.7221L35.7369 19.1346L37.0619 18.4595L37.8995 18.1346L38.7494 17.847L39.3742 17.6343L39.9867 17.4344L40.6239 17.3221L41.2738 17.0468L41.7859 16.7464L42.361 16.384L43.2232 16.0088L43.7481 15.8592L43.9731 15.9089L44.1484 16.0591L44.436 16.4963L44.6108 16.7967L44.5108 17.0843L43.9106 17.3841L43.1735 17.847L42.4487 18.3719L41.7859 18.947L41.2487 19.5467L40.7864 20.1593L40.324 20.8718L39.9237 21.6094L39.6489 22.3465L39.4485 23.0462L39.286 23.7341L39.1363 24.4209L39.0738 24.9335L39.0861 25.2719L39.3614 25.3713L39.7366 25.0089L40.424 23.8971L41.2241 22.4342L42.4861 19.8969L43.0864 18.784L43.2489 18.6466L43.7363 18.5216L44.3489 18.5093L44.661 18.5841L44.7861 18.722L44.8487 18.947L44.9112 19.8343L44.7364 21.0092L44.6242 21.6714L44.5242 22.6592L44.5739 23.2343L44.6616 23.6967L44.8118 23.8095L45.2116 23.6464L46.2988 22.7592L48.0611 20.9969L49.5866 19.3468L49.8116 19.1218ZM49.8121 33.9219V35.3463L49.5876 35.5468L48.8249 36.2962L48.5876 36.5217L48.6373 36.6094L49.1376 36.6345L49.8121 36.6094V38.1712L49.0873 38.1589L48.1247 38.1841L47.3245 38.2717L46.7745 38.4347L46.3747 38.6464L46.0369 38.9345L45.6248 39.3846L45.2249 39.9346L44.9 40.4595L44.6498 40.9347L44.4376 41.4473L44.288 41.9588L44.2126 42.2218L44.1623 42.5216L44.1249 42.8723L44.1501 43.2218L44.1998 43.5463L44.2874 43.8461L44.475 44.1465L44.7001 44.3582L45.025 44.5084L45.4628 44.6089L45.9631 44.4838L46.5382 44.0466L47.0631 43.5089L47.5383 42.9086L48.5261 41.2591L49.2509 39.7213L49.8132 38.3466V41.3216L49.5256 41.8968L48.8634 43.1336L47.9633 44.308L47.5629 44.8457L46.8755 45.4336L46.263 45.633L45.4756 45.6955L44.9128 45.5961L44.4125 45.408L43.9501 45.1209L43.5755 44.7201L43.3002 44.1834L43.1628 43.4704L43.1131 42.7584L43.3504 41.5205L43.7502 40.321L44.3254 39.2082L45.063 38.183H43.9501L42.213 38.1707L38.5003 38.2712L34.4754 38.4593L33.0007 38.547V36.8841L33.6881 36.8467L36.7882 36.8093L39.9381 36.7468L43.4755 36.6965L44.8134 36.6853L45.9508 36.6479H46.5008L47.0883 36.3721L48.1257 35.4474L49.8121 33.9219ZM32.9996 18.6343L33.2995 18.1971L33.7747 17.4595L34.2119 16.7219L34.6245 15.9591L35.0121 15.1841L35.3745 14.3967L35.7246 13.5966L36.0372 12.7841L36.2623 12.1593L36.4745 11.5093L36.637 10.7845L36.7492 10.0095L36.7866 9.27238L36.7118 8.14723L36.5242 7.42244L36.2372 6.87189L35.6369 6.23422L35.0372 5.9969L34.7368 6.02202L34.2867 6.23422L33.5742 6.93443L32.9991 7.98421V11.7589L33.3492 10.9588L34.3744 8.85867L34.8742 8.04621L35.1115 7.93343L35.3488 7.95855L35.5241 8.14617L35.5867 8.98374L35.4744 10.0212L35.2622 10.8839L35.0121 11.7461L34.8496 12.4463L34.5743 13.1588L34.299 13.9718L33.9489 14.8965L33.5865 15.6213L33.2492 16.3215L32.9991 16.7839L32.9996 18.6343ZM32.9996 7.98474V11.7595L32.4993 12.9471L31.8616 14.6725L31.2865 16.5599L30.8119 18.4473L30.4244 20.0973L30.5745 20.0599L31.0748 19.5596L31.5121 19.0972L31.8494 18.622L32.1995 18.1217L32.5496 17.5846L32.8997 16.9971L32.9996 16.7849V18.6343L32.8243 18.9224L32.4368 19.4847L31.1117 21.2347L30.7493 21.7099L30.2742 22.4598L30.0994 22.8848L29.9989 23.4225L30.1742 23.3851L30.7242 22.7971L31.1871 22.3342L31.7622 21.8093L32.4993 21.2091L32.9996 20.8718V22.3091L32.8243 22.4465L32.0493 23.121L31.0994 24.0457L30.5745 24.5834L30.1993 24.9581L30.0368 25.1709L29.8995 25.359L29.7867 25.6963L29.6365 26.3708L29.4489 27.0588L29.1613 28.7334L28.9614 30.2712L28.7861 32.2088L28.6615 33.3339L28.561 34.8092L28.3366 37.0963L30.5863 37.0087L32.9986 36.8836V38.5465L30.8359 38.6705L28.2361 38.8458L28.0987 40.3082L27.9987 41.0079L27.9111 41.5579L27.8608 41.746L27.6983 41.7835H27.4498L26.7998 41.683L26.3626 41.5077L26.2375 41.4072L26.1499 41.2329L26.1622 40.8331L26.237 39.5952L26.2744 38.996L24.2246 39.2205L20.8374 39.4332L19.05 39.5701V38.0585L19.2125 38.0333L22.1875 37.6335L23.1251 37.533L24.8248 37.3326L26.3626 37.1824L26.6373 34.5954L26.9249 31.995L27.3124 29.1824L27.8999 25.3836L28.6247 21.2582L29.2869 18.0833L30.0245 15.3332L30.8995 12.7585L32.4122 9.0837L32.9996 7.98474ZM19.05 28.4218L20.05 27.3592L20.8999 26.3842L20.8625 27.334V28.1347L20.9624 29.022L21.1623 29.9595L21.5376 30.8597L22.025 31.6593L22.5125 32.1216L22.7498 32.2221L23.1374 32.1847L23.4378 32.0228L23.9627 31.484L24.5629 30.5978L25.013 29.6966L25.2754 29.0974L25.463 28.4848L24.9007 27.8969L24.6885 28.372L24.4009 28.9723L24.0508 29.6469L23.7259 30.0477L23.3629 30.1092L23.1256 29.6351L22.7878 28.3095L22.7504 26.6477L23.0257 24.6102L23.4255 22.3727L23.5505 21.3855V20.6607L23.0631 19.8985L22.6755 19.6109L22.2506 19.3736L21.4259 19.1988L20.6888 19.5986L20.1388 19.9359L19.4888 20.3362L19.0516 20.6612V23.4856L19.7389 22.6736L20.5268 21.8858L20.9518 21.5859L21.1522 21.5105L21.2644 21.5357L21.327 21.5731L21.3521 21.673L21.327 21.7981L21.2767 21.9729L21.1645 22.2605L20.94 22.7228L20.6027 23.3605L20.2649 23.9474L19.9399 24.46L19.5647 25.0351L19.1023 25.6605L19.0521 25.723V28.4218H19.05ZM19.05 20.6596V23.484L18.5999 24.0217L17.6752 25.4841L17.0878 26.722L16.8125 27.5468L16.75 27.9343L16.8248 28.0471L17.1001 27.8717L17.5373 27.4719L18.0376 26.947L18.5502 26.3227L19.05 25.7225V28.4218L17.6624 29.672L16.9125 30.2599L16.0498 30.4353L15.5249 30.3727L15.1496 29.9355L14.8498 29.4229L14.6996 28.7975L14.6247 28.0733L14.7124 27.2726L15.0246 26.311L15.287 25.7358L15.512 25.1607L16.1369 23.9853L16.4742 23.4236L16.8991 22.8735L17.5865 21.9985L18.1739 21.4106L18.7742 20.8734L19.05 20.6596ZM19.05 38.0601V39.5717L16.2122 39.7972L10.1375 40.1468L7.22498 40.1217V38.8469L7.76216 38.872L8.87502 38.9222L10.1375 38.8597L11.3626 38.8094L12.5001 38.7843L13.6621 38.6967L14.7498 38.609L15.7119 38.4973L16.7745 38.3968L17.9745 38.1964L19.05 38.0601ZM7.22498 37.5849V36.6965L7.68733 36.6099L8.26247 36.5597L9.29995 36.3715L9.98733 36.309L10.6373 36.3464L11.2001 36.4592L11.275 36.5597L10.6122 36.6848L9.87508 36.8088L9.07492 37.0092L8.16251 37.246L7.6125 37.4587L7.22498 37.5849ZM7.22498 31.4963V30.5096L7.54996 30.4342L8.27476 30.2086L9.03751 29.8339L9.78743 29.3716L10.4374 28.9344L11.0376 28.5971L11.5625 28.2336L12.0249 27.8589L12.5247 27.6595L12.7871 27.4714L13.1372 27.434L13.3248 27.7087L13.3125 27.7841L13.2249 27.8343L13.0501 27.9471L12.5252 28.4346L11.8629 28.9221L11.2504 29.347L10.7004 29.7719L10.1001 30.1969L9.51269 30.6218L8.87502 30.9473L8.03744 31.2969L7.22498 31.4963ZM7.22498 12.1721V6.44749L7.28752 6.30958L7.69963 5.5725L8.06203 4.99736L8.38701 4.42223L8.71199 3.85992L9.22405 3.20996L9.53674 3.06029L9.79918 3.048L10.3866 3.07312H10.7741L10.9366 3.18537L10.9489 3.47294L10.5614 4.38535L9.3363 7.09799L8.06096 10.048L7.22498 12.1721ZM7.22498 6.44749V12.1721L6.97537 12.8221L5.8251 15.9719L4.80044 19.1592L3.85062 22.7094L3.3006 25.5466L3.17606 27.6093L3.32573 29.0968L3.72607 30.0344L4.27609 30.547L4.88863 30.7463L5.78875 30.7586L6.66374 30.6459L7.22605 30.509V31.4957L6.93848 31.5583L5.91383 31.6208L5.15108 31.5454L4.30121 31.3338L3.53846 30.9842L3.20118 30.7463L2.70088 30.4219L2.16316 29.734L1.81306 29.0974L1.46296 28.2213L1.25076 27.6595L1.13797 26.8711V25.9085L1.21334 24.9207L1.33841 23.6587L1.6634 21.7714L1.93814 20.5089L2.27541 19.1838L2.58757 18.234L3.15041 16.5717L3.663 15.1969L4.18789 13.8964L4.72507 12.4965L5.31304 10.9593L6.15008 8.93403L6.85029 7.25888L7.22498 6.44749ZM7.22498 36.6965V37.5849H7.21269L6.45048 37.7843L5.55036 38.0724L4.36268 38.3471L3.46256 38.5978L3.15041 38.772L3.97516 38.8346H6.52477L7.22498 38.8469V40.1217H5.91276L3.42514 39.8346L1.10002 39.3343L0.112247 38.8971L0 38.4973L0.0374157 38.1969L0.137369 38.0601L0.812456 37.9596L1.83711 37.8345L3.0248 37.6351L4.21248 37.347L5.22484 37.1225L5.84969 37.022L6.7498 36.7842L7.22498 36.6965Z" fill="white"/>
</svg>
