<svg width="120" height="8" viewBox="0 0 120 8" fill="none" xmlns="http://www.w3.org/2000/svg">
<path d="M1.794 0.125L4.92422 6.63289L8.07918 0.125H9.87318V7.87013H8.63594V1.43648H8.6112L5.50572 7.87013H4.36746L1.26199 1.4241H1.23724V7.87013H0V0.125H1.794Z" fill="white"/>
<path d="M19.7092 1.0653H19.734L21.3919 4.67805H18.0266L19.7092 1.0653ZM15.1315 7.87013H16.4924L17.6059 5.53174H21.8126L22.9013 7.87013H24.3613L20.4763 0.125H19.0164L15.1315 7.87013Z" fill="white"/>
<path d="M32.5271 7.87013H31.2156V4.70279L27.3801 0.125H28.9514L31.9208 3.81198L34.8283 0.125H36.3378L32.5271 4.70279V7.87013Z" fill="white"/>
<path d="M42.7343 4.31925H45.7532C46.8667 4.31925 47.906 4.60381 47.906 5.61835C47.906 6.47205 47.176 7.01643 46.0377 7.01643H42.7219L42.7343 4.31925ZM41.4228 7.87013H46.2233C48.1905 7.87013 49.2298 6.79373 49.2298 5.64309C49.2298 4.67805 48.5741 3.97282 47.3492 3.77486V3.75012C48.2771 3.45318 48.8215 2.83456 48.8215 2.00561C48.8215 1.23852 48.3143 0.681758 47.6585 0.384821C47.0646 0.125 45.9016 0.125 45.0232 0.125H41.4228V7.87013ZM42.7343 0.978696H45.382C46.5203 0.978696 47.4977 1.12717 47.4977 2.21594C47.4977 3.03252 46.8914 3.46555 45.382 3.46555H42.7343V0.978696Z" fill="white"/>
<path d="M56.5048 4.31925V7.01643H62.0724V7.87013H55.1809V0.125H62.0229V0.978696H56.5048V3.46555H61.6517V4.31925H56.5048Z" fill="white"/>
<path d="M69.2236 0.125V7.01643H74.4819V7.87013H67.9122V0.125H69.2236Z" fill="white"/>
<path d="M80.9156 0.125V7.01643H86.1615V7.87013H79.6041V0.125H80.9156Z" fill="white"/>
<path d="M91.6053 0.125H92.9168V7.87013H91.6053V0.125Z" fill="white"/>
<path d="M105.574 7.87013L100.353 1.65918H100.328V7.87013H99.0906V0.125H100.489L105.747 6.41018H105.772V0.125H107.009V7.87013H105.574Z" fill="white"/>
<path d="M114.42 4.31925V7.01643H120V7.87013H113.109V0.125H119.963V0.978696H114.42V3.46555H119.579V4.31925H114.42Z" fill="white"/>
</svg>
