<svg width="120" height="20" viewBox="0 0 120 20" fill="none" xmlns="http://www.w3.org/2000/svg">
<path d="M101.94 15.3485V18.8268H88.2944V1.03415H101.137V4.64618H91.9064V7.85688H99.9332V11.3351H91.9064V15.3485H101.94Z" fill="white"/>
<path d="M107.023 18.8268V1.03415H110.635V15.3485H120V18.8268H107.023Z" fill="white"/>
<path d="M22.2076 18.8268V1.03415H25.8196V7.85688H34.2477V1.03415H37.7265V18.8268H34.2477V11.3351H25.8196V18.8268H22.2076Z" fill="white"/>
<path fill-rule="evenodd" clip-rule="evenodd" d="M62.0737 18.8268H58.1941L56.3218 14.8134H46.8229L44.9505 18.8268H41.2042L49.2309 1.03415H53.9132L62.0737 18.8268ZM48.4282 11.2013H54.8496L51.6395 4.11106L48.4282 11.2013Z" fill="white"/>
<path d="M65.5525 18.8268V1.03415H69.9672L77.9934 11.7365V1.03415H81.6054V18.8268H78.7961L69.1645 5.98397V18.8268H65.5525Z" fill="white"/>
<path d="M12.3373 15.0568C13.2338 14.5142 13.964 13.7359 14.4484 12.8067L17.6591 14.5458C16.0303 17.431 12.9233 19.4282 9.36477 19.3619C4.16578 19.4282 -0.0365495 15.2264 0.000239722 9.99734C-0.0359921 4.85911 4.16634 0.656781 9.36477 0.632812C12.9138 0.656781 16.0136 2.6434 17.6591 5.58264L14.4484 7.32176C13.4946 5.43994 11.566 4.20415 9.36477 4.24485C6.12509 4.20415 3.51082 6.81842 3.47849 9.99734C3.51082 13.2671 6.12509 15.8808 9.36477 15.8836C10.4126 15.8854 11.4409 15.5994 12.3373 15.0568Z" fill="white"/>
</svg>
