<svg width="120" height="20" viewBox="0 0 120 20" fill="none" xmlns="http://www.w3.org/2000/svg">
<path fill-rule="evenodd" clip-rule="evenodd" d="M6.13771 1.1869L6.17876 1.57944H4.19999L7.96703 15.1704C8.94263 11.9043 10.7854 6.2682 11.6937 2.94823C11.829 2.44664 11.5987 1.99957 11.2466 1.81035C10.9624 1.66154 10.3114 1.71542 9.93233 1.70195L9.87781 1.1869H14.4312V1.57944C13.8212 1.60638 12.7372 1.71478 12.5204 2.32477C10.5962 7.54141 8.4962 14.588 7.11395 19.0452H6.89715L1.70745 1.57944H0.0404092L0 1.1869H6.13771ZM20.6093 13.1249L16.206 13.0839C15.7583 14.4257 15.3523 16.0517 15.054 17.366C14.9456 17.881 15.0136 18.0574 15.1759 18.2883C15.3382 18.5192 16.3414 18.3698 16.9513 18.4096L16.9109 18.7893H12.7238L12.6834 18.4096C13.0766 18.3698 14.0656 18.5186 14.201 18.1254C15.6371 14.1018 17.8051 5.60497 19.2418 0.930329H19.4856L24.4995 18.4096H26.0845V18.7893H20.136V18.4096H22.141L20.6093 13.1249ZM18.4414 5.15726L16.3144 12.7856H20.542L18.4414 5.15726ZM29.1055 1.70195H27.0325V1.1869H33.3197V1.70195H31.219V18.4506C32.2626 18.4506 33.3466 18.3955 34.3895 18.423C38.3599 18.5308 39.1322 16.892 39.1187 13.1653L39.417 13.1256L39.3765 18.7893H27.0055V18.4513H29.1055V1.70195ZM42.642 1.75583H40.8261V1.24077H51.9239L52.2215 5.64474L51.9368 5.60433C51.761 4.1682 51.693 3.74743 51.083 2.93475C50.473 2.12144 49.3621 1.85076 48.1562 1.83729L44.8228 1.79688L44.7824 9.81843C45.3648 9.80496 45.9607 9.80497 46.5437 9.76391C47.1268 9.73697 48.0074 9.42588 48.3192 8.97818C48.6309 8.53047 48.6848 7.73126 48.7393 6.60686H49.051L49.0914 13.1512H48.6578C48.6578 13.1249 48.6444 13.0839 48.6444 13.03C48.6309 12.2443 48.7393 11.5804 48.2653 10.8755C47.9811 10.4284 47.0594 10.1039 46.2461 10.1302L44.783 10.1712L44.8235 18.4769C46.8151 18.4634 50.2845 18.8162 51.7879 17.298C52.4249 16.6617 52.5878 15.2923 52.5878 13.8568L52.9945 13.8844L52.9675 18.7886H40.8672L40.8268 18.4365H42.6426L42.642 1.75583ZM66.7342 1.79688C66.4777 1.55314 65.42 1.64808 64.919 1.64808L64.9588 1.18754L69.2961 1.21448V1.58008C67.8452 1.62049 67.3583 1.43127 67.3166 2.88088C67.1813 6.94553 67.2903 15.8349 67.2769 19.0458L66.8971 19.0734L56.9109 2.33888C56.884 4.81859 56.816 13.5726 56.816 17.0549C56.816 18.8027 57.7512 18.3692 59.0109 18.3416V18.7886H54.4171V18.423C56.5036 18.3692 56.4902 18.4904 56.5171 15.9164C56.5575 11.3501 56.5851 6.49846 56.5986 1.59355C55.5691 1.60702 55.0399 1.62049 54.5255 1.62049V1.1869L58.9699 1.21384L66.9241 14.4527C66.9106 13.1249 66.9639 5.44141 66.9369 2.64997C66.9247 2.16249 66.8157 1.85076 66.7342 1.79688ZM103.076 1.81035C102.819 1.56661 101.761 1.66155 101.26 1.64808L101.3 1.201L105.637 1.22794V1.59355C104.187 1.62049 103.713 1.43063 103.658 2.88088C103.523 6.959 103.632 15.8349 103.618 19.0458L103.239 19.0734L93.2529 2.33888C93.2254 4.83206 93.158 13.5726 93.158 17.0549C93.158 18.8027 94.0926 18.3692 95.3529 18.3416V18.7886H90.7591V18.423C92.8463 18.3692 92.8463 18.4904 92.8597 15.9298C92.8995 11.3495 92.9271 6.51193 92.9412 1.60638C91.9252 1.61985 91.3826 1.61985 90.8682 1.61985V1.19972L95.3132 1.22666L103.267 14.452C103.253 13.1243 103.307 5.44076 103.28 2.66279C103.266 2.17596 103.157 1.86423 103.076 1.81035ZM75.4472 1.6609C73.564 1.62049 71.8707 1.7693 71.219 2.56915C70.5551 3.36899 70.6225 4.49339 70.4609 6.29513L70.1626 6.33554L70.1889 1.1869H82.9268L82.9941 6.37659H82.6548C82.4797 4.34394 82.5195 3.20607 81.8293 2.54157C81.1379 1.8777 79.1597 1.61985 77.6274 1.61985L77.5876 18.3807L79.6748 18.4217V18.8015H73.278V18.4217H75.4062L75.4472 1.6609ZM86.003 1.70195H84.1737V1.1869H90.0003V1.70195H88.1299V18.3813H89.9189V18.8021H84.0512V18.3813H86.003V1.70195ZM113.361 1.24077C113.184 1.24077 112.995 1.25424 112.805 1.29529C112.607 1.3367 112.413 1.3909 112.222 1.45757C111.464 1.75519 110.759 2.51463 110.123 3.74743C109.485 4.99434 109.174 7.05393 109.174 9.95377C109.174 12.8267 109.485 14.8722 110.109 16.1184C110.745 17.3512 111.436 18.1241 112.182 18.4359C112.384 18.5295 112.588 18.5847 112.778 18.6251C112.968 18.6661 113.158 18.679 113.361 18.679C113.55 18.679 113.74 18.6661 113.943 18.6251C114.146 18.5853 114.349 18.5301 114.553 18.4359C115.298 18.11 115.989 17.3249 116.613 16.0908C117.249 14.8446 117.561 12.7985 117.561 9.95377C117.561 7.32461 117.291 5.41383 116.762 4.19449C116.234 2.97516 115.651 2.14838 115.013 1.72825C114.751 1.5445 114.457 1.41135 114.146 1.3357C113.888 1.2748 113.625 1.24296 113.361 1.24077ZM106.789 9.99418C106.789 7.42018 107.385 5.34648 108.578 3.78848C109.77 2.21701 111.071 1.29529 112.506 1.01051C112.655 0.983566 112.805 0.970097 112.953 0.956627C113.102 0.929687 113.239 0.929688 113.374 0.929688C115.08 0.929688 116.613 1.76994 117.967 3.47739C119.322 5.17137 120 7.35283 120 9.99482C120 12.488 119.457 14.4796 118.374 15.9844C117.291 17.4891 116.098 18.4371 114.81 18.8297C114.58 18.9244 114.338 18.9884 114.092 19.0202C113.855 19.0584 113.615 19.0764 113.374 19.0741C112.999 19.0749 112.625 19.0248 112.263 18.9253C111.856 18.8303 111.45 18.6687 111.029 18.4641C109.973 17.8676 108.997 16.8791 108.116 15.5104C107.222 14.1275 106.775 12.2981 106.789 9.99418Z" fill="white"/>
</svg>
