<svg width="82" height="16" viewBox="0 0 82 16" fill="none" xmlns="http://www.w3.org/2000/svg">
<path d="M25.0031 0.578125C20.8476 0.578125 17.4789 3.95235 17.4789 7.99874C17.4789 12.0504 20.8475 15.4211 25.0031 15.4211C29.155 15.4211 32.5217 12.0488 32.5217 7.99874C32.5217 3.95208 29.1547 0.578125 25.0031 0.578125ZM28.1284 12.2863C27.896 12.635 27.6044 12.9462 27.2629 13.1963C26.7067 13.6414 26.0722 13.899 25.3981 13.9224C25.2711 13.9366 25.1369 13.9509 25.0031 13.9509C24.8636 13.9509 24.7331 13.9366 24.6009 13.9224C23.9268 13.8974 23.2976 13.6416 22.7397 13.1963C22.3982 12.9458 22.105 12.6364 21.8742 12.2863C21.0929 11.2064 20.603 9.69371 20.603 8.01275C20.603 6.43222 21.0392 4.99814 21.7348 3.94494C22.1262 3.24422 22.7396 2.68954 23.4908 2.36442C23.4963 2.36244 23.5015 2.35887 23.5086 2.3553C23.5427 2.34103 23.5785 2.32676 23.6178 2.31407C23.7162 2.27284 23.8179 2.239 23.9219 2.20689C24.2634 2.10684 24.6281 2.05133 25.0037 2.05133C25.3793 2.05133 25.7422 2.10684 26.0836 2.20689C26.1892 2.239 26.2892 2.27125 26.3913 2.31248C26.4254 2.32874 26.4612 2.34301 26.5004 2.3553C26.504 2.36244 26.5111 2.36244 26.5183 2.36442C27.2622 2.68993 27.8844 3.24422 28.2707 3.94494C28.9714 5.00541 29.4025 6.43751 29.4025 8.01275C29.3996 9.69371 28.9117 11.208 28.1284 12.2863Z" fill="white"/>
<path d="M46.3806 9.54516V11.6371C46.3485 12.8906 45.3273 13.899 44.0669 13.899C44.0613 13.899 44.0562 13.897 44.0526 13.897V13.9005H39.6558V2.14635H41.671V1.1003H34.4045V2.14635H36.4213V13.9013H34.4045V14.9491H47.4213V14.9455H47.432V11.5265H47.4213V9.54516H46.3806Z" fill="white"/>
<path d="M63.3135 1.10373H49.6186V2.15151H51.5945V13.9081H49.6186V14.9559H63.3887V9.97085H62.3338V11.6213C62.3231 12.8874 61.2913 13.9118 60.0201 13.9118C60.0129 13.9118 60.0109 13.9118 60.0074 13.9118H54.831V8.07539H55.8807C55.8914 8.07539 55.8985 8.07539 55.9077 8.07539H56.4925C57.4295 8.0861 58.1893 8.84801 58.1893 9.7849C58.1893 9.80116 58.1893 9.81345 58.1873 9.82257H58.1893V10.5879H59.1421V4.7925H58.1908V5.46467H58.1889C58.1889 5.47736 58.1908 5.49163 58.1908 5.50234C58.1908 6.44095 57.4309 7.10982 56.4921 7.12052H54.831V2.15349H57.8565C57.8708 2.15349 57.887 2.15349 57.9013 2.15349H60.0289C61.2966 2.16063 62.3212 3.18171 62.3319 4.44227V5.86723H63.3868V1.10532H63.3133L63.3135 1.10373Z" fill="white"/>
<path d="M81.276 13.951C80.2712 13.9261 80.035 13.6167 79.2591 12.7226L74.6764 7.01863L77.7087 3.39779V3.39978C78.5222 2.4683 78.7422 2.14636 79.7899 2.1301H80.5819V1.11814H74.9928V2.1301H76.2192V2.13367C76.2227 2.13367 76.2228 2.13367 76.2228 2.13367C76.4875 2.13367 76.7 2.34288 76.7 2.60575C76.7 2.71135 76.6659 2.80426 76.6122 2.88289L73.9229 6.08358L71.8131 3.45687L71.3733 2.89902C71.3071 2.8184 71.2626 2.71478 71.2626 2.60403C71.2626 2.34288 71.4753 2.13195 71.7362 2.12838H72.9395V1.11642H65.9502V2.12838H66.2828C67.1733 2.16962 67.4306 2.47345 68.1317 3.27819L72.1887 8.32954L68.5361 12.6888V12.6796C67.7191 13.6147 67.4972 13.9295 66.4479 13.9493H65.5952V14.9577H71.5721V13.9493H70.0992C69.838 13.9493 69.6219 13.7385 69.6219 13.4701C69.6219 13.3593 69.6632 13.2573 69.7311 13.1767L72.9747 9.30185L75.6693 12.6618L76.0805 13.1731C76.1449 13.2573 76.1897 13.3589 76.1897 13.4701C76.1897 13.733 75.9753 13.9493 75.7105 13.9493C75.7105 13.9493 75.7105 13.9493 75.7069 13.9493H74.4143V14.9577H81.9508V13.9493H81.2766V13.9509H81.276V13.951Z" fill="white"/>
<path d="M15.1059 13.8851L14.1905 11.2227C13.7596 10.0408 13.4573 9.50432 12.7887 8.89453C12.3471 8.4995 11.7318 8.31328 11.2741 8.18112C12.978 7.91112 14.2762 6.43223 14.2762 4.65518C14.2762 2.6828 12.6795 1.08272 10.7074 1.08272C10.6876 1.08272 10.6662 1.08629 10.6395 1.08629V1.08272H0.0828959V2.12521H2.03026V13.8925H0.0507812V14.9403H7.25847V13.8925H5.26829V8.23821H6.81309C6.86318 8.2402 6.90957 8.24178 6.95794 8.24535H7.27076C7.76424 8.26319 8.19336 8.33469 8.57609 8.44386C8.93385 8.53677 9.3146 8.65822 9.56504 8.82105C9.90482 9.04268 10.2693 9.35022 10.5897 9.89737C10.6719 10.0439 10.7469 10.1908 10.8184 10.3372C11.4068 11.4456 11.7606 12.9818 12.1523 14.9307H14.534V14.9343H16.6778V13.8846H15.1058V13.8851H15.1059ZM8.64944 7.18687H5.27529V2.11741H8.64746C10.0994 2.17292 11.2579 3.1866 11.2579 4.65121C11.2579 6.11583 10.0996 7.12224 8.64944 7.18687Z" fill="white"/>
</svg>
