<svg width="114" height="30" viewBox="0 0 114 30" fill="none" xmlns="http://www.w3.org/2000/svg">
<path d="M73.5979 29.9993H71.6475V17.3584H73.5979V29.9993ZM0.214844 17.3669V19.2968H13.1219L0.215548 28.0271V29.9683H17.0508V28.0391H3.90649L17.0508 19.1497V17.3669H0.214844ZM64.2944 17.3577H62.3377V27.6229L50.1362 17.3993V17.3577H48.1851V29.9993H50.1369V19.9073L62.18 29.9993H64.2952L64.2944 17.3577ZM111.831 17.3577V22.2921H101.014V17.357H99.0641V29.9986H101.014V24.2221H111.832V29.9993H113.785V17.3577H111.831ZM93.1249 17.3633H87.0323V17.3577H85.0819V17.3633H78.9899V19.2926H85.0819V29.9993H87.0323V19.2926H93.1249V17.3633ZM39.8316 28.056H27.5456V24.5115H39.3486V22.5815H27.5456V19.2933H39.7358V17.364H27.5456V17.3584H25.5938V30H27.5456V29.9852H39.8323L39.8316 28.056ZM59.3241 8.89854L60.0839 10.1293L59.1481 9.02669L56.9999 6.06943L54.8509 9.02669L53.9166 10.1293L54.6749 8.89854L56.8238 5.94128L53.3477 4.81259L52.0098 4.26409L53.4146 4.60558L56.8914 5.73497V2.07924L56.9999 0.637924L57.109 2.07924V5.73497L60.5845 4.60558L61.9892 4.26409L60.6514 4.81259L57.1759 5.94128L59.3241 8.89854ZM62.5961 4.06623H58.3222L56.9999 0L55.6783 4.06623H51.4043L54.8615 6.5785L53.5413 10.6447L56.9999 8.13247L60.4592 10.6447L59.1376 6.57991L62.5961 4.06623Z" fill="white"/>
</svg>
